<?xml version="1.0" encoding="UTF-8" standalone="no"?>
<!DOCTYPE svg PUBLIC "-//W3C//DTD SVG 1.1//EN"
 "http://www.w3.org/Graphics/SVG/1.1/DTD/svg11.dtd">
<!-- Generated by graphviz version 2.38.0 (20140413.2041)
 -->
<!-- Title: MooseVariableBase Pages: 1 -->
<svg width="700pt" height="176pt"
 viewBox="0.00 0.00 700.00 175.50" xmlns="http://www.w3.org/2000/svg" xmlns:xlink="http://www.w3.org/1999/xlink">
<g id="graph0" class="graph" transform="scale(1 1) rotate(0) translate(4 171.5)">
<title>MooseVariableBase</title>
<polygon fill="white" stroke="none" points="-4,4 -4,-171.5 696,-171.5 696,4 -4,4"/>
<!-- Node1 -->
<g id="node1" class="node"><title>Node1</title>
<polygon fill="#bfbfbf" stroke="black" points="0,-49.5 0,-68.5 119,-68.5 119,-49.5 0,-49.5"/>
<text text-anchor="middle" x="59.5" y="-56.5" font-family="Courier,monospace" font-size="10.00">MooseVariableBase</text>
</g>
<!-- Node2 -->
<g id="node2" class="node"><title>Node2</title>
<g id="a_node2"><a xlink:href="classMooseVariableFE.html" target="_top" xlink:title="MooseVariableFE">
<polygon fill="white" stroke="black" points="167,-68.5 167,-87.5 274,-87.5 274,-68.5 167,-68.5"/>
<text text-anchor="middle" x="220.5" y="-75.5" font-family="Courier,monospace" font-size="10.00">MooseVariableFE</text>
</a>
</g>
</g>
<!-- Node1&#45;&gt;Node2 -->
<g id="edge1" class="edge"><title>Node1&#45;&gt;Node2</title>
<path fill="none" stroke="midnightblue" d="M129.234,-67.2135C141.807,-68.716 154.747,-70.2622 166.762,-71.698"/>
<polygon fill="midnightblue" stroke="midnightblue" points="129.599,-63.7323 119.254,-66.0209 128.768,-70.6828 129.599,-63.7323"/>
</g>
<!-- Node8 -->
<g id="node8" class="node"><title>Node8</title>
<g id="a_node8"><a xlink:href="classMooseVariableScalar.html" target="_top" xlink:title="Class for scalar variables (they are different). ">
<polygon fill="white" stroke="black" points="155,-30.5 155,-49.5 286,-49.5 286,-30.5 155,-30.5"/>
<text text-anchor="middle" x="220.5" y="-37.5" font-family="Courier,monospace" font-size="10.00">MooseVariableScalar</text>
</a>
</g>
</g>
<!-- Node1&#45;&gt;Node8 -->
<g id="edge7" class="edge"><title>Node1&#45;&gt;Node8</title>
<path fill="none" stroke="midnightblue" d="M129.436,-50.7624C137.87,-49.7545 146.466,-48.7273 154.835,-47.7273"/>
<polygon fill="midnightblue" stroke="midnightblue" points="128.768,-47.3172 119.254,-51.9791 129.599,-54.2677 128.768,-47.3172"/>
</g>
<!-- Node3 -->
<g id="node3" class="node"><title>Node3</title>
<g id="a_node3"><a xlink:href="classMooseVariableFEImpl.html" target="_top" xlink:title="Class for stuff related to variables. ">
<polygon fill="white" stroke="black" points="337,-137 337,-167 468,-167 468,-137 337,-137"/>
<text text-anchor="start" x="345" y="-155" font-family="Courier,monospace" font-size="10.00">MooseVariableFEImpl</text>
<text text-anchor="middle" x="402.5" y="-144" font-family="Courier,monospace" font-size="10.00">&lt; OutputType &gt;</text>
</a>
</g>
</g>
<!-- Node2&#45;&gt;Node3 -->
<g id="edge2" class="edge"><title>Node2&#45;&gt;Node3</title>
<path fill="none" stroke="midnightblue" d="M247.327,-92.3609C267.308,-103.097 295.882,-117.646 322,-128 330.042,-131.188 338.681,-134.2 347.196,-136.943"/>
<polygon fill="midnightblue" stroke="midnightblue" points="248.983,-89.2771 238.525,-87.579 245.641,-95.4281 248.983,-89.2771"/>
</g>
<!-- Node4 -->
<g id="node4" class="node"><title>Node4</title>
<g id="a_node4"><a xlink:href="classMooseVariableFEImpl.html" target="_top" xlink:title="MooseVariableFEImpl\l\&lt; Real \&gt;">
<polygon fill="white" stroke="black" points="337,-88 337,-118 468,-118 468,-88 337,-88"/>
<text text-anchor="start" x="345" y="-106" font-family="Courier,monospace" font-size="10.00">MooseVariableFEImpl</text>
<text text-anchor="middle" x="402.5" y="-95" font-family="Courier,monospace" font-size="10.00">&lt; Real &gt;</text>
</a>
</g>
</g>
<!-- Node2&#45;&gt;Node4 -->
<g id="edge3" class="edge"><title>Node2&#45;&gt;Node4</title>
<path fill="none" stroke="midnightblue" d="M284.391,-86.7349C301.337,-89.0885 319.698,-91.6386 336.743,-94.006"/>
<polygon fill="midnightblue" stroke="midnightblue" points="284.434,-83.2073 274.047,-85.2982 283.471,-90.1407 284.434,-83.2073"/>
</g>
<!-- Node6 -->
<g id="node6" class="node"><title>Node6</title>
<g id="a_node6"><a xlink:href="classMooseVariableFEImpl.html" target="_top" xlink:title="MooseVariableFEImpl\l\&lt; RealVectorValue \&gt;">
<polygon fill="white" stroke="black" points="337,-39 337,-69 468,-69 468,-39 337,-39"/>
<text text-anchor="start" x="345" y="-57" font-family="Courier,monospace" font-size="10.00">MooseVariableFEImpl</text>
<text text-anchor="middle" x="402.5" y="-46" font-family="Courier,monospace" font-size="10.00">&lt; RealVectorValue &gt;</text>
</a>
</g>
</g>
<!-- Node2&#45;&gt;Node6 -->
<g id="edge5" class="edge"><title>Node2&#45;&gt;Node6</title>
<path fill="none" stroke="midnightblue" d="M284.391,-69.6145C301.337,-67.355 319.698,-64.907 336.743,-62.6342"/>
<polygon fill="midnightblue" stroke="midnightblue" points="283.497,-66.2027 274.047,-70.9937 284.422,-73.1413 283.497,-66.2027"/>
</g>
<!-- Node7 -->
<g id="node7" class="node"><title>Node7</title>
<g id="a_node7"><a xlink:href="classMooseVariableFEImpl.html" target="_top" xlink:title="MooseVariableFEImpl\&lt; T \&gt;">
<polygon fill="white" stroke="black" points="322,-0.5 322,-19.5 483,-19.5 483,-0.5 322,-0.5"/>
<text text-anchor="middle" x="402.5" y="-7.5" font-family="Courier,monospace" font-size="10.00">MooseVariableFEImpl&lt; T &gt;</text>
</a>
</g>
</g>
<!-- Node2&#45;&gt;Node7 -->
<g id="edge6" class="edge"><title>Node2&#45;&gt;Node7</title>
<path fill="none" stroke="midnightblue" d="M272.404,-65.0767C277.099,-63.2708 281.702,-61.2504 286,-59 304.202,-49.4706 303.611,-39.1633 322,-30 330.662,-25.6837 340.332,-22.2493 349.862,-19.5328"/>
<polygon fill="midnightblue" stroke="midnightblue" points="270.977,-61.8681 262.705,-68.4872 273.3,-68.4717 270.977,-61.8681"/>
</g>
<!-- Node5 -->
<g id="node5" class="node"><title>Node5</title>
<g id="a_node5"><a xlink:href="classMooseVariableConstMonomial.html" target="_top" xlink:title="MooseVariableConstMonomial">
<polygon fill="white" stroke="black" points="519,-93.5 519,-112.5 692,-112.5 692,-93.5 519,-93.5"/>
<text text-anchor="middle" x="605.5" y="-100.5" font-family="Courier,monospace" font-size="10.00">MooseVariableConstMonomial</text>
</a>
</g>
</g>
<!-- Node4&#45;&gt;Node5 -->
<g id="edge4" class="edge"><title>Node4&#45;&gt;Node5</title>
<path fill="none" stroke="midnightblue" d="M478.54,-103C491.616,-103 505.308,-103 518.648,-103"/>
<polygon fill="midnightblue" stroke="midnightblue" points="478.204,-99.5001 468.204,-103 478.204,-106.5 478.204,-99.5001"/>
</g>
</g>
</svg>
