<?xml version="1.0" encoding="UTF-8" standalone="no"?>
<!DOCTYPE svg PUBLIC "-//W3C//DTD SVG 1.1//EN"
 "http://www.w3.org/Graphics/SVG/1.1/DTD/svg11.dtd">
<!-- Generated by graphviz version 2.38.0 (20140413.2041)
 -->
<!-- Title: MooseVariableBase Pages: 1 -->
<svg width="730pt" height="154pt"
 viewBox="0.00 0.00 730.00 154.00" xmlns="http://www.w3.org/2000/svg" xmlns:xlink="http://www.w3.org/1999/xlink">
<g id="graph0" class="graph" transform="scale(1 1) rotate(0) translate(4 150)">
<title>MooseVariableBase</title>
<polygon fill="white" stroke="none" points="-4,4 -4,-150 726,-150 726,4 -4,4"/>
<!-- Node1 -->
<g id="node1" class="node"><title>Node1</title>
<polygon fill="#bfbfbf" stroke="black" points="0,-47.5 0,-66.5 119,-66.5 119,-47.5 0,-47.5"/>
<text text-anchor="middle" x="59.5" y="-54.5" font-family="Courier,monospace" font-size="10.00">MooseVariableBase</text>
</g>
<!-- Node2 -->
<g id="node2" class="node"><title>Node2</title>
<g id="a_node2"><a xlink:href="classMooseVariableFEBase.html" target="_top" xlink:title="MooseVariableFEBase">
<polygon fill="white" stroke="black" points="155,-66.5 155,-85.5 286,-85.5 286,-66.5 155,-66.5"/>
<text text-anchor="middle" x="220.5" y="-73.5" font-family="Courier,monospace" font-size="10.00">MooseVariableFEBase</text>
</a>
</g>
</g>
<!-- Node1&#45;&gt;Node2 -->
<g id="edge1" class="edge"><title>Node1&#45;&gt;Node2</title>
<path fill="none" stroke="midnightblue" d="M129.436,-65.2376C137.87,-66.2455 146.466,-67.2727 154.835,-68.2727"/>
<polygon fill="midnightblue" stroke="midnightblue" points="129.599,-61.7323 119.254,-64.0209 128.768,-68.6828 129.599,-61.7323"/>
</g>
<!-- Node8 -->
<g id="node8" class="node"><title>Node8</title>
<g id="a_node8"><a xlink:href="classMooseVariableScalar.html" target="_top" xlink:title="Class for scalar variables (they are different). ">
<polygon fill="white" stroke="black" points="155,-28.5 155,-47.5 286,-47.5 286,-28.5 155,-28.5"/>
<text text-anchor="middle" x="220.5" y="-35.5" font-family="Courier,monospace" font-size="10.00">MooseVariableScalar</text>
</a>
</g>
</g>
<!-- Node1&#45;&gt;Node8 -->
<g id="edge7" class="edge"><title>Node1&#45;&gt;Node8</title>
<path fill="none" stroke="midnightblue" d="M129.436,-48.7624C137.87,-47.7545 146.466,-46.7273 154.835,-45.7273"/>
<polygon fill="midnightblue" stroke="midnightblue" points="128.768,-45.3172 119.254,-49.9791 129.599,-52.2677 128.768,-45.3172"/>
</g>
<!-- Node3 -->
<g id="node3" class="node"><title>Node3</title>
<g id="a_node3"><a xlink:href="classMooseVariableFE.html" target="_top" xlink:title="Class for stuff related to variables. ">
<polygon fill="white" stroke="black" points="322,-126.5 322,-145.5 513,-145.5 513,-126.5 322,-126.5"/>
<text text-anchor="middle" x="417.5" y="-133.5" font-family="Courier,monospace" font-size="10.00">MooseVariableFE&lt; OutputType &gt;</text>
</a>
</g>
</g>
<!-- Node2&#45;&gt;Node3 -->
<g id="edge2" class="edge"><title>Node2&#45;&gt;Node3</title>
<path fill="none" stroke="midnightblue" d="M251.236,-89.8656C270.963,-98.6285 297.614,-109.646 322,-117 334.177,-120.672 347.452,-123.838 360.101,-126.475"/>
<polygon fill="midnightblue" stroke="midnightblue" points="252.43,-86.5647 241.875,-85.6458 249.554,-92.9463 252.43,-86.5647"/>
</g>
<!-- Node4 -->
<g id="node4" class="node"><title>Node4</title>
<g id="a_node4"><a xlink:href="classMooseVariableFE.html" target="_top" xlink:title="MooseVariableFE\&lt; Real \&gt;">
<polygon fill="white" stroke="black" points="340,-88.5 340,-107.5 495,-107.5 495,-88.5 340,-88.5"/>
<text text-anchor="middle" x="417.5" y="-95.5" font-family="Courier,monospace" font-size="10.00">MooseVariableFE&lt; Real &gt;</text>
</a>
</g>
</g>
<!-- Node2&#45;&gt;Node4 -->
<g id="edge3" class="edge"><title>Node2&#45;&gt;Node4</title>
<path fill="none" stroke="midnightblue" d="M296.388,-84.4489C310.623,-86.0549 325.539,-87.7377 339.828,-89.3499"/>
<polygon fill="midnightblue" stroke="midnightblue" points="296.491,-80.9384 286.161,-83.2951 295.706,-87.8942 296.491,-80.9384"/>
</g>
<!-- Node6 -->
<g id="node6" class="node"><title>Node6</title>
<g id="a_node6"><a xlink:href="classMooseVariableFE.html" target="_top" xlink:title="MooseVariableFE\&lt; RealVector\lValue \&gt;">
<polygon fill="white" stroke="black" points="328,-39 328,-69 507,-69 507,-39 328,-39"/>
<text text-anchor="start" x="336" y="-57" font-family="Courier,monospace" font-size="10.00">MooseVariableFE&lt; RealVector</text>
<text text-anchor="middle" x="417.5" y="-46" font-family="Courier,monospace" font-size="10.00">Value &gt;</text>
</a>
</g>
</g>
<!-- Node2&#45;&gt;Node6 -->
<g id="edge5" class="edge"><title>Node2&#45;&gt;Node6</title>
<path fill="none" stroke="midnightblue" d="M296.294,-67.5617C306.564,-66.4031 317.189,-65.2043 327.68,-64.0208"/>
<polygon fill="midnightblue" stroke="midnightblue" points="295.706,-64.1058 286.161,-68.7049 296.491,-71.0616 295.706,-64.1058"/>
</g>
<!-- Node7 -->
<g id="node7" class="node"><title>Node7</title>
<g id="a_node7"><a xlink:href="classMooseVariableFE.html" target="_top" xlink:title="MooseVariableFE\&lt; T \&gt;">
<polygon fill="white" stroke="black" points="349,-0.5 349,-19.5 486,-19.5 486,-0.5 349,-0.5"/>
<text text-anchor="middle" x="417.5" y="-7.5" font-family="Courier,monospace" font-size="10.00">MooseVariableFE&lt; T &gt;</text>
</a>
</g>
</g>
<!-- Node2&#45;&gt;Node7 -->
<g id="edge6" class="edge"><title>Node2&#45;&gt;Node7</title>
<path fill="none" stroke="midnightblue" d="M271.743,-63.1365C276.655,-61.3067 281.486,-59.2648 286,-57 303.877,-48.0318 303.788,-38.2652 322,-30 331.621,-25.6339 342.229,-22.2056 352.757,-19.5178"/>
<polygon fill="midnightblue" stroke="midnightblue" points="270.58,-59.8353 262.261,-66.3965 272.856,-66.4549 270.58,-59.8353"/>
</g>
<!-- Node5 -->
<g id="node5" class="node"><title>Node5</title>
<g id="a_node5"><a xlink:href="classMooseVariableConstMonomial.html" target="_top" xlink:title="MooseVariableConstMonomial">
<polygon fill="white" stroke="black" points="549,-88.5 549,-107.5 722,-107.5 722,-88.5 549,-88.5"/>
<text text-anchor="middle" x="635.5" y="-95.5" font-family="Courier,monospace" font-size="10.00">MooseVariableConstMonomial</text>
</a>
</g>
</g>
<!-- Node4&#45;&gt;Node5 -->
<g id="edge4" class="edge"><title>Node4&#45;&gt;Node5</title>
<path fill="none" stroke="midnightblue" d="M505.541,-98C519.803,-98 534.571,-98 548.799,-98"/>
<polygon fill="midnightblue" stroke="midnightblue" points="505.262,-94.5001 495.262,-98 505.262,-101.5 505.262,-94.5001"/>
</g>
</g>
</svg>
