solid unit_sphere
  facet normal -5.8312878320159667e-01 7.4878345036932981e-01 3.1509390132915421e-01
    outer loop
      vertex -5.2573111211913359e-01 8.5065080835203999e-01 0.0000000000000000e+00
      vertex -8.0901699437494745e-01 5.0000000000000011e-01 3.0901699437494745e-01
      vertex -3.0901699437494740e-01 8.0901699437494734e-01 5.0000000000000000e-01
    endloop
  endfacet
  facet normal -7.4878345036932970e-01 3.1509390132915399e-01 5.8312878320159678e-01
    outer loop
      vertex -8.5065080835203999e-01 0.0000000000000000e+00 5.2573111211913359e-01
      vertex -5.0000000000000011e-01 3.0901699437494745e-01 8.0901699437494745e-01
      vertex -8.0901699437494745e-01 5.0000000000000011e-01 3.0901699437494745e-01
    endloop
  endfacet
  facet normal -3.1509390132915416e-01 5.8312878320159711e-01 7.4878345036932958e-01
    outer loop
      vertex 0.0000000000000000e+00 5.2573111211913359e-01 8.5065080835203999e-01
      vertex -3.0901699437494740e-01 8.0901699437494734e-01 5.0000000000000000e-01
      vertex -5.0000000000000011e-01 3.0901699437494745e-01 8.0901699437494745e-01
    endloop
  endfacet
  facet normal -5.7735026918962562e-01 5.7735026918962595e-01 5.7735026918962573e-01
    outer loop
      vertex -8.0901699437494745e-01 5.0000000000000011e-01 3.0901699437494745e-01
      vertex -5.0000000000000011e-01 3.0901699437494745e-01 8.0901699437494745e-01
      vertex -3.0901699437494740e-01 8.0901699437494734e-01 5.0000000000000000e-01
    endloop
  endfacet
  facet normal -2.6803488187244273e-01 9.4352219103855262e-01 1.9473874066922314e-01
    outer loop
      vertex -5.2573111211913359e-01 8.5065080835203999e-01 0.0000000000000000e+00
      vertex -3.0901699437494740e-01 8.0901699437494734e-01 5.0000000000000000e-01
      vertex 0.0000000000000000e+00 1.0000000000000000e+00 0.0000000000000000e+00
    endloop
  endfacet
  facet normal 0.0000000000000000e+00 7.7786752387081992e-01 6.2842828970939824e-01
    outer loop
      vertex 0.0000000000000000e+00 5.2573111211913359e-01 8.5065080835203999e-01
      vertex 3.0901699437494740e-01 8.0901699437494734e-01 5.0000000000000000e-01
      vertex -3.0901699437494740e-01 8.0901699437494734e-01 5.0000000000000000e-01
    endloop
  endfacet
  facet normal 2.6803488187244273e-01 9.4352219103855262e-01 1.9473874066922314e-01
    outer loop
      vertex 5.2573111211913359e-01 8.5065080835203999e-01 0.0000000000000000e+00
      vertex 0.0000000000000000e+00 1.0000000000000000e+00 0.0000000000000000e+00
      vertex 3.0901699437494740e-01 8.0901699437494734e-01 5.0000000000000000e-01
    endloop
  endfacet
  facet normal -0.0000000000000000e+00 9.3417235896271555e-01 3.5682208977309005e-01
    outer loop
      vertex -3.0901699437494740e-01 8.0901699437494734e-01 5.0000000000000000e-01
      vertex 3.0901699437494740e-01 8.0901699437494734e-01 5.0000000000000000e-01
      vertex 0.0000000000000000e+00 1.0000000000000000e+00 0.0000000000000000e+00
    endloop
  endfacet
  facet normal -2.6803488187244273e-01 9.4352219103855262e-01 -1.9473874066922314e-01
    outer loop
      vertex -5.2573111211913359e-01 8.5065080835203999e-01 0.0000000000000000e+00
      vertex 0.0000000000000000e+00 1.0000000000000000e+00 0.0000000000000000e+00
      vertex -3.0901699437494740e-01 8.0901699437494734e-01 -5.0000000000000000e-01
    endloop
  endfacet
  facet normal 2.6803488187244273e-01 9.4352219103855262e-01 -1.9473874066922314e-01
    outer loop
      vertex 5.2573111211913359e-01 8.5065080835203999e-01 0.0000000000000000e+00
      vertex 3.0901699437494740e-01 8.0901699437494734e-01 -5.0000000000000000e-01
      vertex 0.0000000000000000e+00 1.0000000000000000e+00 0.0000000000000000e+00
    endloop
  endfacet
  facet normal 0.0000000000000000e+00 7.7786752387081992e-01 -6.2842828970939824e-01
    outer loop
      vertex 0.0000000000000000e+00 5.2573111211913359e-01 -8.5065080835203999e-01
      vertex -3.0901699437494740e-01 8.0901699437494734e-01 -5.0000000000000000e-01
      vertex 3.0901699437494740e-01 8.0901699437494734e-01 -5.0000000000000000e-01
    endloop
  endfacet
  facet normal 0.0000000000000000e+00 9.3417235896271555e-01 -3.5682208977309005e-01
    outer loop
      vertex 0.0000000000000000e+00 1.0000000000000000e+00 0.0000000000000000e+00
      vertex 3.0901699437494740e-01 8.0901699437494734e-01 -5.0000000000000000e-01
      vertex -3.0901699437494740e-01 8.0901699437494734e-01 -5.0000000000000000e-01
    endloop
  endfacet
  facet normal -5.8312878320159667e-01 7.4878345036932981e-01 -3.1509390132915421e-01
    outer loop
      vertex -5.2573111211913359e-01 8.5065080835203999e-01 0.0000000000000000e+00
      vertex -3.0901699437494740e-01 8.0901699437494734e-01 -5.0000000000000000e-01
      vertex -8.0901699437494745e-01 5.0000000000000011e-01 -3.0901699437494745e-01
    endloop
  endfacet
  facet normal -3.1509390132915416e-01 5.8312878320159711e-01 -7.4878345036932958e-01
    outer loop
      vertex 0.0000000000000000e+00 5.2573111211913359e-01 -8.5065080835203999e-01
      vertex -5.0000000000000011e-01 3.0901699437494745e-01 -8.0901699437494745e-01
      vertex -3.0901699437494740e-01 8.0901699437494734e-01 -5.0000000000000000e-01
    endloop
  endfacet
  facet normal -7.4878345036932970e-01 3.1509390132915399e-01 -5.8312878320159678e-01
    outer loop
      vertex -8.5065080835203999e-01 0.0000000000000000e+00 -5.2573111211913359e-01
      vertex -8.0901699437494745e-01 5.0000000000000011e-01 -3.0901699437494745e-01
      vertex -5.0000000000000011e-01 3.0901699437494745e-01 -8.0901699437494745e-01
    endloop
  endfacet
  facet normal -5.7735026918962562e-01 5.7735026918962595e-01 -5.7735026918962573e-01
    outer loop
      vertex -3.0901699437494740e-01 8.0901699437494734e-01 -5.0000000000000000e-01
      vertex -5.0000000000000011e-01 3.0901699437494745e-01 -8.0901699437494745e-01
      vertex -8.0901699437494745e-01 5.0000000000000011e-01 -3.0901699437494745e-01
    endloop
  endfacet
  facet normal -7.7786752387081970e-01 6.2842828970939857e-01 0.0000000000000000e+00
    outer loop
      vertex -5.2573111211913359e-01 8.5065080835203999e-01 0.0000000000000000e+00
      vertex -8.0901699437494745e-01 5.0000000000000011e-01 -3.0901699437494745e-01
      vertex -8.0901699437494745e-01 5.0000000000000011e-01 3.0901699437494745e-01
    endloop
  endfacet
  facet normal -9.4352219103855262e-01 1.9473874066922287e-01 -2.6803488187244273e-01
    outer loop
      vertex -8.5065080835203999e-01 0.0000000000000000e+00 -5.2573111211913359e-01
      vertex -1.0000000000000000e+00 0.0000000000000000e+00 0.0000000000000000e+00
      vertex -8.0901699437494745e-01 5.0000000000000011e-01 -3.0901699437494745e-01
    endloop
  endfacet
  facet normal -9.4352219103855262e-01 1.9473874066922287e-01 2.6803488187244273e-01
    outer loop
      vertex -8.5065080835203999e-01 0.0000000000000000e+00 5.2573111211913359e-01
      vertex -8.0901699437494745e-01 5.0000000000000011e-01 3.0901699437494745e-01
      vertex -1.0000000000000000e+00 0.0000000000000000e+00 0.0000000000000000e+00
    endloop
  endfacet
  facet normal -9.3417235896271567e-01 3.5682208977308982e-01 0.0000000000000000e+00
    outer loop
      vertex -8.0901699437494745e-01 5.0000000000000011e-01 -3.0901699437494745e-01
      vertex -1.0000000000000000e+00 0.0000000000000000e+00 0.0000000000000000e+00
      vertex -8.0901699437494745e-01 5.0000000000000011e-01 3.0901699437494745e-01
    endloop
  endfacet
  facet normal 5.8312878320159667e-01 7.4878345036932981e-01 3.1509390132915421e-01
    outer loop
      vertex 5.2573111211913359e-01 8.5065080835203999e-01 0.0000000000000000e+00
      vertex 3.0901699437494740e-01 8.0901699437494734e-01 5.0000000000000000e-01
      vertex 8.0901699437494745e-01 5.0000000000000011e-01 3.0901699437494745e-01
    endloop
  endfacet
  facet normal 3.1509390132915416e-01 5.8312878320159711e-01 7.4878345036932958e-01
    outer loop
      vertex 0.0000000000000000e+00 5.2573111211913359e-01 8.5065080835203999e-01
      vertex 5.0000000000000011e-01 3.0901699437494745e-01 8.0901699437494745e-01
      vertex 3.0901699437494740e-01 8.0901699437494734e-01 5.0000000000000000e-01
    endloop
  endfacet
  facet normal 7.4878345036932970e-01 3.1509390132915399e-01 5.8312878320159678e-01
    outer loop
      vertex 8.5065080835203999e-01 0.0000000000000000e+00 5.2573111211913359e-01
      vertex 8.0901699437494745e-01 5.0000000000000011e-01 3.0901699437494745e-01
      vertex 5.0000000000000011e-01 3.0901699437494745e-01 8.0901699437494745e-01
    endloop
  endfacet
  facet normal 5.7735026918962562e-01 5.7735026918962595e-01 5.7735026918962573e-01
    outer loop
      vertex 3.0901699437494740e-01 8.0901699437494734e-01 5.0000000000000000e-01
      vertex 5.0000000000000011e-01 3.0901699437494745e-01 8.0901699437494745e-01
      vertex 8.0901699437494745e-01 5.0000000000000011e-01 3.0901699437494745e-01
    endloop
  endfacet
  facet normal -1.9473874066922287e-01 2.6803488187244273e-01 9.4352219103855262e-01
    outer loop
      vertex 0.0000000000000000e+00 5.2573111211913359e-01 8.5065080835203999e-01
      vertex -5.0000000000000011e-01 3.0901699437494745e-01 8.0901699437494745e-01
      vertex 0.0000000000000000e+00 0.0000000000000000e+00 1.0000000000000000e+00
    endloop
  endfacet
  facet normal -6.2842828970939857e-01 0.0000000000000000e+00 7.7786752387081970e-01
    outer loop
      vertex -8.5065080835203999e-01 0.0000000000000000e+00 5.2573111211913359e-01
      vertex -5.0000000000000011e-01 -3.0901699437494745e-01 8.0901699437494745e-01
      vertex -5.0000000000000011e-01 3.0901699437494745e-01 8.0901699437494745e-01
    endloop
  endfacet
  facet normal -1.9473874066922287e-01 -2.6803488187244273e-01 9.4352219103855262e-01
    outer loop
      vertex 0.0000000000000000e+00 -5.2573111211913359e-01 8.5065080835203999e-01
      vertex 0.0000000000000000e+00 0.0000000000000000e+00 1.0000000000000000e+00
      vertex -5.0000000000000011e-01 -3.0901699437494745e-01 8.0901699437494745e-01
    endloop
  endfacet
  facet normal -3.5682208977308982e-01 0.0000000000000000e+00 9.3417235896271567e-01
    outer loop
      vertex -5.0000000000000011e-01 3.0901699437494745e-01 8.0901699437494745e-01
      vertex -5.0000000000000011e-01 -3.0901699437494745e-01 8.0901699437494745e-01
      vertex 0.0000000000000000e+00 0.0000000000000000e+00 1.0000000000000000e+00
    endloop
  endfacet
  facet normal -9.4352219103855262e-01 -1.9473874066922287e-01 2.6803488187244273e-01
    outer loop
      vertex -8.5065080835203999e-01 0.0000000000000000e+00 5.2573111211913359e-01
      vertex -1.0000000000000000e+00 0.0000000000000000e+00 0.0000000000000000e+00
      vertex -8.0901699437494745e-01 -5.0000000000000011e-01 3.0901699437494745e-01
    endloop
  endfacet
  facet normal -9.4352219103855262e-01 -1.9473874066922287e-01 -2.6803488187244273e-01
    outer loop
      vertex -8.5065080835203999e-01 0.0000000000000000e+00 -5.2573111211913359e-01
      vertex -8.0901699437494745e-01 -5.0000000000000011e-01 -3.0901699437494745e-01
      vertex -1.0000000000000000e+00 0.0000000000000000e+00 0.0000000000000000e+00
    endloop
  endfacet
  facet normal -7.7786752387081970e-01 -6.2842828970939857e-01 0.0000000000000000e+00
    outer loop
      vertex -5.2573111211913359e-01 -8.5065080835203999e-01 0.0000000000000000e+00
      vertex -8.0901699437494745e-01 -5.0000000000000011e-01 3.0901699437494745e-01
      vertex -8.0901699437494745e-01 -5.0000000000000011e-01 -3.0901699437494745e-01
    endloop
  endfacet
  facet normal -9.3417235896271567e-01 -3.5682208977308982e-01 0.0000000000000000e+00
    outer loop
      vertex -1.0000000000000000e+00 0.0000000000000000e+00 0.0000000000000000e+00
      vertex -8.0901699437494745e-01 -5.0000000000000011e-01 -3.0901699437494745e-01
      vertex -8.0901699437494745e-01 -5.0000000000000011e-01 3.0901699437494745e-01
    endloop
  endfacet
  facet normal -6.2842828970939857e-01 0.0000000000000000e+00 -7.7786752387081970e-01
    outer loop
      vertex -8.5065080835203999e-01 0.0000000000000000e+00 -5.2573111211913359e-01
      vertex -5.0000000000000011e-01 3.0901699437494745e-01 -8.0901699437494745e-01
      vertex -5.0000000000000011e-01 -3.0901699437494745e-01 -8.0901699437494745e-01
    endloop
  endfacet
  facet normal -1.9473874066922287e-01 2.6803488187244273e-01 -9.4352219103855262e-01
    outer loop
      vertex 0.0000000000000000e+00 5.2573111211913359e-01 -8.5065080835203999e-01
      vertex 0.0000000000000000e+00 0.0000000000000000e+00 -1.0000000000000000e+00
      vertex -5.0000000000000011e-01 3.0901699437494745e-01 -8.0901699437494745e-01
    endloop
  endfacet
  facet normal -1.9473874066922287e-01 -2.6803488187244273e-01 -9.4352219103855262e-01
    outer loop
      vertex 0.0000000000000000e+00 -5.2573111211913359e-01 -8.5065080835203999e-01
      vertex -5.0000000000000011e-01 -3.0901699437494745e-01 -8.0901699437494745e-01
      vertex 0.0000000000000000e+00 0.0000000000000000e+00 -1.0000000000000000e+00
    endloop
  endfacet
  facet normal -3.5682208977308982e-01 -0.0000000000000000e+00 -9.3417235896271567e-01
    outer loop
      vertex -5.0000000000000011e-01 3.0901699437494745e-01 -8.0901699437494745e-01
      vertex 0.0000000000000000e+00 0.0000000000000000e+00 -1.0000000000000000e+00
      vertex -5.0000000000000011e-01 -3.0901699437494745e-01 -8.0901699437494745e-01
    endloop
  endfacet
  facet normal 3.1509390132915416e-01 5.8312878320159711e-01 -7.4878345036932958e-01
    outer loop
      vertex 0.0000000000000000e+00 5.2573111211913359e-01 -8.5065080835203999e-01
      vertex 3.0901699437494740e-01 8.0901699437494734e-01 -5.0000000000000000e-01
      vertex 5.0000000000000011e-01 3.0901699437494745e-01 -8.0901699437494745e-01
    endloop
  endfacet
  facet normal 5.8312878320159667e-01 7.4878345036932981e-01 -3.1509390132915421e-01
    outer loop
      vertex 5.2573111211913359e-01 8.5065080835203999e-01 0.0000000000000000e+00
      vertex 8.0901699437494745e-01 5.0000000000000011e-01 -3.0901699437494745e-01
      vertex 3.0901699437494740e-01 8.0901699437494734e-01 -5.0000000000000000e-01
    endloop
  endfacet
  facet normal 7.4878345036932970e-01 3.1509390132915399e-01 -5.8312878320159678e-01
    outer loop
      vertex 8.5065080835203999e-01 0.0000000000000000e+00 -5.2573111211913359e-01
      vertex 5.0000000000000011e-01 3.0901699437494745e-01 -8.0901699437494745e-01
      vertex 8.0901699437494745e-01 5.0000000000000011e-01 -3.0901699437494745e-01
    endloop
  endfacet
  facet normal 5.7735026918962562e-01 5.7735026918962595e-01 -5.7735026918962573e-01
    outer loop
      vertex 3.0901699437494740e-01 8.0901699437494734e-01 -5.0000000000000000e-01
      vertex 8.0901699437494745e-01 5.0000000000000011e-01 -3.0901699437494745e-01
      vertex 5.0000000000000011e-01 3.0901699437494745e-01 -8.0901699437494745e-01
    endloop
  endfacet
  facet normal 5.8312878320159667e-01 -7.4878345036932981e-01 3.1509390132915421e-01
    outer loop
      vertex 5.2573111211913359e-01 -8.5065080835203999e-01 0.0000000000000000e+00
      vertex 8.0901699437494745e-01 -5.0000000000000011e-01 3.0901699437494745e-01
      vertex 3.0901699437494740e-01 -8.0901699437494734e-01 5.0000000000000000e-01
    endloop
  endfacet
  facet normal 7.4878345036932970e-01 -3.1509390132915399e-01 5.8312878320159678e-01
    outer loop
      vertex 8.5065080835203999e-01 0.0000000000000000e+00 5.2573111211913359e-01
      vertex 5.0000000000000011e-01 -3.0901699437494745e-01 8.0901699437494745e-01
      vertex 8.0901699437494745e-01 -5.0000000000000011e-01 3.0901699437494745e-01
    endloop
  endfacet
  facet normal 3.1509390132915416e-01 -5.8312878320159711e-01 7.4878345036932958e-01
    outer loop
      vertex 0.0000000000000000e+00 -5.2573111211913359e-01 8.5065080835203999e-01
      vertex 3.0901699437494740e-01 -8.0901699437494734e-01 5.0000000000000000e-01
      vertex 5.0000000000000011e-01 -3.0901699437494745e-01 8.0901699437494745e-01
    endloop
  endfacet
  facet normal 5.7735026918962562e-01 -5.7735026918962595e-01 5.7735026918962573e-01
    outer loop
      vertex 8.0901699437494745e-01 -5.0000000000000011e-01 3.0901699437494745e-01
      vertex 5.0000000000000011e-01 -3.0901699437494745e-01 8.0901699437494745e-01
      vertex 3.0901699437494740e-01 -8.0901699437494734e-01 5.0000000000000000e-01
    endloop
  endfacet
  facet normal 2.6803488187244273e-01 -9.4352219103855262e-01 1.9473874066922314e-01
    outer loop
      vertex 5.2573111211913359e-01 -8.5065080835203999e-01 0.0000000000000000e+00
      vertex 3.0901699437494740e-01 -8.0901699437494734e-01 5.0000000000000000e-01
      vertex 0.0000000000000000e+00 -1.0000000000000000e+00 0.0000000000000000e+00
    endloop
  endfacet
  facet normal 0.0000000000000000e+00 -7.7786752387081992e-01 6.2842828970939824e-01
    outer loop
      vertex 0.0000000000000000e+00 -5.2573111211913359e-01 8.5065080835203999e-01
      vertex -3.0901699437494740e-01 -8.0901699437494734e-01 5.0000000000000000e-01
      vertex 3.0901699437494740e-01 -8.0901699437494734e-01 5.0000000000000000e-01
    endloop
  endfacet
  facet normal -2.6803488187244273e-01 -9.4352219103855262e-01 1.9473874066922314e-01
    outer loop
      vertex -5.2573111211913359e-01 -8.5065080835203999e-01 0.0000000000000000e+00
      vertex 0.0000000000000000e+00 -1.0000000000000000e+00 0.0000000000000000e+00
      vertex -3.0901699437494740e-01 -8.0901699437494734e-01 5.0000000000000000e-01
    endloop
  endfacet
  facet normal 0.0000000000000000e+00 -9.3417235896271555e-01 3.5682208977309005e-01
    outer loop
      vertex 3.0901699437494740e-01 -8.0901699437494734e-01 5.0000000000000000e-01
      vertex -3.0901699437494740e-01 -8.0901699437494734e-01 5.0000000000000000e-01
      vertex 0.0000000000000000e+00 -1.0000000000000000e+00 0.0000000000000000e+00
    endloop
  endfacet
  facet normal 2.6803488187244273e-01 -9.4352219103855262e-01 -1.9473874066922314e-01
    outer loop
      vertex 5.2573111211913359e-01 -8.5065080835203999e-01 0.0000000000000000e+00
      vertex 0.0000000000000000e+00 -1.0000000000000000e+00 0.0000000000000000e+00
      vertex 3.0901699437494740e-01 -8.0901699437494734e-01 -5.0000000000000000e-01
    endloop
  endfacet
  facet normal -2.6803488187244273e-01 -9.4352219103855262e-01 -1.9473874066922314e-01
    outer loop
      vertex -5.2573111211913359e-01 -8.5065080835203999e-01 0.0000000000000000e+00
      vertex -3.0901699437494740e-01 -8.0901699437494734e-01 -5.0000000000000000e-01
      vertex 0.0000000000000000e+00 -1.0000000000000000e+00 0.0000000000000000e+00
    endloop
  endfacet
  facet normal 0.0000000000000000e+00 -7.7786752387081992e-01 -6.2842828970939824e-01
    outer loop
      vertex 0.0000000000000000e+00 -5.2573111211913359e-01 -8.5065080835203999e-01
      vertex 3.0901699437494740e-01 -8.0901699437494734e-01 -5.0000000000000000e-01
      vertex -3.0901699437494740e-01 -8.0901699437494734e-01 -5.0000000000000000e-01
    endloop
  endfacet
  facet normal 0.0000000000000000e+00 -9.3417235896271555e-01 -3.5682208977309005e-01
    outer loop
      vertex 0.0000000000000000e+00 -1.0000000000000000e+00 0.0000000000000000e+00
      vertex -3.0901699437494740e-01 -8.0901699437494734e-01 -5.0000000000000000e-01
      vertex 3.0901699437494740e-01 -8.0901699437494734e-01 -5.0000000000000000e-01
    endloop
  endfacet
  facet normal 5.8312878320159667e-01 -7.4878345036932981e-01 -3.1509390132915421e-01
    outer loop
      vertex 5.2573111211913359e-01 -8.5065080835203999e-01 0.0000000000000000e+00
      vertex 3.0901699437494740e-01 -8.0901699437494734e-01 -5.0000000000000000e-01
      vertex 8.0901699437494745e-01 -5.0000000000000011e-01 -3.0901699437494745e-01
    endloop
  endfacet
  facet normal 3.1509390132915416e-01 -5.8312878320159711e-01 -7.4878345036932958e-01
    outer loop
      vertex 0.0000000000000000e+00 -5.2573111211913359e-01 -8.5065080835203999e-01
      vertex 5.0000000000000011e-01 -3.0901699437494745e-01 -8.0901699437494745e-01
      vertex 3.0901699437494740e-01 -8.0901699437494734e-01 -5.0000000000000000e-01
    endloop
  endfacet
  facet normal 7.4878345036932970e-01 -3.1509390132915399e-01 -5.8312878320159678e-01
    outer loop
      vertex 8.5065080835203999e-01 0.0000000000000000e+00 -5.2573111211913359e-01
      vertex 8.0901699437494745e-01 -5.0000000000000011e-01 -3.0901699437494745e-01
      vertex 5.0000000000000011e-01 -3.0901699437494745e-01 -8.0901699437494745e-01
    endloop
  endfacet
  facet normal 5.7735026918962562e-01 -5.7735026918962595e-01 -5.7735026918962573e-01
    outer loop
      vertex 3.0901699437494740e-01 -8.0901699437494734e-01 -5.0000000000000000e-01
      vertex 5.0000000000000011e-01 -3.0901699437494745e-01 -8.0901699437494745e-01
      vertex 8.0901699437494745e-01 -5.0000000000000011e-01 -3.0901699437494745e-01
    endloop
  endfacet
  facet normal 7.7786752387081970e-01 -6.2842828970939857e-01 0.0000000000000000e+00
    outer loop
      vertex 5.2573111211913359e-01 -8.5065080835203999e-01 0.0000000000000000e+00
      vertex 8.0901699437494745e-01 -5.0000000000000011e-01 -3.0901699437494745e-01
      vertex 8.0901699437494745e-01 -5.0000000000000011e-01 3.0901699437494745e-01
    endloop
  endfacet
  facet normal 9.4352219103855262e-01 -1.9473874066922287e-01 -2.6803488187244273e-01
    outer loop
      vertex 8.5065080835203999e-01 0.0000000000000000e+00 -5.2573111211913359e-01
      vertex 1.0000000000000000e+00 0.0000000000000000e+00 0.0000000000000000e+00
      vertex 8.0901699437494745e-01 -5.0000000000000011e-01 -3.0901699437494745e-01
    endloop
  endfacet
  facet normal 9.4352219103855262e-01 -1.9473874066922287e-01 2.6803488187244273e-01
    outer loop
      vertex 8.5065080835203999e-01 0.0000000000000000e+00 5.2573111211913359e-01
      vertex 8.0901699437494745e-01 -5.0000000000000011e-01 3.0901699437494745e-01
      vertex 1.0000000000000000e+00 0.0000000000000000e+00 0.0000000000000000e+00
    endloop
  endfacet
  facet normal 9.3417235896271567e-01 -3.5682208977308982e-01 0.0000000000000000e+00
    outer loop
      vertex 8.0901699437494745e-01 -5.0000000000000011e-01 -3.0901699437494745e-01
      vertex 1.0000000000000000e+00 0.0000000000000000e+00 0.0000000000000000e+00
      vertex 8.0901699437494745e-01 -5.0000000000000011e-01 3.0901699437494745e-01
    endloop
  endfacet
  facet normal 1.9473874066922287e-01 -2.6803488187244273e-01 9.4352219103855262e-01
    outer loop
      vertex 0.0000000000000000e+00 -5.2573111211913359e-01 8.5065080835203999e-01
      vertex 5.0000000000000011e-01 -3.0901699437494745e-01 8.0901699437494745e-01
      vertex 0.0000000000000000e+00 0.0000000000000000e+00 1.0000000000000000e+00
    endloop
  endfacet
  facet normal 6.2842828970939857e-01 0.0000000000000000e+00 7.7786752387081970e-01
    outer loop
      vertex 8.5065080835203999e-01 0.0000000000000000e+00 5.2573111211913359e-01
      vertex 5.0000000000000011e-01 3.0901699437494745e-01 8.0901699437494745e-01
      vertex 5.0000000000000011e-01 -3.0901699437494745e-01 8.0901699437494745e-01
    endloop
  endfacet
  facet normal 1.9473874066922287e-01 2.6803488187244273e-01 9.4352219103855262e-01
    outer loop
      vertex 0.0000000000000000e+00 5.2573111211913359e-01 8.5065080835203999e-01
      vertex 0.0000000000000000e+00 0.0000000000000000e+00 1.0000000000000000e+00
      vertex 5.0000000000000011e-01 3.0901699437494745e-01 8.0901699437494745e-01
    endloop
  endfacet
  facet normal 3.5682208977308982e-01 -0.0000000000000000e+00 9.3417235896271567e-01
    outer loop
      vertex 5.0000000000000011e-01 -3.0901699437494745e-01 8.0901699437494745e-01
      vertex 5.0000000000000011e-01 3.0901699437494745e-01 8.0901699437494745e-01
      vertex 0.0000000000000000e+00 0.0000000000000000e+00 1.0000000000000000e+00
    endloop
  endfacet
  facet normal -5.8312878320159667e-01 -7.4878345036932981e-01 3.1509390132915421e-01
    outer loop
      vertex -5.2573111211913359e-01 -8.5065080835203999e-01 0.0000000000000000e+00
      vertex -3.0901699437494740e-01 -8.0901699437494734e-01 5.0000000000000000e-01
      vertex -8.0901699437494745e-01 -5.0000000000000011e-01 3.0901699437494745e-01
    endloop
  endfacet
  facet normal -3.1509390132915416e-01 -5.8312878320159711e-01 7.4878345036932958e-01
    outer loop
      vertex 0.0000000000000000e+00 -5.2573111211913359e-01 8.5065080835203999e-01
      vertex -5.0000000000000011e-01 -3.0901699437494745e-01 8.0901699437494745e-01
      vertex -3.0901699437494740e-01 -8.0901699437494734e-01 5.0000000000000000e-01
    endloop
  endfacet
  facet normal -7.4878345036932970e-01 -3.1509390132915399e-01 5.8312878320159678e-01
    outer loop
      vertex -8.5065080835203999e-01 0.0000000000000000e+00 5.2573111211913359e-01
      vertex -8.0901699437494745e-01 -5.0000000000000011e-01 3.0901699437494745e-01
      vertex -5.0000000000000011e-01 -3.0901699437494745e-01 8.0901699437494745e-01
    endloop
  endfacet
  facet normal -5.7735026918962562e-01 -5.7735026918962595e-01 5.7735026918962573e-01
    outer loop
      vertex -3.0901699437494740e-01 -8.0901699437494734e-01 5.0000000000000000e-01
      vertex -5.0000000000000011e-01 -3.0901699437494745e-01 8.0901699437494745e-01
      vertex -8.0901699437494745e-01 -5.0000000000000011e-01 3.0901699437494745e-01
    endloop
  endfacet
  facet normal -3.1509390132915416e-01 -5.8312878320159711e-01 -7.4878345036932958e-01
    outer loop
      vertex 0.0000000000000000e+00 -5.2573111211913359e-01 -8.5065080835203999e-01
      vertex -3.0901699437494740e-01 -8.0901699437494734e-01 -5.0000000000000000e-01
      vertex -5.0000000000000011e-01 -3.0901699437494745e-01 -8.0901699437494745e-01
    endloop
  endfacet
  facet normal -5.8312878320159667e-01 -7.4878345036932981e-01 -3.1509390132915421e-01
    outer loop
      vertex -5.2573111211913359e-01 -8.5065080835203999e-01 0.0000000000000000e+00
      vertex -8.0901699437494745e-01 -5.0000000000000011e-01 -3.0901699437494745e-01
      vertex -3.0901699437494740e-01 -8.0901699437494734e-01 -5.0000000000000000e-01
    endloop
  endfacet
  facet normal -7.4878345036932970e-01 -3.1509390132915399e-01 -5.8312878320159678e-01
    outer loop
      vertex -8.5065080835203999e-01 0.0000000000000000e+00 -5.2573111211913359e-01
      vertex -5.0000000000000011e-01 -3.0901699437494745e-01 -8.0901699437494745e-01
      vertex -8.0901699437494745e-01 -5.0000000000000011e-01 -3.0901699437494745e-01
    endloop
  endfacet
  facet normal -5.7735026918962562e-01 -5.7735026918962595e-01 -5.7735026918962573e-01
    outer loop
      vertex -3.0901699437494740e-01 -8.0901699437494734e-01 -5.0000000000000000e-01
      vertex -8.0901699437494745e-01 -5.0000000000000011e-01 -3.0901699437494745e-01
      vertex -5.0000000000000011e-01 -3.0901699437494745e-01 -8.0901699437494745e-01
    endloop
  endfacet
  facet normal 6.2842828970939857e-01 0.0000000000000000e+00 -7.7786752387081970e-01
    outer loop
      vertex 8.5065080835203999e-01 0.0000000000000000e+00 -5.2573111211913359e-01
      vertex 5.0000000000000011e-01 -3.0901699437494745e-01 -8.0901699437494745e-01
      vertex 5.0000000000000011e-01 3.0901699437494745e-01 -8.0901699437494745e-01
    endloop
  endfacet
  facet normal 1.9473874066922287e-01 -2.6803488187244273e-01 -9.4352219103855262e-01
    outer loop
      vertex 0.0000000000000000e+00 -5.2573111211913359e-01 -8.5065080835203999e-01
      vertex 0.0000000000000000e+00 0.0000000000000000e+00 -1.0000000000000000e+00
      vertex 5.0000000000000011e-01 -3.0901699437494745e-01 -8.0901699437494745e-01
    endloop
  endfacet
  facet normal 1.9473874066922287e-01 2.6803488187244273e-01 -9.4352219103855262e-01
    outer loop
      vertex 0.0000000000000000e+00 5.2573111211913359e-01 -8.5065080835203999e-01
      vertex 5.0000000000000011e-01 3.0901699437494745e-01 -8.0901699437494745e-01
      vertex 0.0000000000000000e+00 0.0000000000000000e+00 -1.0000000000000000e+00
    endloop
  endfacet
  facet normal 3.5682208977308982e-01 0.0000000000000000e+00 -9.3417235896271567e-01
    outer loop
      vertex 5.0000000000000011e-01 -3.0901699437494745e-01 -8.0901699437494745e-01
      vertex 0.0000000000000000e+00 0.0000000000000000e+00 -1.0000000000000000e+00
      vertex 5.0000000000000011e-01 3.0901699437494745e-01 -8.0901699437494745e-01
    endloop
  endfacet
  facet normal 9.4352219103855262e-01 1.9473874066922287e-01 2.6803488187244273e-01
    outer loop
      vertex 8.5065080835203999e-01 0.0000000000000000e+00 5.2573111211913359e-01
      vertex 1.0000000000000000e+00 0.0000000000000000e+00 0.0000000000000000e+00
      vertex 8.0901699437494745e-01 5.0000000000000011e-01 3.0901699437494745e-01
    endloop
  endfacet
  facet normal 9.4352219103855262e-01 1.9473874066922287e-01 -2.6803488187244273e-01
    outer loop
      vertex 8.5065080835203999e-01 0.0000000000000000e+00 -5.2573111211913359e-01
      vertex 8.0901699437494745e-01 5.0000000000000011e-01 -3.0901699437494745e-01
      vertex 1.0000000000000000e+00 0.0000000000000000e+00 0.0000000000000000e+00
    endloop
  endfacet
  facet normal 7.7786752387081970e-01 6.2842828970939857e-01 0.0000000000000000e+00
    outer loop
      vertex 5.2573111211913359e-01 8.5065080835203999e-01 0.0000000000000000e+00
      vertex 8.0901699437494745e-01 5.0000000000000011e-01 3.0901699437494745e-01
      vertex 8.0901699437494745e-01 5.0000000000000011e-01 -3.0901699437494745e-01
    endloop
  endfacet
  facet normal 9.3417235896271567e-01 3.5682208977308982e-01 0.0000000000000000e+00
    outer loop
      vertex 1.0000000000000000e+00 0.0000000000000000e+00 0.0000000000000000e+00
      vertex 8.0901699437494745e-01 5.0000000000000011e-01 -3.0901699437494745e-01
      vertex 8.0901699437494745e-01 5.0000000000000011e-01 3.0901699437494745e-01
    endloop
  endfacet
endsolid unit_sphere
