solid
  facet normal 0.000000e+000 0.000000e+000 1.000000e+000
    outer loop
      vertex 3.055220e+000 5.027685e+000 5.332898e+000
      vertex 3.066615e+000 4.897449e+000 5.332898e+000
      vertex 3.305220e+000 5.027685e+000 5.332898e+000
    endloop
  endfacet
  facet normal 0.000000e+000 0.000000e+000 1.000000e+000
    outer loop
      vertex 3.312817e+000 5.114509e+000 5.332898e+000
      vertex 3.055220e+000 5.027685e+000 5.332898e+000
      vertex 3.305220e+000 5.027685e+000 5.332898e+000
    endloop
  endfacet
  facet normal 0.000000e+000 0.000000e+000 1.000000e+000
    outer loop
      vertex 3.312817e+000 5.114509e+000 5.332898e+000
      vertex 3.066615e+000 5.157921e+000 5.332898e+000
      vertex 3.055220e+000 5.027685e+000 5.332898e+000
    endloop
  endfacet
  facet normal 0.000000e+000 0.000000e+000 1.000000e+000
    outer loop
      vertex 3.312817e+000 5.114509e+000 5.332898e+000
      vertex 3.335374e+000 5.198695e+000 5.332898e+000
      vertex 3.066615e+000 5.157921e+000 5.332898e+000
    endloop
  endfacet
  facet normal 0.000000e+000 0.000000e+000 1.000000e+000
    outer loop
      vertex 3.066615e+000 5.157921e+000 5.332898e+000
      vertex 3.335374e+000 5.198695e+000 5.332898e+000
      vertex 3.100451e+000 5.284200e+000 5.332898e+000
    endloop
  endfacet
  facet normal 0.000000e+000 0.000000e+000 1.000000e+000
    outer loop
      vertex 3.100451e+000 5.284200e+000 5.332898e+000
      vertex 3.335374e+000 5.198695e+000 5.332898e+000
      vertex 3.372208e+000 5.277685e+000 5.332898e+000
    endloop
  endfacet
  facet normal 0.000000e+000 0.000000e+000 1.000000e+000
    outer loop
      vertex 3.155701e+000 5.402685e+000 5.332898e+000
      vertex 3.372208e+000 5.277685e+000 5.332898e+000
      vertex 3.422198e+000 5.349079e+000 5.332898e+000
    endloop
  endfacet
  facet normal 0.000000e+000 0.000000e+000 1.000000e+000
    outer loop
      vertex 3.230687e+000 5.509776e+000 5.332898e+000
      vertex 3.422198e+000 5.349079e+000 5.332898e+000
      vertex 3.483827e+000 5.410707e+000 5.332898e+000
    endloop
  endfacet
  facet normal 0.000000e+000 0.000000e+000 1.000000e+000
    outer loop
      vertex 3.323130e+000 5.602218e+000 5.332898e+000
      vertex 3.483827e+000 5.410707e+000 5.332898e+000
      vertex 3.555220e+000 5.460698e+000 5.332898e+000
    endloop
  endfacet
  facet normal 0.000000e+000 0.000000e+000 1.000000e+000
    outer loop
      vertex 3.430220e+000 5.677204e+000 5.332898e+000
      vertex 3.555220e+000 5.460698e+000 5.332898e+000
      vertex 3.634210e+000 5.497531e+000 5.332898e+000
    endloop
  endfacet
  facet normal 0.000000e+000 0.000000e+000 1.000000e+000
    outer loop
      vertex 3.548705e+000 5.732455e+000 5.332898e+000
      vertex 3.634210e+000 5.497531e+000 5.332898e+000
      vertex 3.718396e+000 5.520089e+000 5.332898e+000
    endloop
  endfacet
  facet normal 0.000000e+000 0.000000e+000 1.000000e+000
    outer loop
      vertex 3.674984e+000 5.766291e+000 5.332898e+000
      vertex 3.718396e+000 5.520089e+000 5.332898e+000
      vertex 3.805220e+000 5.527685e+000 5.332898e+000
    endloop
  endfacet
  facet normal 0.000000e+000 0.000000e+000 1.000000e+000
    outer loop
      vertex 3.805220e+000 5.777685e+000 5.332898e+000
      vertex 3.805220e+000 5.527685e+000 5.332898e+000
      vertex 3.892045e+000 5.520089e+000 5.332898e+000
    endloop
  endfacet
  facet normal 0.000000e+000 0.000000e+000 1.000000e+000
    outer loop
      vertex 3.935457e+000 5.766291e+000 5.332898e+000
      vertex 3.892045e+000 5.520089e+000 5.332898e+000
      vertex 3.976231e+000 5.497531e+000 5.332898e+000
    endloop
  endfacet
  facet normal 0.000000e+000 0.000000e+000 1.000000e+000
    outer loop
      vertex 4.061736e+000 5.732455e+000 5.332898e+000
      vertex 3.976231e+000 5.497531e+000 5.332898e+000
      vertex 4.055220e+000 5.460698e+000 5.332898e+000
    endloop
  endfacet
  facet normal 0.000000e+000 0.000000e+000 1.000000e+000
    outer loop
      vertex 4.180220e+000 5.677204e+000 5.332898e+000
      vertex 4.055220e+000 5.460698e+000 5.332898e+000
      vertex 4.126614e+000 5.410707e+000 5.332898e+000
    endloop
  endfacet
  facet normal 0.000000e+000 0.000000e+000 1.000000e+000
    outer loop
      vertex 4.287311e+000 5.602218e+000 5.332898e+000
      vertex 4.126614e+000 5.410707e+000 5.332898e+000
      vertex 4.188243e+000 5.349079e+000 5.332898e+000
    endloop
  endfacet
  facet normal 0.000000e+000 0.000000e+000 1.000000e+000
    outer loop
      vertex 4.379754e+000 5.509776e+000 5.332898e+000
      vertex 4.188243e+000 5.349079e+000 5.332898e+000
      vertex 4.238233e+000 5.277685e+000 5.332898e+000
    endloop
  endfacet
  facet normal 0.000000e+000 0.000000e+000 1.000000e+000
    outer loop
      vertex 4.454740e+000 5.402685e+000 5.332898e+000
      vertex 4.238233e+000 5.277685e+000 5.332898e+000
      vertex 4.275067e+000 5.198695e+000 5.332898e+000
    endloop
  endfacet
  facet normal 0.000000e+000 0.000000e+000 1.000000e+000
    outer loop
      vertex 4.509990e+000 5.284200e+000 5.332898e+000
      vertex 4.275067e+000 5.198695e+000 5.332898e+000
      vertex 4.297624e+000 5.114509e+000 5.332898e+000
    endloop
  endfacet
  facet normal 0.000000e+000 0.000000e+000 1.000000e+000
    outer loop
      vertex 4.543826e+000 5.157921e+000 5.332898e+000
      vertex 4.297624e+000 5.114509e+000 5.332898e+000
      vertex 4.305220e+000 5.027685e+000 5.332898e+000
    endloop
  endfacet
  facet normal 0.000000e+000 0.000000e+000 1.000000e+000
    outer loop
      vertex 4.555220e+000 5.027685e+000 5.332898e+000
      vertex 4.305220e+000 5.027685e+000 5.332898e+000
      vertex 4.297624e+000 4.940861e+000 5.332898e+000
    endloop
  endfacet
  facet normal 0.000000e+000 0.000000e+000 1.000000e+000
    outer loop
      vertex 4.543826e+000 4.897449e+000 5.332898e+000
      vertex 4.297624e+000 4.940861e+000 5.332898e+000
      vertex 4.275067e+000 4.856675e+000 5.332898e+000
    endloop
  endfacet
  facet normal 0.000000e+000 0.000000e+000 1.000000e+000
    outer loop
      vertex 4.509990e+000 4.771170e+000 5.332898e+000
      vertex 4.275067e+000 4.856675e+000 5.332898e+000
      vertex 4.238233e+000 4.777685e+000 5.332898e+000
    endloop
  endfacet
  facet normal 0.000000e+000 0.000000e+000 1.000000e+000
    outer loop
      vertex 4.454740e+000 4.652685e+000 5.332898e+000
      vertex 4.238233e+000 4.777685e+000 5.332898e+000
      vertex 4.188243e+000 4.706291e+000 5.332898e+000
    endloop
  endfacet
  facet normal 0.000000e+000 0.000000e+000 1.000000e+000
    outer loop
      vertex 4.379754e+000 4.545594e+000 5.332898e+000
      vertex 4.188243e+000 4.706291e+000 5.332898e+000
      vertex 4.126614e+000 4.644663e+000 5.332898e+000
    endloop
  endfacet
  facet normal 0.000000e+000 0.000000e+000 1.000000e+000
    outer loop
      vertex 4.287311e+000 4.453152e+000 5.332898e+000
      vertex 4.126614e+000 4.644663e+000 5.332898e+000
      vertex 4.055220e+000 4.594672e+000 5.332898e+000
    endloop
  endfacet
  facet normal 0.000000e+000 0.000000e+000 1.000000e+000
    outer loop
      vertex 4.180220e+000 4.378166e+000 5.332898e+000
      vertex 4.055220e+000 4.594672e+000 5.332898e+000
      vertex 3.976231e+000 4.557839e+000 5.332898e+000
    endloop
  endfacet
  facet normal 0.000000e+000 0.000000e+000 1.000000e+000
    outer loop
      vertex 4.061736e+000 4.322916e+000 5.332898e+000
      vertex 3.976231e+000 4.557839e+000 5.332898e+000
      vertex 3.892045e+000 4.535281e+000 5.332898e+000
    endloop
  endfacet
  facet normal 0.000000e+000 0.000000e+000 1.000000e+000
    outer loop
      vertex 3.935457e+000 4.289079e+000 5.332898e+000
      vertex 3.892045e+000 4.535281e+000 5.332898e+000
      vertex 3.805220e+000 4.527685e+000 5.332898e+000
    endloop
  endfacet
  facet normal 0.000000e+000 0.000000e+000 1.000000e+000
    outer loop
      vertex 3.805220e+000 4.277685e+000 5.332898e+000
      vertex 3.805220e+000 4.527685e+000 5.332898e+000
      vertex 3.718396e+000 4.535281e+000 5.332898e+000
    endloop
  endfacet
  facet normal 0.000000e+000 0.000000e+000 1.000000e+000
    outer loop
      vertex 3.674984e+000 4.289079e+000 5.332898e+000
      vertex 3.718396e+000 4.535281e+000 5.332898e+000
      vertex 3.634210e+000 4.557839e+000 5.332898e+000
    endloop
  endfacet
  facet normal 0.000000e+000 0.000000e+000 1.000000e+000
    outer loop
      vertex 3.548705e+000 4.322916e+000 5.332898e+000
      vertex 3.634210e+000 4.557839e+000 5.332898e+000
      vertex 3.555220e+000 4.594672e+000 5.332898e+000
    endloop
  endfacet
  facet normal 0.000000e+000 0.000000e+000 1.000000e+000
    outer loop
      vertex 3.430220e+000 4.378166e+000 5.332898e+000
      vertex 3.555220e+000 4.594672e+000 5.332898e+000
      vertex 3.483827e+000 4.644663e+000 5.332898e+000
    endloop
  endfacet
  facet normal 0.000000e+000 0.000000e+000 1.000000e+000
    outer loop
      vertex 3.323130e+000 4.453152e+000 5.332898e+000
      vertex 3.483827e+000 4.644663e+000 5.332898e+000
      vertex 3.422198e+000 4.706291e+000 5.332898e+000
    endloop
  endfacet
  facet normal 0.000000e+000 0.000000e+000 1.000000e+000
    outer loop
      vertex 3.230687e+000 4.545594e+000 5.332898e+000
      vertex 3.422198e+000 4.706291e+000 5.332898e+000
      vertex 3.372208e+000 4.777685e+000 5.332898e+000
    endloop
  endfacet
  facet normal 0.000000e+000 0.000000e+000 1.000000e+000
    outer loop
      vertex 3.155701e+000 4.652685e+000 5.332898e+000
      vertex 3.372208e+000 4.777685e+000 5.332898e+000
      vertex 3.335374e+000 4.856675e+000 5.332898e+000
    endloop
  endfacet
  facet normal 0.000000e+000 0.000000e+000 1.000000e+000
    outer loop
      vertex 3.100451e+000 4.771170e+000 5.332898e+000
      vertex 3.335374e+000 4.856675e+000 5.332898e+000
      vertex 3.312817e+000 4.940861e+000 5.332898e+000
    endloop
  endfacet
  facet normal 0.000000e+000 0.000000e+000 1.000000e+000
    outer loop
      vertex 3.066615e+000 4.897449e+000 5.332898e+000
      vertex 3.312817e+000 4.940861e+000 5.332898e+000
      vertex 3.305220e+000 5.027685e+000 5.332898e+000
    endloop
  endfacet
  facet normal 0.000000e+000 0.000000e+000 1.000000e+000
    outer loop
      vertex 3.066615e+000 4.897449e+000 5.332898e+000
      vertex 3.100451e+000 4.771170e+000 5.332898e+000
      vertex 3.312817e+000 4.940861e+000 5.332898e+000
    endloop
  endfacet
  facet normal 0.000000e+000 0.000000e+000 1.000000e+000
    outer loop
      vertex 3.100451e+000 4.771170e+000 5.332898e+000
      vertex 3.155701e+000 4.652685e+000 5.332898e+000
      vertex 3.335374e+000 4.856675e+000 5.332898e+000
    endloop
  endfacet
  facet normal 0.000000e+000 0.000000e+000 1.000000e+000
    outer loop
      vertex 3.155701e+000 4.652685e+000 5.332898e+000
      vertex 3.230687e+000 4.545594e+000 5.332898e+000
      vertex 3.372208e+000 4.777685e+000 5.332898e+000
    endloop
  endfacet
  facet normal 0.000000e+000 0.000000e+000 1.000000e+000
    outer loop
      vertex 3.230687e+000 4.545594e+000 5.332898e+000
      vertex 3.323130e+000 4.453152e+000 5.332898e+000
      vertex 3.422198e+000 4.706291e+000 5.332898e+000
    endloop
  endfacet
  facet normal 0.000000e+000 0.000000e+000 1.000000e+000
    outer loop
      vertex 3.323130e+000 4.453152e+000 5.332898e+000
      vertex 3.430220e+000 4.378166e+000 5.332898e+000
      vertex 3.483827e+000 4.644663e+000 5.332898e+000
    endloop
  endfacet
  facet normal 0.000000e+000 0.000000e+000 1.000000e+000
    outer loop
      vertex 3.430220e+000 4.378166e+000 5.332898e+000
      vertex 3.548705e+000 4.322916e+000 5.332898e+000
      vertex 3.555220e+000 4.594672e+000 5.332898e+000
    endloop
  endfacet
  facet normal 0.000000e+000 0.000000e+000 1.000000e+000
    outer loop
      vertex 3.548705e+000 4.322916e+000 5.332898e+000
      vertex 3.674984e+000 4.289079e+000 5.332898e+000
      vertex 3.634210e+000 4.557839e+000 5.332898e+000
    endloop
  endfacet
  facet normal 0.000000e+000 0.000000e+000 1.000000e+000
    outer loop
      vertex 3.674984e+000 4.289079e+000 5.332898e+000
      vertex 3.805220e+000 4.277685e+000 5.332898e+000
      vertex 3.718396e+000 4.535281e+000 5.332898e+000
    endloop
  endfacet
  facet normal 0.000000e+000 0.000000e+000 1.000000e+000
    outer loop
      vertex 3.805220e+000 4.277685e+000 5.332898e+000
      vertex 3.935457e+000 4.289079e+000 5.332898e+000
      vertex 3.805220e+000 4.527685e+000 5.332898e+000
    endloop
  endfacet
  facet normal 0.000000e+000 0.000000e+000 1.000000e+000
    outer loop
      vertex 3.935457e+000 4.289079e+000 5.332898e+000
      vertex 4.061736e+000 4.322916e+000 5.332898e+000
      vertex 3.892045e+000 4.535281e+000 5.332898e+000
    endloop
  endfacet
  facet normal 0.000000e+000 0.000000e+000 1.000000e+000
    outer loop
      vertex 4.180220e+000 4.378166e+000 5.332898e+000
      vertex 3.976231e+000 4.557839e+000 5.332898e+000
      vertex 4.061736e+000 4.322916e+000 5.332898e+000
    endloop
  endfacet
  facet normal 0.000000e+000 0.000000e+000 1.000000e+000
    outer loop
      vertex 4.180220e+000 4.378166e+000 5.332898e+000
      vertex 4.287311e+000 4.453152e+000 5.332898e+000
      vertex 4.055220e+000 4.594672e+000 5.332898e+000
    endloop
  endfacet
  facet normal 0.000000e+000 0.000000e+000 1.000000e+000
    outer loop
      vertex 4.287311e+000 4.453152e+000 5.332898e+000
      vertex 4.379754e+000 4.545594e+000 5.332898e+000
      vertex 4.126614e+000 4.644663e+000 5.332898e+000
    endloop
  endfacet
  facet normal 0.000000e+000 0.000000e+000 1.000000e+000
    outer loop
      vertex 4.379754e+000 4.545594e+000 5.332898e+000
      vertex 4.454740e+000 4.652685e+000 5.332898e+000
      vertex 4.188243e+000 4.706291e+000 5.332898e+000
    endloop
  endfacet
  facet normal 0.000000e+000 0.000000e+000 1.000000e+000
    outer loop
      vertex 4.509990e+000 4.771170e+000 5.332898e+000
      vertex 4.238233e+000 4.777685e+000 5.332898e+000
      vertex 4.454740e+000 4.652685e+000 5.332898e+000
    endloop
  endfacet
  facet normal 0.000000e+000 0.000000e+000 1.000000e+000
    outer loop
      vertex 4.509990e+000 4.771170e+000 5.332898e+000
      vertex 4.543826e+000 4.897449e+000 5.332898e+000
      vertex 4.275067e+000 4.856675e+000 5.332898e+000
    endloop
  endfacet
  facet normal 0.000000e+000 0.000000e+000 1.000000e+000
    outer loop
      vertex 4.543826e+000 4.897449e+000 5.332898e+000
      vertex 4.555220e+000 5.027685e+000 5.332898e+000
      vertex 4.297624e+000 4.940861e+000 5.332898e+000
    endloop
  endfacet
  facet normal 0.000000e+000 0.000000e+000 1.000000e+000
    outer loop
      vertex 4.555220e+000 5.027685e+000 5.332898e+000
      vertex 4.543826e+000 5.157921e+000 5.332898e+000
      vertex 4.305220e+000 5.027685e+000 5.332898e+000
    endloop
  endfacet
  facet normal 0.000000e+000 0.000000e+000 1.000000e+000
    outer loop
      vertex 4.543826e+000 5.157921e+000 5.332898e+000
      vertex 4.509990e+000 5.284200e+000 5.332898e+000
      vertex 4.297624e+000 5.114509e+000 5.332898e+000
    endloop
  endfacet
  facet normal 0.000000e+000 0.000000e+000 1.000000e+000
    outer loop
      vertex 4.509990e+000 5.284200e+000 5.332898e+000
      vertex 4.454740e+000 5.402685e+000 5.332898e+000
      vertex 4.275067e+000 5.198695e+000 5.332898e+000
    endloop
  endfacet
  facet normal 0.000000e+000 0.000000e+000 1.000000e+000
    outer loop
      vertex 4.454740e+000 5.402685e+000 5.332898e+000
      vertex 4.379754e+000 5.509776e+000 5.332898e+000
      vertex 4.238233e+000 5.277685e+000 5.332898e+000
    endloop
  endfacet
  facet normal 0.000000e+000 0.000000e+000 1.000000e+000
    outer loop
      vertex 4.379754e+000 5.509776e+000 5.332898e+000
      vertex 4.287311e+000 5.602218e+000 5.332898e+000
      vertex 4.188243e+000 5.349079e+000 5.332898e+000
    endloop
  endfacet
  facet normal 0.000000e+000 0.000000e+000 1.000000e+000
    outer loop
      vertex 4.287311e+000 5.602218e+000 5.332898e+000
      vertex 4.180220e+000 5.677204e+000 5.332898e+000
      vertex 4.126614e+000 5.410707e+000 5.332898e+000
    endloop
  endfacet
  facet normal 0.000000e+000 0.000000e+000 1.000000e+000
    outer loop
      vertex 4.055220e+000 5.460698e+000 5.332898e+000
      vertex 4.180220e+000 5.677204e+000 5.332898e+000
      vertex 4.061736e+000 5.732455e+000 5.332898e+000
    endloop
  endfacet
  facet normal 0.000000e+000 0.000000e+000 1.000000e+000
    outer loop
      vertex 4.061736e+000 5.732455e+000 5.332898e+000
      vertex 3.935457e+000 5.766291e+000 5.332898e+000
      vertex 3.976231e+000 5.497531e+000 5.332898e+000
    endloop
  endfacet
  facet normal 0.000000e+000 0.000000e+000 1.000000e+000
    outer loop
      vertex 3.935457e+000 5.766291e+000 5.332898e+000
      vertex 3.805220e+000 5.777685e+000 5.332898e+000
      vertex 3.892045e+000 5.520089e+000 5.332898e+000
    endloop
  endfacet
  facet normal 0.000000e+000 0.000000e+000 1.000000e+000
    outer loop
      vertex 3.805220e+000 5.777685e+000 5.332898e+000
      vertex 3.674984e+000 5.766291e+000 5.332898e+000
      vertex 3.805220e+000 5.527685e+000 5.332898e+000
    endloop
  endfacet
  facet normal 0.000000e+000 0.000000e+000 1.000000e+000
    outer loop
      vertex 3.674984e+000 5.766291e+000 5.332898e+000
      vertex 3.548705e+000 5.732455e+000 5.332898e+000
      vertex 3.718396e+000 5.520089e+000 5.332898e+000
    endloop
  endfacet
  facet normal 0.000000e+000 0.000000e+000 1.000000e+000
    outer loop
      vertex 3.548705e+000 5.732455e+000 5.332898e+000
      vertex 3.430220e+000 5.677204e+000 5.332898e+000
      vertex 3.634210e+000 5.497531e+000 5.332898e+000
    endloop
  endfacet
  facet normal 0.000000e+000 0.000000e+000 1.000000e+000
    outer loop
      vertex 3.430220e+000 5.677204e+000 5.332898e+000
      vertex 3.323130e+000 5.602218e+000 5.332898e+000
      vertex 3.555220e+000 5.460698e+000 5.332898e+000
    endloop
  endfacet
  facet normal 0.000000e+000 0.000000e+000 1.000000e+000
    outer loop
      vertex 3.323130e+000 5.602218e+000 5.332898e+000
      vertex 3.230687e+000 5.509776e+000 5.332898e+000
      vertex 3.483827e+000 5.410707e+000 5.332898e+000
    endloop
  endfacet
  facet normal 0.000000e+000 0.000000e+000 1.000000e+000
    outer loop
      vertex 3.230687e+000 5.509776e+000 5.332898e+000
      vertex 3.155701e+000 5.402685e+000 5.332898e+000
      vertex 3.422198e+000 5.349079e+000 5.332898e+000
    endloop
  endfacet
  facet normal 0.000000e+000 0.000000e+000 1.000000e+000
    outer loop
      vertex 3.155701e+000 5.402685e+000 5.332898e+000
      vertex 3.100451e+000 5.284200e+000 5.332898e+000
      vertex 3.372208e+000 5.277685e+000 5.332898e+000
    endloop
  endfacet
  facet normal -9.961947e-001 -8.715574e-002 -9.172298e-016
    outer loop
      vertex 4.555220e+000 5.027685e+000 6.332898e+000
      vertex 4.543826e+000 5.157921e+000 6.332898e+000
      vertex 4.543826e+000 5.157921e+000 5.332898e+000
    endloop
  endfacet
  facet normal -9.961947e-001 -8.715574e-002 9.289182e-016
    outer loop
      vertex 4.555220e+000 5.027685e+000 5.332898e+000
      vertex 4.555220e+000 5.027685e+000 6.332898e+000
      vertex 4.543826e+000 5.157921e+000 5.332898e+000
    endloop
  endfacet
  facet normal -9.961947e-001 8.715574e-002 -9.289182e-016
    outer loop
      vertex 4.555220e+000 5.027685e+000 5.332898e+000
      vertex 4.543826e+000 4.897449e+000 6.332898e+000
      vertex 4.555220e+000 5.027685e+000 6.332898e+000
    endloop
  endfacet
  facet normal -9.961947e-001 8.715574e-002 1.758162e-015
    outer loop
      vertex 4.555220e+000 5.027685e+000 5.332898e+000
      vertex 4.543826e+000 4.897449e+000 5.332898e+000
      vertex 4.543826e+000 4.897449e+000 6.332898e+000
    endloop
  endfacet
  facet normal -9.659258e-001 2.588190e-001 -1.855524e-015
    outer loop
      vertex 4.543826e+000 4.897449e+000 6.332898e+000
      vertex 4.543826e+000 4.897449e+000 5.332898e+000
      vertex 4.509990e+000 4.771170e+000 6.332898e+000
    endloop
  endfacet
  facet normal -9.659258e-001 2.588190e-001 2.035888e-015
    outer loop
      vertex 4.509990e+000 4.771170e+000 6.332898e+000
      vertex 4.543826e+000 4.897449e+000 5.332898e+000
      vertex 4.509990e+000 4.771170e+000 5.332898e+000
    endloop
  endfacet
  facet normal -9.063078e-001 4.226183e-001 2.152348e-015
    outer loop
      vertex 4.454740e+000 4.652685e+000 6.332898e+000
      vertex 4.509990e+000 4.771170e+000 5.332898e+000
      vertex 4.454740e+000 4.652685e+000 5.332898e+000
    endloop
  endfacet
  facet normal -8.191520e-001 5.735764e-001 1.743410e-015
    outer loop
      vertex 4.379754e+000 4.545594e+000 6.332898e+000
      vertex 4.454740e+000 4.652685e+000 5.332898e+000
      vertex 4.379754e+000 4.545594e+000 5.332898e+000
    endloop
  endfacet
  facet normal -7.071068e-001 7.071068e-001 1.256074e-015
    outer loop
      vertex 4.287311e+000 4.453152e+000 6.332898e+000
      vertex 4.379754e+000 4.545594e+000 5.332898e+000
      vertex 4.287311e+000 4.453152e+000 5.332898e+000
    endloop
  endfacet
  facet normal -5.735764e-001 8.191520e-001 1.458126e-015
    outer loop
      vertex 4.180220e+000 4.378166e+000 6.332898e+000
      vertex 4.287311e+000 4.453152e+000 5.332898e+000
      vertex 4.180220e+000 4.378166e+000 5.332898e+000
    endloop
  endfacet
  facet normal -4.226183e-001 9.063078e-001 1.442865e-015
    outer loop
      vertex 4.061736e+000 4.322916e+000 6.332898e+000
      vertex 4.180220e+000 4.378166e+000 5.332898e+000
      vertex 4.061736e+000 4.322916e+000 5.332898e+000
    endloop
  endfacet
  facet normal -2.588190e-001 9.659258e-001 1.855524e-015
    outer loop
      vertex 3.935457e+000 4.289079e+000 6.332898e+000
      vertex 4.061736e+000 4.322916e+000 5.332898e+000
      vertex 3.935457e+000 4.289079e+000 5.332898e+000
    endloop
  endfacet
  facet normal -8.715574e-002 9.961947e-001 1.819131e-015
    outer loop
      vertex 3.805220e+000 4.277685e+000 6.332898e+000
      vertex 3.935457e+000 4.289079e+000 5.332898e+000
      vertex 3.805220e+000 4.277685e+000 5.332898e+000
    endloop
  endfacet
  facet normal 8.715574e-002 9.961947e-001 1.797473e-015
    outer loop
      vertex 3.674984e+000 4.289079e+000 6.332898e+000
      vertex 3.805220e+000 4.277685e+000 5.332898e+000
      vertex 3.674984e+000 4.289079e+000 5.332898e+000
    endloop
  endfacet
  facet normal 2.588190e-001 9.659258e-001 1.063035e-015
    outer loop
      vertex 3.548705e+000 4.322916e+000 6.332898e+000
      vertex 3.674984e+000 4.289079e+000 5.332898e+000
      vertex 3.548705e+000 4.322916e+000 5.332898e+000
    endloop
  endfacet
  facet normal 4.226183e-001 9.063078e-001 2.152348e-015
    outer loop
      vertex 3.430220e+000 4.378166e+000 6.332898e+000
      vertex 3.548705e+000 4.322916e+000 5.332898e+000
      vertex 3.430220e+000 4.378166e+000 5.332898e+000
    endloop
  endfacet
  facet normal 5.735764e-001 8.191520e-001 1.998129e-015
    outer loop
      vertex 3.323130e+000 4.453152e+000 6.332898e+000
      vertex 3.430220e+000 4.378166e+000 5.332898e+000
      vertex 3.323130e+000 4.453152e+000 5.332898e+000
    endloop
  endfacet
  facet normal 7.071068e-001 7.071068e-001 1.884111e-015
    outer loop
      vertex 3.230687e+000 4.545594e+000 6.332898e+000
      vertex 3.323130e+000 4.453152e+000 5.332898e+000
      vertex 3.230687e+000 4.545594e+000 5.332898e+000
    endloop
  endfacet
  facet normal 8.191520e-001 5.735764e-001 1.458126e-015
    outer loop
      vertex 3.155701e+000 4.652685e+000 6.332898e+000
      vertex 3.230687e+000 4.545594e+000 5.332898e+000
      vertex 3.155701e+000 4.652685e+000 5.332898e+000
    endloop
  endfacet
  facet normal 9.063078e-001 4.226183e-001 1.442865e-015
    outer loop
      vertex 3.100451e+000 4.771170e+000 6.332898e+000
      vertex 3.155701e+000 4.652685e+000 5.332898e+000
      vertex 3.100451e+000 4.771170e+000 5.332898e+000
    endloop
  endfacet
  facet normal 9.659258e-001 2.588190e-001 1.855524e-015
    outer loop
      vertex 3.066615e+000 4.897449e+000 6.332898e+000
      vertex 3.100451e+000 4.771170e+000 5.332898e+000
      vertex 3.066615e+000 4.897449e+000 5.332898e+000
    endloop
  endfacet
  facet normal 9.961947e-001 8.715574e-002 9.289182e-016
    outer loop
      vertex 3.055220e+000 5.027685e+000 6.332898e+000
      vertex 3.066615e+000 4.897449e+000 5.332898e+000
      vertex 3.055220e+000 5.027685e+000 5.332898e+000
    endloop
  endfacet
  facet normal 9.961947e-001 -8.715574e-002 1.283078e-015
    outer loop
      vertex 3.066615e+000 5.157921e+000 6.332898e+000
      vertex 3.055220e+000 5.027685e+000 5.332898e+000
      vertex 3.066615e+000 5.157921e+000 5.332898e+000
    endloop
  endfacet
  facet normal 9.659258e-001 -2.588190e-001 9.030055e-016
    outer loop
      vertex 3.100451e+000 5.284200e+000 6.332898e+000
      vertex 3.066615e+000 5.157921e+000 5.332898e+000
      vertex 3.100451e+000 5.284200e+000 5.332898e+000
    endloop
  endfacet
  facet normal 9.063078e-001 -4.226183e-001 1.076174e-015
    outer loop
      vertex 3.155701e+000 5.402685e+000 6.332898e+000
      vertex 3.100451e+000 5.284200e+000 5.332898e+000
      vertex 3.155701e+000 5.402685e+000 5.332898e+000
    endloop
  endfacet
  facet normal 8.191520e-001 -5.735764e-001 8.717048e-016
    outer loop
      vertex 3.230687e+000 5.509776e+000 6.332898e+000
      vertex 3.155701e+000 5.402685e+000 5.332898e+000
      vertex 3.230687e+000 5.509776e+000 5.332898e+000
    endloop
  endfacet
  facet normal 7.071068e-001 -7.071068e-001 1.256074e-015
    outer loop
      vertex 3.323130e+000 5.602218e+000 6.332898e+000
      vertex 3.230687e+000 5.509776e+000 5.332898e+000
      vertex 3.323130e+000 5.602218e+000 5.332898e+000
    endloop
  endfacet
  facet normal 5.735764e-001 -8.191520e-001 7.290631e-016
    outer loop
      vertex 3.430220e+000 5.677204e+000 6.332898e+000
      vertex 3.323130e+000 5.602218e+000 5.332898e+000
      vertex 3.430220e+000 5.677204e+000 5.332898e+000
    endloop
  endfacet
  facet normal 4.226183e-001 -9.063078e-001 9.091125e-016
    outer loop
      vertex 3.548705e+000 5.732455e+000 6.332898e+000
      vertex 3.430220e+000 5.677204e+000 5.332898e+000
      vertex 3.548705e+000 5.732455e+000 5.332898e+000
    endloop
  endfacet
  facet normal 2.588190e-001 -9.659258e-001 1.847865e-016
    outer loop
      vertex 3.674984e+000 5.766291e+000 6.332898e+000
      vertex 3.548705e+000 5.732455e+000 5.332898e+000
      vertex 3.674984e+000 5.766291e+000 5.332898e+000
    endloop
  endfacet
  facet normal 8.715574e-002 -9.961947e-001 8.902133e-016
    outer loop
      vertex 3.805220e+000 5.777685e+000 6.332898e+000
      vertex 3.674984e+000 5.766291e+000 5.332898e+000
      vertex 3.805220e+000 5.777685e+000 5.332898e+000
    endloop
  endfacet
  facet normal -8.715574e-002 -9.961947e-001 8.406791e-016
    outer loop
      vertex 3.935457e+000 5.766291e+000 6.332898e+000
      vertex 3.805220e+000 5.777685e+000 5.332898e+000
      vertex 3.935457e+000 5.766291e+000 5.332898e+000
    endloop
  endfacet
  facet normal -2.588190e-001 -9.659258e-001 1.760920e-015
    outer loop
      vertex 4.061736e+000 5.732455e+000 6.332898e+000
      vertex 3.935457e+000 5.766291e+000 5.332898e+000
      vertex 4.061736e+000 5.732455e+000 5.332898e+000
    endloop
  endfacet
  facet normal -4.226183e-001 -9.063078e-001 1.076174e-015
    outer loop
      vertex 4.180220e+000 5.677204e+000 6.332898e+000
      vertex 4.061736e+000 5.732455e+000 5.332898e+000
      vertex 4.180220e+000 5.677204e+000 5.332898e+000
    endloop
  endfacet
  facet normal -5.735764e-001 -8.191520e-001 5.079283e-016
    outer loop
      vertex 4.287311e+000 5.602218e+000 6.332898e+000
      vertex 4.180220e+000 5.677204e+000 5.332898e+000
      vertex 4.287311e+000 5.602218e+000 5.332898e+000
    endloop
  endfacet
  facet normal -7.071068e-001 -7.071068e-001 6.280370e-016
    outer loop
      vertex 4.379754e+000 5.509776e+000 6.332898e+000
      vertex 4.287311e+000 5.602218e+000 5.332898e+000
      vertex 4.379754e+000 5.509776e+000 5.332898e+000
    endloop
  endfacet
  facet normal -8.191520e-001 -5.735764e-001 7.290631e-016
    outer loop
      vertex 4.454740e+000 5.402685e+000 6.332898e+000
      vertex 4.379754e+000 5.509776e+000 5.332898e+000
      vertex 4.454740e+000 5.402685e+000 5.332898e+000
    endloop
  endfacet
  facet normal -9.063078e-001 -4.226183e-001 9.091125e-016
    outer loop
      vertex 4.509990e+000 5.284200e+000 6.332898e+000
      vertex 4.454740e+000 5.402685e+000 5.332898e+000
      vertex 4.509990e+000 5.284200e+000 5.332898e+000
    endloop
  endfacet
  facet normal -9.659258e-001 -2.588190e-001 8.128234e-016
    outer loop
      vertex 4.543826e+000 5.157921e+000 6.332898e+000
      vertex 4.509990e+000 5.284200e+000 5.332898e+000
      vertex 4.543826e+000 5.157921e+000 5.332898e+000
    endloop
  endfacet
  facet normal -9.659258e-001 -2.588190e-001 -9.023020e-016
    outer loop
      vertex 4.543826e+000 5.157921e+000 6.332898e+000
      vertex 4.509990e+000 5.284200e+000 6.332898e+000
      vertex 4.509990e+000 5.284200e+000 5.332898e+000
    endloop
  endfacet
  facet normal -9.063078e-001 -4.226183e-001 -1.081435e-015
    outer loop
      vertex 4.509990e+000 5.284200e+000 6.332898e+000
      vertex 4.454740e+000 5.402685e+000 6.332898e+000
      vertex 4.454740e+000 5.402685e+000 5.332898e+000
    endloop
  endfacet
  facet normal -8.191520e-001 -5.735764e-001 -1.235481e-015
    outer loop
      vertex 4.379754e+000 5.509776e+000 6.332898e+000
      vertex 4.379754e+000 5.509776e+000 5.332898e+000
      vertex 4.454740e+000 5.402685e+000 6.332898e+000
    endloop
  endfacet
  facet normal -7.071068e-001 -7.071068e-001 -1.260569e-015
    outer loop
      vertex 4.379754e+000 5.509776e+000 6.332898e+000
      vertex 4.287311e+000 5.602218e+000 6.332898e+000
      vertex 4.287311e+000 5.602218e+000 5.332898e+000
    endloop
  endfacet
  facet normal -5.735764e-001 -8.191520e-001 -7.165339e-016
    outer loop
      vertex 4.287311e+000 5.602218e+000 6.332898e+000
      vertex 4.180220e+000 5.677204e+000 6.332898e+000
      vertex 4.180220e+000 5.677204e+000 5.332898e+000
    endloop
  endfacet
  facet normal -4.226183e-001 -9.063078e-001 -9.951860e-017
    outer loop
      vertex 4.180220e+000 5.677204e+000 6.332898e+000
      vertex 4.061736e+000 5.732455e+000 6.332898e+000
      vertex 4.061736e+000 5.732455e+000 5.332898e+000
    endloop
  endfacet
  facet normal -2.588190e-001 -9.659258e-001 -1.041628e-015
    outer loop
      vertex 4.061736e+000 5.732455e+000 6.332898e+000
      vertex 3.935457e+000 5.766291e+000 6.332898e+000
      vertex 3.935457e+000 5.766291e+000 5.332898e+000
    endloop
  endfacet
  facet normal -8.715574e-002 -9.961947e-001 -8.902133e-016
    outer loop
      vertex 3.805220e+000 5.777685e+000 6.332898e+000
      vertex 3.805220e+000 5.777685e+000 5.332898e+000
      vertex 3.935457e+000 5.766291e+000 6.332898e+000
    endloop
  endfacet
  facet normal 8.715574e-002 -9.961947e-001 -1.726648e-015
    outer loop
      vertex 3.805220e+000 5.777685e+000 6.332898e+000
      vertex 3.674984e+000 5.766291e+000 6.332898e+000
      vertex 3.674984e+000 5.766291e+000 5.332898e+000
    endloop
  endfacet
  facet normal 2.588190e-001 -9.659258e-001 -9.089365e-016
    outer loop
      vertex 3.674984e+000 5.766291e+000 6.332898e+000
      vertex 3.548705e+000 5.732455e+000 6.332898e+000
      vertex 3.548705e+000 5.732455e+000 5.332898e+000
    endloop
  endfacet
  facet normal 4.226183e-001 -9.063078e-001 -1.081435e-015
    outer loop
      vertex 3.548705e+000 5.732455e+000 6.332898e+000
      vertex 3.430220e+000 5.677204e+000 6.332898e+000
      vertex 3.430220e+000 5.677204e+000 5.332898e+000
    endloop
  endfacet
  facet normal 5.735764e-001 -8.191520e-001 -5.042276e-016
    outer loop
      vertex 3.430220e+000 5.677204e+000 6.332898e+000
      vertex 3.323130e+000 5.602218e+000 6.332898e+000
      vertex 3.323130e+000 5.602218e+000 5.332898e+000
    endloop
  endfacet
  facet normal 7.071068e-001 -7.071068e-001 -9.421094e-016
    outer loop
      vertex 3.323130e+000 5.602218e+000 6.332898e+000
      vertex 3.230687e+000 5.509776e+000 6.332898e+000
      vertex 3.230687e+000 5.509776e+000 5.332898e+000
    endloop
  endfacet
  facet normal 8.191520e-001 -5.735764e-001 -7.298031e-016
    outer loop
      vertex 3.230687e+000 5.509776e+000 6.332898e+000
      vertex 3.155701e+000 5.402685e+000 6.332898e+000
      vertex 3.155701e+000 5.402685e+000 5.332898e+000
    endloop
  endfacet
  facet normal 9.063078e-001 -4.226183e-001 -9.089365e-016
    outer loop
      vertex 3.155701e+000 5.402685e+000 6.332898e+000
      vertex 3.100451e+000 5.284200e+000 6.332898e+000
      vertex 3.100451e+000 5.284200e+000 5.332898e+000
    endloop
  endfacet
  facet normal 9.659258e-001 -2.588190e-001 -6.103807e-016
    outer loop
      vertex 3.100451e+000 5.284200e+000 6.332898e+000
      vertex 3.066615e+000 5.157921e+000 6.332898e+000
      vertex 3.066615e+000 5.157921e+000 5.332898e+000
    endloop
  endfacet
  facet normal 9.961947e-001 -8.715574e-002 -9.289182e-016
    outer loop
      vertex 3.055220e+000 5.027685e+000 6.332898e+000
      vertex 3.055220e+000 5.027685e+000 5.332898e+000
      vertex 3.066615e+000 5.157921e+000 6.332898e+000
    endloop
  endfacet
  facet normal 9.961947e-001 8.715574e-002 -1.759821e-015
    outer loop
      vertex 3.055220e+000 5.027685e+000 6.332898e+000
      vertex 3.066615e+000 4.897449e+000 6.332898e+000
      vertex 3.066615e+000 4.897449e+000 5.332898e+000
    endloop
  endfacet
  facet normal 9.659258e-001 2.588190e-001 -2.036814e-015
    outer loop
      vertex 3.066615e+000 4.897449e+000 6.332898e+000
      vertex 3.100451e+000 4.771170e+000 6.332898e+000
      vertex 3.100451e+000 4.771170e+000 5.332898e+000
    endloop
  endfacet
  facet normal 9.063078e-001 4.226183e-001 -2.149602e-015
    outer loop
      vertex 3.100451e+000 4.771170e+000 6.332898e+000
      vertex 3.155701e+000 4.652685e+000 6.332898e+000
      vertex 3.155701e+000 4.652685e+000 5.332898e+000
    endloop
  endfacet
  facet normal 8.191520e-001 5.735764e-001 -1.738258e-015
    outer loop
      vertex 3.155701e+000 4.652685e+000 6.332898e+000
      vertex 3.230687e+000 4.545594e+000 6.332898e+000
      vertex 3.230687e+000 4.545594e+000 5.332898e+000
    endloop
  endfacet
  facet normal 7.071068e-001 7.071068e-001 -1.579028e-015
    outer loop
      vertex 3.230687e+000 4.545594e+000 6.332898e+000
      vertex 3.323130e+000 4.453152e+000 6.332898e+000
      vertex 3.323130e+000 4.453152e+000 5.332898e+000
    endloop
  endfacet
  facet normal 5.735764e-001 8.191520e-001 -1.459606e-015
    outer loop
      vertex 3.323130e+000 4.453152e+000 6.332898e+000
      vertex 3.430220e+000 4.378166e+000 6.332898e+000
      vertex 3.430220e+000 4.378166e+000 5.332898e+000
    endloop
  endfacet
  facet normal 4.226183e-001 9.063078e-001 -2.434888e-015
    outer loop
      vertex 3.430220e+000 4.378166e+000 6.332898e+000
      vertex 3.548705e+000 4.322916e+000 6.332898e+000
      vertex 3.548705e+000 4.322916e+000 5.332898e+000
    endloop
  endfacet
  facet normal 2.588190e-001 9.659258e-001 -1.738258e-015
    outer loop
      vertex 3.548705e+000 4.322916e+000 6.332898e+000
      vertex 3.674984e+000 4.289079e+000 6.332898e+000
      vertex 3.674984e+000 4.289079e+000 5.332898e+000
    endloop
  endfacet
  facet normal 8.715574e-002 9.961947e-001 -1.819532e-015
    outer loop
      vertex 3.674984e+000 4.289079e+000 6.332898e+000
      vertex 3.805220e+000 4.277685e+000 6.332898e+000
      vertex 3.805220e+000 4.277685e+000 5.332898e+000
    endloop
  endfacet
  facet normal -8.715574e-002 9.961947e-001 -1.758162e-015
    outer loop
      vertex 3.805220e+000 4.277685e+000 6.332898e+000
      vertex 3.935457e+000 4.289079e+000 6.332898e+000
      vertex 3.935457e+000 4.289079e+000 5.332898e+000
    endloop
  endfacet
  facet normal -2.588190e-001 9.659258e-001 -2.036814e-015
    outer loop
      vertex 3.935457e+000 4.289079e+000 6.332898e+000
      vertex 4.061736e+000 4.322916e+000 6.332898e+000
      vertex 4.061736e+000 4.322916e+000 5.332898e+000
    endloop
  endfacet
  facet normal -4.226183e-001 9.063078e-001 -2.149602e-015
    outer loop
      vertex 4.061736e+000 4.322916e+000 6.332898e+000
      vertex 4.180220e+000 4.378166e+000 6.332898e+000
      vertex 4.180220e+000 4.378166e+000 5.332898e+000
    endloop
  endfacet
  facet normal -5.735764e-001 8.191520e-001 -2.242486e-015
    outer loop
      vertex 4.180220e+000 4.378166e+000 6.332898e+000
      vertex 4.287311e+000 4.453152e+000 6.332898e+000
      vertex 4.287311e+000 4.453152e+000 5.332898e+000
    endloop
  endfacet
  facet normal -7.071068e-001 7.071068e-001 -1.884219e-015
    outer loop
      vertex 4.287311e+000 4.453152e+000 6.332898e+000
      vertex 4.379754e+000 4.545594e+000 6.332898e+000
      vertex 4.379754e+000 4.545594e+000 5.332898e+000
    endloop
  endfacet
  facet normal -8.191520e-001 5.735764e-001 -1.459606e-015
    outer loop
      vertex 4.379754e+000 4.545594e+000 6.332898e+000
      vertex 4.454740e+000 4.652685e+000 6.332898e+000
      vertex 4.454740e+000 4.652685e+000 5.332898e+000
    endloop
  endfacet
  facet normal -9.063078e-001 4.226183e-001 -1.446337e-015
    outer loop
      vertex 4.454740e+000 4.652685e+000 6.332898e+000
      vertex 4.509990e+000 4.771170e+000 6.332898e+000
      vertex 4.509990e+000 4.771170e+000 5.332898e+000
    endloop
  endfacet
  facet normal -9.961947e-001 8.715574e-002 7.470115e-016
    outer loop
      vertex 4.305220e+000 5.027685e+000 3.332898e+000
      vertex 4.297624e+000 4.940861e+000 3.332898e+000
      vertex 4.297624e+000 4.940861e+000 5.332898e+000
    endloop
  endfacet
  facet normal -9.961947e-001 8.715574e-002 -3.096394e-016
    outer loop
      vertex 4.305220e+000 5.027685e+000 5.332898e+000
      vertex 4.305220e+000 5.027685e+000 3.332898e+000
      vertex 4.297624e+000 4.940861e+000 5.332898e+000
    endloop
  endfacet
  facet normal -9.961947e-001 -8.715574e-002 3.096394e-016
    outer loop
      vertex 4.305220e+000 5.027685e+000 5.332898e+000
      vertex 4.297624e+000 5.114509e+000 3.332898e+000
      vertex 4.305220e+000 5.027685e+000 3.332898e+000
    endloop
  endfacet
  facet normal -9.961947e-001 -8.715574e-002 -7.470115e-016
    outer loop
      vertex 4.305220e+000 5.027685e+000 5.332898e+000
      vertex 4.297624e+000 5.114509e+000 5.332898e+000
      vertex 4.297624e+000 5.114509e+000 3.332898e+000
    endloop
  endfacet
  facet normal -9.659258e-001 -2.588190e-001 4.372095e-016
    outer loop
      vertex 4.297624e+000 5.114509e+000 3.332898e+000
      vertex 4.297624e+000 5.114509e+000 5.332898e+000
      vertex 4.275067e+000 5.198695e+000 3.332898e+000
    endloop
  endfacet
  facet normal -9.659258e-001 -2.588190e-001 -4.207050e-016
    outer loop
      vertex 4.275067e+000 5.198695e+000 3.332898e+000
      vertex 4.297624e+000 5.114509e+000 5.332898e+000
      vertex 4.275067e+000 5.198695e+000 5.332898e+000
    endloop
  endfacet
  facet normal -9.063078e-001 -4.226183e-001 -5.923291e-016
    outer loop
      vertex 4.238233e+000 5.277685e+000 3.332898e+000
      vertex 4.275067e+000 5.198695e+000 5.332898e+000
      vertex 4.238233e+000 5.277685e+000 5.332898e+000
    endloop
  endfacet
  facet normal -8.191520e-001 -5.735764e-001 -3.264175e-016
    outer loop
      vertex 4.188243e+000 5.349079e+000 3.332898e+000
      vertex 4.238233e+000 5.277685e+000 5.332898e+000
      vertex 4.188243e+000 5.349079e+000 5.332898e+000
    endloop
  endfacet
  facet normal -7.071068e-001 -7.071068e-001 -6.280370e-016
    outer loop
      vertex 4.126614e+000 5.410707e+000 3.332898e+000
      vertex 4.188243e+000 5.349079e+000 5.332898e+000
      vertex 4.126614e+000 5.410707e+000 5.332898e+000
    endloop
  endfacet
  facet normal -5.735764e-001 -8.191520e-001 -4.011357e-016
    outer loop
      vertex 4.055220e+000 5.460698e+000 3.332898e+000
      vertex 4.126614e+000 5.410707e+000 5.332898e+000
      vertex 4.055220e+000 5.460698e+000 5.332898e+000
    endloop
  endfacet
  facet normal -4.226183e-001 -9.063078e-001 -4.003141e-016
    outer loop
      vertex 3.976231e+000 5.497531e+000 3.332898e+000
      vertex 4.055220e+000 5.460698e+000 5.332898e+000
      vertex 3.976231e+000 5.497531e+000 5.332898e+000
    endloop
  endfacet
  facet normal -2.588190e-001 -9.659258e-001 -9.236361e-016
    outer loop
      vertex 3.892045e+000 5.520089e+000 3.332898e+000
      vertex 3.976231e+000 5.497531e+000 5.332898e+000
      vertex 3.892045e+000 5.520089e+000 5.332898e+000
    endloop
  endfacet
  facet normal -8.715574e-002 -9.961947e-001 -5.999263e-016
    outer loop
      vertex 3.805220e+000 5.527685e+000 3.332898e+000
      vertex 3.892045e+000 5.520089e+000 5.332898e+000
      vertex 3.805220e+000 5.527685e+000 5.332898e+000
    endloop
  endfacet
  facet normal 8.715574e-002 -9.961947e-001 -7.272716e-016
    outer loop
      vertex 3.718396e+000 5.520089e+000 3.332898e+000
      vertex 3.805220e+000 5.527685e+000 5.332898e+000
      vertex 3.718396e+000 5.520089e+000 5.332898e+000
    endloop
  endfacet
  facet normal 2.588190e-001 -9.659258e-001 -4.207050e-016
    outer loop
      vertex 3.634210e+000 5.497531e+000 3.332898e+000
      vertex 3.718396e+000 5.520089e+000 5.332898e+000
      vertex 3.634210e+000 5.497531e+000 5.332898e+000
    endloop
  endfacet
  facet normal 4.226183e-001 -9.063078e-001 -6.861692e-016
    outer loop
      vertex 3.555220e+000 5.460698e+000 3.332898e+000
      vertex 3.634210e+000 5.497531e+000 5.332898e+000
      vertex 3.555220e+000 5.460698e+000 5.332898e+000
    endloop
  endfacet
  facet normal 5.735764e-001 -8.191520e-001 -5.811366e-016
    outer loop
      vertex 3.483827e+000 5.410707e+000 3.332898e+000
      vertex 3.555220e+000 5.460698e+000 5.332898e+000
      vertex 3.483827e+000 5.410707e+000 5.332898e+000
    endloop
  endfacet
  facet normal 7.071068e-001 -7.071068e-001 -6.280370e-016
    outer loop
      vertex 3.422198e+000 5.349079e+000 3.332898e+000
      vertex 3.483827e+000 5.410707e+000 5.332898e+000
      vertex 3.422198e+000 5.349079e+000 5.332898e+000
    endloop
  endfacet
  facet normal 8.191520e-001 -5.735764e-001 -5.830240e-016
    outer loop
      vertex 3.372208e+000 5.277685e+000 3.332898e+000
      vertex 3.422198e+000 5.349079e+000 5.332898e+000
      vertex 3.372208e+000 5.277685e+000 5.332898e+000
    endloop
  endfacet
  facet normal 9.063078e-001 -4.226183e-001 -4.138746e-016
    outer loop
      vertex 3.335374e+000 5.198695e+000 3.332898e+000
      vertex 3.372208e+000 5.277685e+000 5.332898e+000
      vertex 3.335374e+000 5.198695e+000 5.332898e+000
    endloop
  endfacet
  facet normal 9.659258e-001 -2.588190e-001 -4.372095e-016
    outer loop
      vertex 3.312817e+000 5.114509e+000 3.332898e+000
      vertex 3.335374e+000 5.198695e+000 5.332898e+000
      vertex 3.312817e+000 5.114509e+000 5.332898e+000
    endloop
  endfacet
  facet normal 9.961947e-001 -8.715574e-002 -6.192788e-016
    outer loop
      vertex 3.305220e+000 5.027685e+000 3.332898e+000
      vertex 3.312817e+000 5.114509e+000 5.332898e+000
      vertex 3.305220e+000 5.027685e+000 5.332898e+000
    endloop
  endfacet
  facet normal 9.961947e-001 8.715574e-002 -7.466241e-016
    outer loop
      vertex 3.312817e+000 4.940861e+000 3.332898e+000
      vertex 3.305220e+000 5.027685e+000 5.332898e+000
      vertex 3.312817e+000 4.940861e+000 5.332898e+000
    endloop
  endfacet
  facet normal 9.659258e-001 2.588190e-001 -7.501224e-016
    outer loop
      vertex 3.335374e+000 4.856675e+000 3.332898e+000
      vertex 3.312817e+000 4.940861e+000 5.332898e+000
      vertex 3.335374e+000 4.856675e+000 5.332898e+000
    endloop
  endfacet
  facet normal 9.063078e-001 4.226183e-001 -5.787686e-016
    outer loop
      vertex 3.372208e+000 4.777685e+000 3.332898e+000
      vertex 3.335374e+000 4.856675e+000 5.332898e+000
      vertex 3.372208e+000 4.777685e+000 5.332898e+000
    endloop
  endfacet
  facet normal 8.191520e-001 5.735764e-001 -5.811366e-016
    outer loop
      vertex 3.422198e+000 4.706291e+000 3.332898e+000
      vertex 3.372208e+000 4.777685e+000 5.332898e+000
      vertex 3.422198e+000 4.706291e+000 5.332898e+000
    endloop
  endfacet
  facet normal 7.071068e-001 7.071068e-001 -6.280370e-016
    outer loop
      vertex 3.483827e+000 4.644663e+000 3.332898e+000
      vertex 3.422198e+000 4.706291e+000 5.332898e+000
      vertex 3.483827e+000 4.644663e+000 5.332898e+000
    endloop
  endfacet
  facet normal 5.735764e-001 8.191520e-001 -5.284953e-016
    outer loop
      vertex 3.555220e+000 4.594672e+000 3.332898e+000
      vertex 3.483827e+000 4.644663e+000 5.332898e+000
      vertex 3.555220e+000 4.594672e+000 5.332898e+000
    endloop
  endfacet
  facet normal 4.226183e-001 9.063078e-001 -8.027956e-016
    outer loop
      vertex 3.634210e+000 4.557839e+000 3.332898e+000
      vertex 3.555220e+000 4.594672e+000 5.332898e+000
      vertex 3.634210e+000 4.557839e+000 5.332898e+000
    endloop
  endfacet
  facet normal 2.588190e-001 9.659258e-001 -4.946788e-016
    outer loop
      vertex 3.718396e+000 4.535281e+000 3.332898e+000
      vertex 3.634210e+000 4.557839e+000 5.332898e+000
      vertex 3.718396e+000 4.535281e+000 5.332898e+000
    endloop
  endfacet
  facet normal 8.715574e-002 9.961947e-001 -5.999263e-016
    outer loop
      vertex 3.805220e+000 4.527685e+000 3.332898e+000
      vertex 3.718396e+000 4.535281e+000 5.332898e+000
      vertex 3.805220e+000 4.527685e+000 5.332898e+000
    endloop
  endfacet
  facet normal -8.715574e-002 9.961947e-001 -2.848723e-016
    outer loop
      vertex 3.892045e+000 4.535281e+000 3.332898e+000
      vertex 3.805220e+000 4.527685e+000 5.332898e+000
      vertex 3.892045e+000 4.535281e+000 5.332898e+000
    endloop
  endfacet
  facet normal -2.588190e-001 9.659258e-001 -8.496622e-016
    outer loop
      vertex 3.976231e+000 4.557839e+000 3.332898e+000
      vertex 3.892045e+000 4.535281e+000 5.332898e+000
      vertex 3.976231e+000 4.557839e+000 5.332898e+000
    endloop
  endfacet
  facet normal -4.226183e-001 9.063078e-001 -7.800093e-016
    outer loop
      vertex 4.055220e+000 4.594672e+000 3.332898e+000
      vertex 3.976231e+000 4.557839e+000 5.332898e+000
      vertex 4.055220e+000 4.594672e+000 5.332898e+000
    endloop
  endfacet
  facet normal -5.735764e-001 8.191520e-001 -5.811366e-016
    outer loop
      vertex 4.126614e+000 4.644663e+000 3.332898e+000
      vertex 4.055220e+000 4.594672e+000 5.332898e+000
      vertex 4.126614e+000 4.644663e+000 5.332898e+000
    endloop
  endfacet
  facet normal -7.071068e-001 7.071068e-001 -9.420555e-016
    outer loop
      vertex 4.188243e+000 4.706291e+000 3.332898e+000
      vertex 4.126614e+000 4.644663e+000 5.332898e+000
      vertex 4.188243e+000 4.706291e+000 5.332898e+000
    endloop
  endfacet
  facet normal -8.191520e-001 5.735764e-001 -6.558548e-016
    outer loop
      vertex 4.238233e+000 4.777685e+000 3.332898e+000
      vertex 4.188243e+000 4.706291e+000 5.332898e+000
      vertex 4.238233e+000 4.777685e+000 5.332898e+000
    endloop
  endfacet
  facet normal -9.063078e-001 4.226183e-001 -8.027956e-016
    outer loop
      vertex 4.275067e+000 4.856675e+000 3.332898e+000
      vertex 4.238233e+000 4.777685e+000 5.332898e+000
      vertex 4.275067e+000 4.856675e+000 5.332898e+000
    endloop
  endfacet
  facet normal -9.659258e-001 2.588190e-001 -4.372095e-016
    outer loop
      vertex 4.297624e+000 4.940861e+000 3.332898e+000
      vertex 4.275067e+000 4.856675e+000 5.332898e+000
      vertex 4.297624e+000 4.940861e+000 5.332898e+000
    endloop
  endfacet
  facet normal -9.659258e-001 2.588190e-001 4.204661e-016
    outer loop
      vertex 4.297624e+000 4.940861e+000 3.332898e+000
      vertex 4.275067e+000 4.856675e+000 3.332898e+000
      vertex 4.275067e+000 4.856675e+000 5.332898e+000
    endloop
  endfacet
  facet normal -9.063078e-001 4.226183e-001 5.946236e-016
    outer loop
      vertex 4.275067e+000 4.856675e+000 3.332898e+000
      vertex 4.238233e+000 4.777685e+000 3.332898e+000
      vertex 4.238233e+000 4.777685e+000 5.332898e+000
    endloop
  endfacet
  facet normal -8.191520e-001 5.735764e-001 3.259234e-016
    outer loop
      vertex 4.238233e+000 4.777685e+000 3.332898e+000
      vertex 4.188243e+000 4.706291e+000 3.332898e+000
      vertex 4.188243e+000 4.706291e+000 5.332898e+000
    endloop
  endfacet
  facet normal -7.071068e-001 7.071068e-001 6.269672e-016
    outer loop
      vertex 4.188243e+000 4.706291e+000 3.332898e+000
      vertex 4.126614e+000 4.644663e+000 3.332898e+000
      vertex 4.126614e+000 4.644663e+000 5.332898e+000
    endloop
  endfacet
  facet normal -5.735764e-001 8.191520e-001 4.005624e-016
    outer loop
      vertex 4.126614e+000 4.644663e+000 3.332898e+000
      vertex 4.055220e+000 4.594672e+000 3.332898e+000
      vertex 4.055220e+000 4.594672e+000 5.332898e+000
    endloop
  endfacet
  facet normal -4.226183e-001 9.063078e-001 4.005624e-016
    outer loop
      vertex 4.055220e+000 4.594672e+000 3.332898e+000
      vertex 3.976231e+000 4.557839e+000 3.332898e+000
      vertex 3.976231e+000 4.557839e+000 5.332898e+000
    endloop
  endfacet
  facet normal -2.588190e-001 9.659258e-001 9.230350e-016
    outer loop
      vertex 3.976231e+000 4.557839e+000 3.332898e+000
      vertex 3.892045e+000 4.535281e+000 3.332898e+000
      vertex 3.892045e+000 4.535281e+000 5.332898e+000
    endloop
  endfacet
  facet normal -8.715574e-002 9.961947e-001 6.002215e-016
    outer loop
      vertex 3.892045e+000 4.535281e+000 3.332898e+000
      vertex 3.805220e+000 4.527685e+000 3.332898e+000
      vertex 3.805220e+000 4.527685e+000 5.332898e+000
    endloop
  endfacet
  facet normal 8.715574e-002 9.961947e-001 7.277298e-016
    outer loop
      vertex 3.805220e+000 4.527685e+000 3.332898e+000
      vertex 3.718396e+000 4.535281e+000 3.332898e+000
      vertex 3.718396e+000 4.535281e+000 5.332898e+000
    endloop
  endfacet
  facet normal 2.588190e-001 9.659258e-001 4.204661e-016
    outer loop
      vertex 3.718396e+000 4.535281e+000 3.332898e+000
      vertex 3.634210e+000 4.557839e+000 3.332898e+000
      vertex 3.634210e+000 4.557839e+000 5.332898e+000
    endloop
  endfacet
  facet normal 4.226183e-001 9.063078e-001 6.841904e-016
    outer loop
      vertex 3.634210e+000 4.557839e+000 3.332898e+000
      vertex 3.555220e+000 4.594672e+000 3.332898e+000
      vertex 3.555220e+000 4.594672e+000 5.332898e+000
    endloop
  endfacet
  facet normal 5.735764e-001 8.191520e-001 5.796958e-016
    outer loop
      vertex 3.555220e+000 4.594672e+000 3.332898e+000
      vertex 3.483827e+000 4.644663e+000 3.332898e+000
      vertex 3.483827e+000 4.644663e+000 5.332898e+000
    endloop
  endfacet
  facet normal 7.071068e-001 7.071068e-001 6.269672e-016
    outer loop
      vertex 3.483827e+000 4.644663e+000 3.332898e+000
      vertex 3.422198e+000 4.706291e+000 3.332898e+000
      vertex 3.422198e+000 4.706291e+000 5.332898e+000
    endloop
  endfacet
  facet normal 8.191520e-001 5.735764e-001 5.821838e-016
    outer loop
      vertex 3.422198e+000 4.706291e+000 3.332898e+000
      vertex 3.372208e+000 4.777685e+000 3.332898e+000
      vertex 3.372208e+000 4.777685e+000 5.332898e+000
    endloop
  endfacet
  facet normal 9.063078e-001 4.226183e-001 4.154901e-016
    outer loop
      vertex 3.372208e+000 4.777685e+000 3.332898e+000
      vertex 3.335374e+000 4.856675e+000 3.332898e+000
      vertex 3.335374e+000 4.856675e+000 5.332898e+000
    endloop
  endfacet
  facet normal 9.659258e-001 2.588190e-001 4.366379e-016
    outer loop
      vertex 3.335374e+000 4.856675e+000 3.332898e+000
      vertex 3.312817e+000 4.940861e+000 3.332898e+000
      vertex 3.312817e+000 4.940861e+000 5.332898e+000
    endloop
  endfacet
  facet normal 9.961947e-001 8.715574e-002 6.195033e-016
    outer loop
      vertex 3.312817e+000 4.940861e+000 3.332898e+000
      vertex 3.305220e+000 5.027685e+000 3.332898e+000
      vertex 3.305220e+000 5.027685e+000 5.332898e+000
    endloop
  endfacet
  facet normal 9.961947e-001 -8.715574e-002 7.470115e-016
    outer loop
      vertex 3.305220e+000 5.027685e+000 3.332898e+000
      vertex 3.312817e+000 5.114509e+000 3.332898e+000
      vertex 3.312817e+000 5.114509e+000 5.332898e+000
    endloop
  endfacet
  facet normal 9.659258e-001 -2.588190e-001 7.501214e-016
    outer loop
      vertex 3.312817e+000 5.114509e+000 3.332898e+000
      vertex 3.335374e+000 5.198695e+000 3.332898e+000
      vertex 3.335374e+000 5.198695e+000 5.332898e+000
    endloop
  endfacet
  facet normal 9.063078e-001 -4.226183e-001 5.796958e-016
    outer loop
      vertex 3.335374e+000 5.198695e+000 3.332898e+000
      vertex 3.372208e+000 5.277685e+000 3.332898e+000
      vertex 3.372208e+000 5.277685e+000 5.332898e+000
    endloop
  endfacet
  facet normal 8.191520e-001 -5.735764e-001 5.796958e-016
    outer loop
      vertex 3.372208e+000 5.277685e+000 3.332898e+000
      vertex 3.422198e+000 5.349079e+000 3.332898e+000
      vertex 3.422198e+000 5.349079e+000 5.332898e+000
    endloop
  endfacet
  facet normal 7.071068e-001 -7.071068e-001 6.269672e-016
    outer loop
      vertex 3.422198e+000 5.349079e+000 3.332898e+000
      vertex 3.483827e+000 5.410707e+000 3.332898e+000
      vertex 3.483827e+000 5.410707e+000 5.332898e+000
    endloop
  endfacet
  facet normal 5.735764e-001 -8.191520e-001 5.274486e-016
    outer loop
      vertex 3.483827e+000 5.410707e+000 3.332898e+000
      vertex 3.555220e+000 5.460698e+000 3.332898e+000
      vertex 3.555220e+000 5.460698e+000 5.332898e+000
    endloop
  endfacet
  facet normal 4.226183e-001 -9.063078e-001 8.036127e-016
    outer loop
      vertex 3.555220e+000 5.460698e+000 3.332898e+000
      vertex 3.634210e+000 5.497531e+000 3.332898e+000
      vertex 3.634210e+000 5.497531e+000 5.332898e+000
    endloop
  endfacet
  facet normal 2.588190e-001 -9.659258e-001 4.951050e-016
    outer loop
      vertex 3.634210e+000 5.497531e+000 3.332898e+000
      vertex 3.718396e+000 5.520089e+000 3.332898e+000
      vertex 3.718396e+000 5.520089e+000 5.332898e+000
    endloop
  endfacet
  facet normal 8.715574e-002 -9.961947e-001 5.995996e-016
    outer loop
      vertex 3.718396e+000 5.520089e+000 3.332898e+000
      vertex 3.805220e+000 5.527685e+000 3.332898e+000
      vertex 3.805220e+000 5.527685e+000 5.332898e+000
    endloop
  endfacet
  facet normal -8.715574e-002 -9.961947e-001 2.848720e-016
    outer loop
      vertex 3.805220e+000 5.527685e+000 3.332898e+000
      vertex 3.892045e+000 5.520089e+000 3.332898e+000
      vertex 3.892045e+000 5.520089e+000 5.332898e+000
    endloop
  endfacet
  facet normal -2.588190e-001 -9.659258e-001 8.496400e-016
    outer loop
      vertex 3.892045e+000 5.520089e+000 3.332898e+000
      vertex 3.976231e+000 5.497531e+000 3.332898e+000
      vertex 3.976231e+000 5.497531e+000 5.332898e+000
    endloop
  endfacet
  facet normal -4.226183e-001 -9.063078e-001 7.787330e-016
    outer loop
      vertex 3.976231e+000 5.497531e+000 3.332898e+000
      vertex 4.055220e+000 5.460698e+000 3.332898e+000
      vertex 4.055220e+000 5.460698e+000 5.332898e+000
    endloop
  endfacet
  facet normal -5.735764e-001 -8.191520e-001 5.796958e-016
    outer loop
      vertex 4.055220e+000 5.460698e+000 3.332898e+000
      vertex 4.126614e+000 5.410707e+000 3.332898e+000
      vertex 4.126614e+000 5.410707e+000 5.332898e+000
    endloop
  endfacet
  facet normal -7.071068e-001 -7.071068e-001 9.404508e-016
    outer loop
      vertex 4.126614e+000 5.410707e+000 3.332898e+000
      vertex 4.188243e+000 5.349079e+000 3.332898e+000
      vertex 4.188243e+000 5.349079e+000 5.332898e+000
    endloop
  endfacet
  facet normal -8.191520e-001 -5.735764e-001 6.543348e-016
    outer loop
      vertex 4.188243e+000 5.349079e+000 3.332898e+000
      vertex 4.238233e+000 5.277685e+000 3.332898e+000
      vertex 4.238233e+000 5.277685e+000 5.332898e+000
    endloop
  endfacet
  facet normal -9.063078e-001 -4.226183e-001 8.036127e-016
    outer loop
      vertex 4.238233e+000 5.277685e+000 3.332898e+000
      vertex 4.275067e+000 5.198695e+000 3.332898e+000
      vertex 4.275067e+000 5.198695e+000 5.332898e+000
    endloop
  endfacet
  facet normal 0.000000e+000 -8.000000e-001 6.000000e-001
    outer loop
      vertex 6.805220e+000 4.027685e+000 6.332898e+000
      vertex 8.052205e-001 4.027685e+000 6.332898e+000
      vertex 6.805220e+000 2.527685e+000 4.332898e+000
    endloop
  endfacet
  facet normal 0.000000e+000 -8.000000e-001 6.000000e-001
    outer loop
      vertex 6.805220e+000 2.527685e+000 4.332898e+000
      vertex 8.052205e-001 4.027685e+000 6.332898e+000
      vertex 8.052205e-001 2.527685e+000 4.332898e+000
    endloop
  endfacet
  facet normal 0.000000e+000 -1.000000e+000 0.000000e+000
    outer loop
      vertex 6.805220e+000 2.527685e+000 4.332898e+000
      vertex 8.052205e-001 2.527685e+000 4.332898e+000
      vertex 8.052205e-001 2.527685e+000 3.332898e+000
    endloop
  endfacet
  facet normal 0.000000e+000 -1.000000e+000 0.000000e+000
    outer loop
      vertex 6.805220e+000 2.527685e+000 3.332898e+000
      vertex 6.805220e+000 2.527685e+000 4.332898e+000
      vertex 8.052205e-001 2.527685e+000 3.332898e+000
    endloop
  endfacet
  facet normal -1.000000e+000 0.000000e+000 0.000000e+000
    outer loop
      vertex 8.052205e-001 2.527685e+000 4.332898e+000
      vertex 8.052205e-001 4.027685e+000 6.332898e+000
      vertex 8.052205e-001 6.527685e+000 3.332898e+000
    endloop
  endfacet
  facet normal -1.000000e+000 0.000000e+000 0.000000e+000
    outer loop
      vertex 8.052205e-001 2.527685e+000 3.332898e+000
      vertex 8.052205e-001 2.527685e+000 4.332898e+000
      vertex 8.052205e-001 6.527685e+000 3.332898e+000
    endloop
  endfacet
  facet normal -1.000000e+000 0.000000e+000 0.000000e+000
    outer loop
      vertex 8.052205e-001 4.027685e+000 6.332898e+000
      vertex 8.052205e-001 6.527685e+000 6.332898e+000
      vertex 8.052205e-001 6.527685e+000 3.332898e+000
    endloop
  endfacet
  facet normal 8.715574e-002 9.961947e-001 0.000000e+000
    outer loop
      vertex 5.805220e+000 7.527685e+000 3.332898e+000
      vertex 5.805220e+000 7.527685e+000 6.332898e+000
      vertex 5.978869e+000 7.512493e+000 3.332898e+000
    endloop
  endfacet
  facet normal 8.715574e-002 9.961947e-001 0.000000e+000
    outer loop
      vertex 5.978869e+000 7.512493e+000 3.332898e+000
      vertex 5.805220e+000 7.527685e+000 6.332898e+000
      vertex 5.978869e+000 7.512493e+000 6.332898e+000
    endloop
  endfacet
  facet normal 2.588190e-001 9.659258e-001 0.000000e+000
    outer loop
      vertex 6.147241e+000 7.467378e+000 3.332898e+000
      vertex 5.978869e+000 7.512493e+000 6.332898e+000
      vertex 6.147241e+000 7.467378e+000 6.332898e+000
    endloop
  endfacet
  facet normal 4.226183e-001 9.063078e-001 0.000000e+000
    outer loop
      vertex 6.305220e+000 7.393710e+000 3.332898e+000
      vertex 6.147241e+000 7.467378e+000 6.332898e+000
      vertex 6.305220e+000 7.393710e+000 6.332898e+000
    endloop
  endfacet
  facet normal 5.735764e-001 8.191520e-001 0.000000e+000
    outer loop
      vertex 6.448008e+000 7.293729e+000 3.332898e+000
      vertex 6.305220e+000 7.393710e+000 6.332898e+000
      vertex 6.448008e+000 7.293729e+000 6.332898e+000
    endloop
  endfacet
  facet normal 7.071068e-001 7.071068e-001 0.000000e+000
    outer loop
      vertex 6.571265e+000 7.170473e+000 3.332898e+000
      vertex 6.448008e+000 7.293729e+000 6.332898e+000
      vertex 6.571265e+000 7.170473e+000 6.332898e+000
    endloop
  endfacet
  facet normal 8.191520e-001 5.735764e-001 0.000000e+000
    outer loop
      vertex 6.671246e+000 7.027685e+000 3.332898e+000
      vertex 6.571265e+000 7.170473e+000 6.332898e+000
      vertex 6.671246e+000 7.027685e+000 6.332898e+000
    endloop
  endfacet
  facet normal 9.063078e-001 4.226183e-001 0.000000e+000
    outer loop
      vertex 6.744913e+000 6.869705e+000 3.332898e+000
      vertex 6.671246e+000 7.027685e+000 6.332898e+000
      vertex 6.744913e+000 6.869705e+000 6.332898e+000
    endloop
  endfacet
  facet normal 9.659258e-001 2.588190e-001 0.000000e+000
    outer loop
      vertex 6.790028e+000 6.701333e+000 3.332898e+000
      vertex 6.744913e+000 6.869705e+000 6.332898e+000
      vertex 6.790028e+000 6.701333e+000 6.332898e+000
    endloop
  endfacet
  facet normal 9.961947e-001 8.715574e-002 0.000000e+000
    outer loop
      vertex 6.805220e+000 6.527685e+000 3.332898e+000
      vertex 6.790028e+000 6.701333e+000 6.332898e+000
      vertex 6.805220e+000 6.527685e+000 6.332898e+000
    endloop
  endfacet
  facet normal 9.961947e-001 8.715574e-002 0.000000e+000
    outer loop
      vertex 6.805220e+000 6.527685e+000 3.332898e+000
      vertex 6.790028e+000 6.701333e+000 3.332898e+000
      vertex 6.790028e+000 6.701333e+000 6.332898e+000
    endloop
  endfacet
  facet normal 9.659258e-001 2.588190e-001 0.000000e+000
    outer loop
      vertex 6.790028e+000 6.701333e+000 3.332898e+000
      vertex 6.744913e+000 6.869705e+000 3.332898e+000
      vertex 6.744913e+000 6.869705e+000 6.332898e+000
    endloop
  endfacet
  facet normal 9.063078e-001 4.226183e-001 0.000000e+000
    outer loop
      vertex 6.744913e+000 6.869705e+000 3.332898e+000
      vertex 6.671246e+000 7.027685e+000 3.332898e+000
      vertex 6.671246e+000 7.027685e+000 6.332898e+000
    endloop
  endfacet
  facet normal 8.191520e-001 5.735764e-001 0.000000e+000
    outer loop
      vertex 6.671246e+000 7.027685e+000 3.332898e+000
      vertex 6.571265e+000 7.170473e+000 3.332898e+000
      vertex 6.571265e+000 7.170473e+000 6.332898e+000
    endloop
  endfacet
  facet normal 7.071068e-001 7.071068e-001 0.000000e+000
    outer loop
      vertex 6.571265e+000 7.170473e+000 3.332898e+000
      vertex 6.448008e+000 7.293729e+000 3.332898e+000
      vertex 6.448008e+000 7.293729e+000 6.332898e+000
    endloop
  endfacet
  facet normal 5.735764e-001 8.191520e-001 0.000000e+000
    outer loop
      vertex 6.448008e+000 7.293729e+000 3.332898e+000
      vertex 6.305220e+000 7.393710e+000 3.332898e+000
      vertex 6.305220e+000 7.393710e+000 6.332898e+000
    endloop
  endfacet
  facet normal 4.226183e-001 9.063078e-001 0.000000e+000
    outer loop
      vertex 6.305220e+000 7.393710e+000 3.332898e+000
      vertex 6.147241e+000 7.467378e+000 3.332898e+000
      vertex 6.147241e+000 7.467378e+000 6.332898e+000
    endloop
  endfacet
  facet normal 2.588190e-001 9.659258e-001 0.000000e+000
    outer loop
      vertex 6.147241e+000 7.467378e+000 3.332898e+000
      vertex 5.978869e+000 7.512493e+000 3.332898e+000
      vertex 5.978869e+000 7.512493e+000 6.332898e+000
    endloop
  endfacet
  facet normal -9.961947e-001 8.715574e-002 0.000000e+000
    outer loop
      vertex 8.052205e-001 6.527685e+000 3.332898e+000
      vertex 8.052205e-001 6.527685e+000 6.332898e+000
      vertex 8.204127e-001 6.701333e+000 3.332898e+000
    endloop
  endfacet
  facet normal -9.961947e-001 8.715574e-002 0.000000e+000
    outer loop
      vertex 8.204127e-001 6.701333e+000 3.332898e+000
      vertex 8.052205e-001 6.527685e+000 6.332898e+000
      vertex 8.204127e-001 6.701333e+000 6.332898e+000
    endloop
  endfacet
  facet normal -9.659258e-001 2.588190e-001 0.000000e+000
    outer loop
      vertex 8.655279e-001 6.869705e+000 3.332898e+000
      vertex 8.204127e-001 6.701333e+000 6.332898e+000
      vertex 8.655279e-001 6.869705e+000 6.332898e+000
    endloop
  endfacet
  facet normal -9.063078e-001 4.226183e-001 0.000000e+000
    outer loop
      vertex 9.391951e-001 7.027685e+000 6.332898e+000
      vertex 8.655279e-001 6.869705e+000 3.332898e+000
      vertex 8.655279e-001 6.869705e+000 6.332898e+000
    endloop
  endfacet
  facet normal -9.063078e-001 4.226183e-001 -3.354013e-017
    outer loop
      vertex 9.391951e-001 7.027685e+000 6.332898e+000
      vertex 9.391951e-001 7.027685e+000 3.332898e+000
      vertex 8.655279e-001 6.869705e+000 3.332898e+000
    endloop
  endfacet
  facet normal -8.191520e-001 5.735764e-001 -3.031472e-017
    outer loop
      vertex 9.391951e-001 7.027685e+000 6.332898e+000
      vertex 1.039176e+000 7.170473e+000 6.332898e+000
      vertex 9.391951e-001 7.027685e+000 3.332898e+000
    endloop
  endfacet
  facet normal -8.191520e-001 5.735764e-001 0.000000e+000
    outer loop
      vertex 9.391951e-001 7.027685e+000 3.332898e+000
      vertex 1.039176e+000 7.170473e+000 6.332898e+000
      vertex 1.039176e+000 7.170473e+000 3.332898e+000
    endloop
  endfacet
  facet normal -7.071068e-001 7.071068e-001 0.000000e+000
    outer loop
      vertex 1.039176e+000 7.170473e+000 3.332898e+000
      vertex 1.039176e+000 7.170473e+000 6.332898e+000
      vertex 1.162433e+000 7.293729e+000 3.332898e+000
    endloop
  endfacet
  facet normal -7.071068e-001 7.071068e-001 0.000000e+000
    outer loop
      vertex 1.162433e+000 7.293729e+000 3.332898e+000
      vertex 1.039176e+000 7.170473e+000 6.332898e+000
      vertex 1.162433e+000 7.293729e+000 6.332898e+000
    endloop
  endfacet
  facet normal -5.735764e-001 8.191520e-001 0.000000e+000
    outer loop
      vertex 1.305220e+000 7.393710e+000 6.332898e+000
      vertex 1.162433e+000 7.293729e+000 3.332898e+000
      vertex 1.162433e+000 7.293729e+000 6.332898e+000
    endloop
  endfacet
  facet normal -5.735764e-001 8.191520e-001 -4.245318e-017
    outer loop
      vertex 1.305220e+000 7.393710e+000 6.332898e+000
      vertex 1.305220e+000 7.393710e+000 3.332898e+000
      vertex 1.162433e+000 7.293729e+000 3.332898e+000
    endloop
  endfacet
  facet normal -4.226183e-001 9.063078e-001 -3.128003e-017
    outer loop
      vertex 1.305220e+000 7.393710e+000 6.332898e+000
      vertex 1.463200e+000 7.467378e+000 6.332898e+000
      vertex 1.305220e+000 7.393710e+000 3.332898e+000
    endloop
  endfacet
  facet normal -4.226183e-001 9.063078e-001 0.000000e+000
    outer loop
      vertex 1.305220e+000 7.393710e+000 3.332898e+000
      vertex 1.463200e+000 7.467378e+000 6.332898e+000
      vertex 1.463200e+000 7.467378e+000 3.332898e+000
    endloop
  endfacet
  facet normal -2.588190e-001 9.659258e-001 0.000000e+000
    outer loop
      vertex 1.463200e+000 7.467378e+000 3.332898e+000
      vertex 1.463200e+000 7.467378e+000 6.332898e+000
      vertex 1.631572e+000 7.512493e+000 3.332898e+000
    endloop
  endfacet
  facet normal -2.588190e-001 9.659258e-001 0.000000e+000
    outer loop
      vertex 1.631572e+000 7.512493e+000 3.332898e+000
      vertex 1.463200e+000 7.467378e+000 6.332898e+000
      vertex 1.631572e+000 7.512493e+000 6.332898e+000
    endloop
  endfacet
  facet normal -8.715574e-002 9.961947e-001 0.000000e+000
    outer loop
      vertex 1.805220e+000 7.527685e+000 3.332898e+000
      vertex 1.631572e+000 7.512493e+000 6.332898e+000
      vertex 1.805220e+000 7.527685e+000 6.332898e+000
    endloop
  endfacet
  facet normal -8.715574e-002 9.961947e-001 0.000000e+000
    outer loop
      vertex 1.805220e+000 7.527685e+000 3.332898e+000
      vertex 1.631572e+000 7.512493e+000 3.332898e+000
      vertex 1.631572e+000 7.512493e+000 6.332898e+000
    endloop
  endfacet
  facet normal -9.659258e-001 2.588190e-001 0.000000e+000
    outer loop
      vertex 8.655279e-001 6.869705e+000 3.332898e+000
      vertex 8.204127e-001 6.701333e+000 3.332898e+000
      vertex 8.204127e-001 6.701333e+000 6.332898e+000
    endloop
  endfacet
  facet normal 0.000000e+000 1.000000e+000 0.000000e+000
    outer loop
      vertex 5.805220e+000 7.527685e+000 6.332898e+000
      vertex 5.805220e+000 7.527685e+000 3.332898e+000
      vertex 1.805220e+000 7.527685e+000 6.332898e+000
    endloop
  endfacet
  facet normal 0.000000e+000 1.000000e+000 0.000000e+000
    outer loop
      vertex 1.805220e+000 7.527685e+000 6.332898e+000
      vertex 5.805220e+000 7.527685e+000 3.332898e+000
      vertex 1.805220e+000 7.527685e+000 3.332898e+000
    endloop
  endfacet
  facet normal 0.000000e+000 0.000000e+000 -1.000000e+000
    outer loop
      vertex 4.305220e+000 5.027685e+000 3.332898e+000
      vertex 4.297624e+000 5.114509e+000 3.332898e+000
      vertex 6.805220e+000 6.527685e+000 3.332898e+000
    endloop
  endfacet
  facet normal 0.000000e+000 0.000000e+000 -1.000000e+000
    outer loop
      vertex 4.297624e+000 4.940861e+000 3.332898e+000
      vertex 6.805220e+000 6.527685e+000 3.332898e+000
      vertex 6.805220e+000 2.527685e+000 3.332898e+000
    endloop
  endfacet
  facet normal 0.000000e+000 0.000000e+000 -1.000000e+000
    outer loop
      vertex 4.275067e+000 4.856675e+000 3.332898e+000
      vertex 6.805220e+000 2.527685e+000 3.332898e+000
      vertex 4.238233e+000 4.777685e+000 3.332898e+000
    endloop
  endfacet
  facet normal 0.000000e+000 0.000000e+000 -1.000000e+000
    outer loop
      vertex 4.275067e+000 4.856675e+000 3.332898e+000
      vertex 4.297624e+000 4.940861e+000 3.332898e+000
      vertex 6.805220e+000 2.527685e+000 3.332898e+000
    endloop
  endfacet
  facet normal 0.000000e+000 0.000000e+000 -1.000000e+000
    outer loop
      vertex 4.275067e+000 5.198695e+000 3.332898e+000
      vertex 6.805220e+000 6.527685e+000 3.332898e+000
      vertex 4.297624e+000 5.114509e+000 3.332898e+000
    endloop
  endfacet
  facet normal 0.000000e+000 0.000000e+000 -1.000000e+000
    outer loop
      vertex 4.275067e+000 5.198695e+000 3.332898e+000
      vertex 4.238233e+000 5.277685e+000 3.332898e+000
      vertex 6.805220e+000 6.527685e+000 3.332898e+000
    endloop
  endfacet
  facet normal 0.000000e+000 0.000000e+000 -1.000000e+000
    outer loop
      vertex 6.805220e+000 6.527685e+000 3.332898e+000
      vertex 4.238233e+000 5.277685e+000 3.332898e+000
      vertex 4.188243e+000 5.349079e+000 3.332898e+000
    endloop
  endfacet
  facet normal 0.000000e+000 0.000000e+000 -1.000000e+000
    outer loop
      vertex 4.126614e+000 5.410707e+000 3.332898e+000
      vertex 6.805220e+000 6.527685e+000 3.332898e+000
      vertex 4.188243e+000 5.349079e+000 3.332898e+000
    endloop
  endfacet
  facet normal 0.000000e+000 0.000000e+000 -1.000000e+000
    outer loop
      vertex 4.126614e+000 5.410707e+000 3.332898e+000
      vertex 5.805220e+000 7.527685e+000 3.332898e+000
      vertex 6.805220e+000 6.527685e+000 3.332898e+000
    endloop
  endfacet
  facet normal 0.000000e+000 0.000000e+000 -1.000000e+000
    outer loop
      vertex 4.126614e+000 5.410707e+000 3.332898e+000
      vertex 4.055220e+000 5.460698e+000 3.332898e+000
      vertex 5.805220e+000 7.527685e+000 3.332898e+000
    endloop
  endfacet
  facet normal 0.000000e+000 0.000000e+000 -1.000000e+000
    outer loop
      vertex 5.805220e+000 7.527685e+000 3.332898e+000
      vertex 4.055220e+000 5.460698e+000 3.332898e+000
      vertex 3.976231e+000 5.497531e+000 3.332898e+000
    endloop
  endfacet
  facet normal 0.000000e+000 0.000000e+000 -1.000000e+000
    outer loop
      vertex 3.892045e+000 5.520089e+000 3.332898e+000
      vertex 5.805220e+000 7.527685e+000 3.332898e+000
      vertex 3.976231e+000 5.497531e+000 3.332898e+000
    endloop
  endfacet
  facet normal 0.000000e+000 0.000000e+000 -1.000000e+000
    outer loop
      vertex 3.892045e+000 5.520089e+000 3.332898e+000
      vertex 3.805220e+000 5.527685e+000 3.332898e+000
      vertex 5.805220e+000 7.527685e+000 3.332898e+000
    endloop
  endfacet
  facet normal 0.000000e+000 0.000000e+000 -1.000000e+000
    outer loop
      vertex 5.805220e+000 7.527685e+000 3.332898e+000
      vertex 3.805220e+000 5.527685e+000 3.332898e+000
      vertex 1.805220e+000 7.527685e+000 3.332898e+000
    endloop
  endfacet
  facet normal 0.000000e+000 0.000000e+000 -1.000000e+000
    outer loop
      vertex 1.805220e+000 7.527685e+000 3.332898e+000
      vertex 3.805220e+000 5.527685e+000 3.332898e+000
      vertex 3.718396e+000 5.520089e+000 3.332898e+000
    endloop
  endfacet
  facet normal 0.000000e+000 0.000000e+000 -1.000000e+000
    outer loop
      vertex 3.634210e+000 5.497531e+000 3.332898e+000
      vertex 1.805220e+000 7.527685e+000 3.332898e+000
      vertex 3.718396e+000 5.520089e+000 3.332898e+000
    endloop
  endfacet
  facet normal 0.000000e+000 0.000000e+000 -1.000000e+000
    outer loop
      vertex 3.634210e+000 5.497531e+000 3.332898e+000
      vertex 3.555220e+000 5.460698e+000 3.332898e+000
      vertex 1.805220e+000 7.527685e+000 3.332898e+000
    endloop
  endfacet
  facet normal 0.000000e+000 0.000000e+000 -1.000000e+000
    outer loop
      vertex 1.805220e+000 7.527685e+000 3.332898e+000
      vertex 3.555220e+000 5.460698e+000 3.332898e+000
      vertex 3.483827e+000 5.410707e+000 3.332898e+000
    endloop
  endfacet
  facet normal 0.000000e+000 0.000000e+000 -1.000000e+000
    outer loop
      vertex 8.052205e-001 6.527685e+000 3.332898e+000
      vertex 3.483827e+000 5.410707e+000 3.332898e+000
      vertex 3.422198e+000 5.349079e+000 3.332898e+000
    endloop
  endfacet
  facet normal 0.000000e+000 0.000000e+000 -1.000000e+000
    outer loop
      vertex 3.372208e+000 5.277685e+000 3.332898e+000
      vertex 8.052205e-001 6.527685e+000 3.332898e+000
      vertex 3.422198e+000 5.349079e+000 3.332898e+000
    endloop
  endfacet
  facet normal 0.000000e+000 0.000000e+000 -1.000000e+000
    outer loop
      vertex 3.372208e+000 5.277685e+000 3.332898e+000
      vertex 3.335374e+000 5.198695e+000 3.332898e+000
      vertex 8.052205e-001 6.527685e+000 3.332898e+000
    endloop
  endfacet
  facet normal 0.000000e+000 0.000000e+000 -1.000000e+000
    outer loop
      vertex 8.052205e-001 6.527685e+000 3.332898e+000
      vertex 3.335374e+000 5.198695e+000 3.332898e+000
      vertex 3.312817e+000 5.114509e+000 3.332898e+000
    endloop
  endfacet
  facet normal 0.000000e+000 0.000000e+000 -1.000000e+000
    outer loop
      vertex 3.305220e+000 5.027685e+000 3.332898e+000
      vertex 8.052205e-001 6.527685e+000 3.332898e+000
      vertex 3.312817e+000 5.114509e+000 3.332898e+000
    endloop
  endfacet
  facet normal 0.000000e+000 0.000000e+000 -1.000000e+000
    outer loop
      vertex 3.305220e+000 5.027685e+000 3.332898e+000
      vertex 3.312817e+000 4.940861e+000 3.332898e+000
      vertex 8.052205e-001 6.527685e+000 3.332898e+000
    endloop
  endfacet
  facet normal 0.000000e+000 0.000000e+000 -1.000000e+000
    outer loop
      vertex 8.052205e-001 6.527685e+000 3.332898e+000
      vertex 3.312817e+000 4.940861e+000 3.332898e+000
      vertex 8.052205e-001 2.527685e+000 3.332898e+000
    endloop
  endfacet
  facet normal 0.000000e+000 0.000000e+000 -1.000000e+000
    outer loop
      vertex 8.052205e-001 2.527685e+000 3.332898e+000
      vertex 3.312817e+000 4.940861e+000 3.332898e+000
      vertex 3.335374e+000 4.856675e+000 3.332898e+000
    endloop
  endfacet
  facet normal 0.000000e+000 0.000000e+000 -1.000000e+000
    outer loop
      vertex 3.372208e+000 4.777685e+000 3.332898e+000
      vertex 8.052205e-001 2.527685e+000 3.332898e+000
      vertex 3.335374e+000 4.856675e+000 3.332898e+000
    endloop
  endfacet
  facet normal 0.000000e+000 0.000000e+000 -1.000000e+000
    outer loop
      vertex 3.372208e+000 4.777685e+000 3.332898e+000
      vertex 3.422198e+000 4.706291e+000 3.332898e+000
      vertex 8.052205e-001 2.527685e+000 3.332898e+000
    endloop
  endfacet
  facet normal 0.000000e+000 0.000000e+000 -1.000000e+000
    outer loop
      vertex 8.052205e-001 2.527685e+000 3.332898e+000
      vertex 3.422198e+000 4.706291e+000 3.332898e+000
      vertex 3.483827e+000 4.644663e+000 3.332898e+000
    endloop
  endfacet
  facet normal 0.000000e+000 0.000000e+000 -1.000000e+000
    outer loop
      vertex 3.555220e+000 4.594672e+000 3.332898e+000
      vertex 8.052205e-001 2.527685e+000 3.332898e+000
      vertex 3.483827e+000 4.644663e+000 3.332898e+000
    endloop
  endfacet
  facet normal 0.000000e+000 0.000000e+000 -1.000000e+000
    outer loop
      vertex 3.555220e+000 4.594672e+000 3.332898e+000
      vertex 3.634210e+000 4.557839e+000 3.332898e+000
      vertex 8.052205e-001 2.527685e+000 3.332898e+000
    endloop
  endfacet
  facet normal 0.000000e+000 0.000000e+000 -1.000000e+000
    outer loop
      vertex 8.052205e-001 2.527685e+000 3.332898e+000
      vertex 3.634210e+000 4.557839e+000 3.332898e+000
      vertex 3.718396e+000 4.535281e+000 3.332898e+000
    endloop
  endfacet
  facet normal 0.000000e+000 0.000000e+000 -1.000000e+000
    outer loop
      vertex 3.805220e+000 4.527685e+000 3.332898e+000
      vertex 8.052205e-001 2.527685e+000 3.332898e+000
      vertex 3.718396e+000 4.535281e+000 3.332898e+000
    endloop
  endfacet
  facet normal 0.000000e+000 0.000000e+000 -1.000000e+000
    outer loop
      vertex 3.805220e+000 4.527685e+000 3.332898e+000
      vertex 6.805220e+000 2.527685e+000 3.332898e+000
      vertex 8.052205e-001 2.527685e+000 3.332898e+000
    endloop
  endfacet
  facet normal 0.000000e+000 0.000000e+000 -1.000000e+000
    outer loop
      vertex 3.805220e+000 4.527685e+000 3.332898e+000
      vertex 3.892045e+000 4.535281e+000 3.332898e+000
      vertex 6.805220e+000 2.527685e+000 3.332898e+000
    endloop
  endfacet
  facet normal 0.000000e+000 0.000000e+000 -1.000000e+000
    outer loop
      vertex 6.805220e+000 2.527685e+000 3.332898e+000
      vertex 3.892045e+000 4.535281e+000 3.332898e+000
      vertex 3.976231e+000 4.557839e+000 3.332898e+000
    endloop
  endfacet
  facet normal 0.000000e+000 0.000000e+000 -1.000000e+000
    outer loop
      vertex 4.055220e+000 4.594672e+000 3.332898e+000
      vertex 6.805220e+000 2.527685e+000 3.332898e+000
      vertex 3.976231e+000 4.557839e+000 3.332898e+000
    endloop
  endfacet
  facet normal 0.000000e+000 0.000000e+000 -1.000000e+000
    outer loop
      vertex 4.055220e+000 4.594672e+000 3.332898e+000
      vertex 4.126614e+000 4.644663e+000 3.332898e+000
      vertex 6.805220e+000 2.527685e+000 3.332898e+000
    endloop
  endfacet
  facet normal 0.000000e+000 0.000000e+000 -1.000000e+000
    outer loop
      vertex 6.805220e+000 2.527685e+000 3.332898e+000
      vertex 4.126614e+000 4.644663e+000 3.332898e+000
      vertex 4.188243e+000 4.706291e+000 3.332898e+000
    endloop
  endfacet
  facet normal 0.000000e+000 0.000000e+000 -1.000000e+000
    outer loop
      vertex 4.238233e+000 4.777685e+000 3.332898e+000
      vertex 6.805220e+000 2.527685e+000 3.332898e+000
      vertex 4.188243e+000 4.706291e+000 3.332898e+000
    endloop
  endfacet
  facet normal 0.000000e+000 0.000000e+000 -1.000000e+000
    outer loop
      vertex 4.305220e+000 5.027685e+000 3.332898e+000
      vertex 6.805220e+000 6.527685e+000 3.332898e+000
      vertex 4.297624e+000 4.940861e+000 3.332898e+000
    endloop
  endfacet
  facet normal 0.000000e+000 0.000000e+000 -1.000000e+000
    outer loop
      vertex 6.147241e+000 7.467378e+000 3.332898e+000
      vertex 5.805220e+000 7.527685e+000 3.332898e+000
      vertex 5.978869e+000 7.512493e+000 3.332898e+000
    endloop
  endfacet
  facet normal 0.000000e+000 0.000000e+000 -1.000000e+000
    outer loop
      vertex 6.147241e+000 7.467378e+000 3.332898e+000
      vertex 6.305220e+000 7.393710e+000 3.332898e+000
      vertex 5.805220e+000 7.527685e+000 3.332898e+000
    endloop
  endfacet
  facet normal 0.000000e+000 0.000000e+000 -1.000000e+000
    outer loop
      vertex 5.805220e+000 7.527685e+000 3.332898e+000
      vertex 6.305220e+000 7.393710e+000 3.332898e+000
      vertex 6.448008e+000 7.293729e+000 3.332898e+000
    endloop
  endfacet
  facet normal 0.000000e+000 0.000000e+000 -1.000000e+000
    outer loop
      vertex 6.571265e+000 7.170473e+000 3.332898e+000
      vertex 5.805220e+000 7.527685e+000 3.332898e+000
      vertex 6.448008e+000 7.293729e+000 3.332898e+000
    endloop
  endfacet
  facet normal 0.000000e+000 0.000000e+000 -1.000000e+000
    outer loop
      vertex 6.571265e+000 7.170473e+000 3.332898e+000
      vertex 6.671246e+000 7.027685e+000 3.332898e+000
      vertex 5.805220e+000 7.527685e+000 3.332898e+000
    endloop
  endfacet
  facet normal 0.000000e+000 0.000000e+000 -1.000000e+000
    outer loop
      vertex 5.805220e+000 7.527685e+000 3.332898e+000
      vertex 6.671246e+000 7.027685e+000 3.332898e+000
      vertex 6.744913e+000 6.869705e+000 3.332898e+000
    endloop
  endfacet
  facet normal 0.000000e+000 0.000000e+000 -1.000000e+000
    outer loop
      vertex 6.790028e+000 6.701333e+000 3.332898e+000
      vertex 5.805220e+000 7.527685e+000 3.332898e+000
      vertex 6.744913e+000 6.869705e+000 3.332898e+000
    endloop
  endfacet
  facet normal 0.000000e+000 0.000000e+000 -1.000000e+000
    outer loop
      vertex 6.790028e+000 6.701333e+000 3.332898e+000
      vertex 6.805220e+000 6.527685e+000 3.332898e+000
      vertex 5.805220e+000 7.527685e+000 3.332898e+000
    endloop
  endfacet
  facet normal 0.000000e+000 0.000000e+000 -1.000000e+000
    outer loop
      vertex 8.052205e-001 6.527685e+000 3.332898e+000
      vertex 8.204127e-001 6.701333e+000 3.332898e+000
      vertex 1.805220e+000 7.527685e+000 3.332898e+000
    endloop
  endfacet
  facet normal 0.000000e+000 0.000000e+000 -1.000000e+000
    outer loop
      vertex 3.483827e+000 5.410707e+000 3.332898e+000
      vertex 8.052205e-001 6.527685e+000 3.332898e+000
      vertex 1.805220e+000 7.527685e+000 3.332898e+000
    endloop
  endfacet
  facet normal 0.000000e+000 0.000000e+000 -1.000000e+000
    outer loop
      vertex 8.655279e-001 6.869705e+000 3.332898e+000
      vertex 1.805220e+000 7.527685e+000 3.332898e+000
      vertex 8.204127e-001 6.701333e+000 3.332898e+000
    endloop
  endfacet
  facet normal 0.000000e+000 0.000000e+000 -1.000000e+000
    outer loop
      vertex 8.655279e-001 6.869705e+000 3.332898e+000
      vertex 9.391951e-001 7.027685e+000 3.332898e+000
      vertex 1.805220e+000 7.527685e+000 3.332898e+000
    endloop
  endfacet
  facet normal 0.000000e+000 0.000000e+000 -1.000000e+000
    outer loop
      vertex 1.805220e+000 7.527685e+000 3.332898e+000
      vertex 9.391951e-001 7.027685e+000 3.332898e+000
      vertex 1.039176e+000 7.170473e+000 3.332898e+000
    endloop
  endfacet
  facet normal 0.000000e+000 0.000000e+000 -1.000000e+000
    outer loop
      vertex 1.162433e+000 7.293729e+000 3.332898e+000
      vertex 1.805220e+000 7.527685e+000 3.332898e+000
      vertex 1.039176e+000 7.170473e+000 3.332898e+000
    endloop
  endfacet
  facet normal 0.000000e+000 0.000000e+000 -1.000000e+000
    outer loop
      vertex 1.162433e+000 7.293729e+000 3.332898e+000
      vertex 1.305220e+000 7.393710e+000 3.332898e+000
      vertex 1.805220e+000 7.527685e+000 3.332898e+000
    endloop
  endfacet
  facet normal 0.000000e+000 0.000000e+000 -1.000000e+000
    outer loop
      vertex 1.805220e+000 7.527685e+000 3.332898e+000
      vertex 1.305220e+000 7.393710e+000 3.332898e+000
      vertex 1.463200e+000 7.467378e+000 3.332898e+000
    endloop
  endfacet
  facet normal 0.000000e+000 0.000000e+000 -1.000000e+000
    outer loop
      vertex 1.631572e+000 7.512493e+000 3.332898e+000
      vertex 1.805220e+000 7.527685e+000 3.332898e+000
      vertex 1.463200e+000 7.467378e+000 3.332898e+000
    endloop
  endfacet
  facet normal 0.000000e+000 0.000000e+000 1.000000e+000
    outer loop
      vertex 4.555220e+000 5.027685e+000 6.332898e+000
      vertex 4.543826e+000 4.897449e+000 6.332898e+000
      vertex 6.805220e+000 4.027685e+000 6.332898e+000
    endloop
  endfacet
  facet normal 0.000000e+000 0.000000e+000 1.000000e+000
    outer loop
      vertex 4.543826e+000 5.157921e+000 6.332898e+000
      vertex 6.805220e+000 4.027685e+000 6.332898e+000
      vertex 6.805220e+000 6.527685e+000 6.332898e+000
    endloop
  endfacet
  facet normal 0.000000e+000 0.000000e+000 1.000000e+000
    outer loop
      vertex 4.509990e+000 5.284200e+000 6.332898e+000
      vertex 6.805220e+000 6.527685e+000 6.332898e+000
      vertex 4.454740e+000 5.402685e+000 6.332898e+000
    endloop
  endfacet
  facet normal 0.000000e+000 0.000000e+000 1.000000e+000
    outer loop
      vertex 4.509990e+000 5.284200e+000 6.332898e+000
      vertex 4.543826e+000 5.157921e+000 6.332898e+000
      vertex 6.805220e+000 6.527685e+000 6.332898e+000
    endloop
  endfacet
  facet normal 0.000000e+000 0.000000e+000 1.000000e+000
    outer loop
      vertex 4.543826e+000 4.897449e+000 6.332898e+000
      vertex 4.509990e+000 4.771170e+000 6.332898e+000
      vertex 6.805220e+000 4.027685e+000 6.332898e+000
    endloop
  endfacet
  facet normal 0.000000e+000 0.000000e+000 1.000000e+000
    outer loop
      vertex 6.805220e+000 4.027685e+000 6.332898e+000
      vertex 4.509990e+000 4.771170e+000 6.332898e+000
      vertex 4.454740e+000 4.652685e+000 6.332898e+000
    endloop
  endfacet
  facet normal 0.000000e+000 0.000000e+000 1.000000e+000
    outer loop
      vertex 4.379754e+000 4.545594e+000 6.332898e+000
      vertex 6.805220e+000 4.027685e+000 6.332898e+000
      vertex 4.454740e+000 4.652685e+000 6.332898e+000
    endloop
  endfacet
  facet normal 0.000000e+000 0.000000e+000 1.000000e+000
    outer loop
      vertex 4.379754e+000 4.545594e+000 6.332898e+000
      vertex 4.287311e+000 4.453152e+000 6.332898e+000
      vertex 6.805220e+000 4.027685e+000 6.332898e+000
    endloop
  endfacet
  facet normal 0.000000e+000 0.000000e+000 1.000000e+000
    outer loop
      vertex 6.805220e+000 4.027685e+000 6.332898e+000
      vertex 4.287311e+000 4.453152e+000 6.332898e+000
      vertex 4.180220e+000 4.378166e+000 6.332898e+000
    endloop
  endfacet
  facet normal 0.000000e+000 0.000000e+000 1.000000e+000
    outer loop
      vertex 4.061736e+000 4.322916e+000 6.332898e+000
      vertex 6.805220e+000 4.027685e+000 6.332898e+000
      vertex 4.180220e+000 4.378166e+000 6.332898e+000
    endloop
  endfacet
  facet normal 0.000000e+000 0.000000e+000 1.000000e+000
    outer loop
      vertex 4.061736e+000 4.322916e+000 6.332898e+000
      vertex 3.935457e+000 4.289079e+000 6.332898e+000
      vertex 6.805220e+000 4.027685e+000 6.332898e+000
    endloop
  endfacet
  facet normal 0.000000e+000 0.000000e+000 1.000000e+000
    outer loop
      vertex 6.805220e+000 4.027685e+000 6.332898e+000
      vertex 3.935457e+000 4.289079e+000 6.332898e+000
      vertex 3.805220e+000 4.277685e+000 6.332898e+000
    endloop
  endfacet
  facet normal 0.000000e+000 0.000000e+000 1.000000e+000
    outer loop
      vertex 8.052205e-001 4.027685e+000 6.332898e+000
      vertex 3.805220e+000 4.277685e+000 6.332898e+000
      vertex 3.674984e+000 4.289079e+000 6.332898e+000
    endloop
  endfacet
  facet normal 0.000000e+000 0.000000e+000 1.000000e+000
    outer loop
      vertex 3.548705e+000 4.322916e+000 6.332898e+000
      vertex 8.052205e-001 4.027685e+000 6.332898e+000
      vertex 3.674984e+000 4.289079e+000 6.332898e+000
    endloop
  endfacet
  facet normal 0.000000e+000 0.000000e+000 1.000000e+000
    outer loop
      vertex 3.548705e+000 4.322916e+000 6.332898e+000
      vertex 3.430220e+000 4.378166e+000 6.332898e+000
      vertex 8.052205e-001 4.027685e+000 6.332898e+000
    endloop
  endfacet
  facet normal 0.000000e+000 0.000000e+000 1.000000e+000
    outer loop
      vertex 8.052205e-001 4.027685e+000 6.332898e+000
      vertex 3.430220e+000 4.378166e+000 6.332898e+000
      vertex 3.323130e+000 4.453152e+000 6.332898e+000
    endloop
  endfacet
  facet normal 0.000000e+000 0.000000e+000 1.000000e+000
    outer loop
      vertex 3.230687e+000 4.545594e+000 6.332898e+000
      vertex 8.052205e-001 4.027685e+000 6.332898e+000
      vertex 3.323130e+000 4.453152e+000 6.332898e+000
    endloop
  endfacet
  facet normal 0.000000e+000 0.000000e+000 1.000000e+000
    outer loop
      vertex 3.230687e+000 4.545594e+000 6.332898e+000
      vertex 3.155701e+000 4.652685e+000 6.332898e+000
      vertex 8.052205e-001 4.027685e+000 6.332898e+000
    endloop
  endfacet
  facet normal 0.000000e+000 0.000000e+000 1.000000e+000
    outer loop
      vertex 8.052205e-001 4.027685e+000 6.332898e+000
      vertex 3.155701e+000 4.652685e+000 6.332898e+000
      vertex 3.100451e+000 4.771170e+000 6.332898e+000
    endloop
  endfacet
  facet normal 0.000000e+000 0.000000e+000 1.000000e+000
    outer loop
      vertex 3.066615e+000 4.897449e+000 6.332898e+000
      vertex 8.052205e-001 4.027685e+000 6.332898e+000
      vertex 3.100451e+000 4.771170e+000 6.332898e+000
    endloop
  endfacet
  facet normal 0.000000e+000 0.000000e+000 1.000000e+000
    outer loop
      vertex 3.066615e+000 4.897449e+000 6.332898e+000
      vertex 3.055220e+000 5.027685e+000 6.332898e+000
      vertex 8.052205e-001 4.027685e+000 6.332898e+000
    endloop
  endfacet
  facet normal 0.000000e+000 0.000000e+000 1.000000e+000
    outer loop
      vertex 8.052205e-001 4.027685e+000 6.332898e+000
      vertex 3.055220e+000 5.027685e+000 6.332898e+000
      vertex 3.066615e+000 5.157921e+000 6.332898e+000
    endloop
  endfacet
  facet normal 0.000000e+000 0.000000e+000 1.000000e+000
    outer loop
      vertex 8.052205e-001 6.527685e+000 6.332898e+000
      vertex 3.066615e+000 5.157921e+000 6.332898e+000
      vertex 3.100451e+000 5.284200e+000 6.332898e+000
    endloop
  endfacet
  facet normal 0.000000e+000 0.000000e+000 1.000000e+000
    outer loop
      vertex 3.155701e+000 5.402685e+000 6.332898e+000
      vertex 8.052205e-001 6.527685e+000 6.332898e+000
      vertex 3.100451e+000 5.284200e+000 6.332898e+000
    endloop
  endfacet
  facet normal 0.000000e+000 0.000000e+000 1.000000e+000
    outer loop
      vertex 3.155701e+000 5.402685e+000 6.332898e+000
      vertex 3.230687e+000 5.509776e+000 6.332898e+000
      vertex 8.052205e-001 6.527685e+000 6.332898e+000
    endloop
  endfacet
  facet normal 0.000000e+000 0.000000e+000 1.000000e+000
    outer loop
      vertex 8.052205e-001 6.527685e+000 6.332898e+000
      vertex 3.230687e+000 5.509776e+000 6.332898e+000
      vertex 3.323130e+000 5.602218e+000 6.332898e+000
    endloop
  endfacet
  facet normal 0.000000e+000 0.000000e+000 1.000000e+000
    outer loop
      vertex 3.430220e+000 5.677204e+000 6.332898e+000
      vertex 8.052205e-001 6.527685e+000 6.332898e+000
      vertex 3.323130e+000 5.602218e+000 6.332898e+000
    endloop
  endfacet
  facet normal 0.000000e+000 0.000000e+000 1.000000e+000
    outer loop
      vertex 3.430220e+000 5.677204e+000 6.332898e+000
      vertex 3.548705e+000 5.732455e+000 6.332898e+000
      vertex 8.052205e-001 6.527685e+000 6.332898e+000
    endloop
  endfacet
  facet normal 0.000000e+000 0.000000e+000 1.000000e+000
    outer loop
      vertex 8.052205e-001 6.527685e+000 6.332898e+000
      vertex 3.548705e+000 5.732455e+000 6.332898e+000
      vertex 8.204127e-001 6.701333e+000 6.332898e+000
    endloop
  endfacet
  facet normal 0.000000e+000 0.000000e+000 1.000000e+000
    outer loop
      vertex 8.204127e-001 6.701333e+000 6.332898e+000
      vertex 3.548705e+000 5.732455e+000 6.332898e+000
      vertex 1.805220e+000 7.527685e+000 6.332898e+000
    endloop
  endfacet
  facet normal 0.000000e+000 0.000000e+000 1.000000e+000
    outer loop
      vertex 8.655279e-001 6.869705e+000 6.332898e+000
      vertex 1.805220e+000 7.527685e+000 6.332898e+000
      vertex 9.391951e-001 7.027685e+000 6.332898e+000
    endloop
  endfacet
  facet normal 0.000000e+000 0.000000e+000 1.000000e+000
    outer loop
      vertex 8.655279e-001 6.869705e+000 6.332898e+000
      vertex 8.204127e-001 6.701333e+000 6.332898e+000
      vertex 1.805220e+000 7.527685e+000 6.332898e+000
    endloop
  endfacet
  facet normal 0.000000e+000 0.000000e+000 1.000000e+000
    outer loop
      vertex 3.548705e+000 5.732455e+000 6.332898e+000
      vertex 3.674984e+000 5.766291e+000 6.332898e+000
      vertex 1.805220e+000 7.527685e+000 6.332898e+000
    endloop
  endfacet
  facet normal 0.000000e+000 0.000000e+000 1.000000e+000
    outer loop
      vertex 1.805220e+000 7.527685e+000 6.332898e+000
      vertex 3.674984e+000 5.766291e+000 6.332898e+000
      vertex 3.805220e+000 5.777685e+000 6.332898e+000
    endloop
  endfacet
  facet normal 0.000000e+000 0.000000e+000 1.000000e+000
    outer loop
      vertex 5.805220e+000 7.527685e+000 6.332898e+000
      vertex 3.805220e+000 5.777685e+000 6.332898e+000
      vertex 3.935457e+000 5.766291e+000 6.332898e+000
    endloop
  endfacet
  facet normal 0.000000e+000 0.000000e+000 1.000000e+000
    outer loop
      vertex 4.061736e+000 5.732455e+000 6.332898e+000
      vertex 5.805220e+000 7.527685e+000 6.332898e+000
      vertex 3.935457e+000 5.766291e+000 6.332898e+000
    endloop
  endfacet
  facet normal 0.000000e+000 0.000000e+000 1.000000e+000
    outer loop
      vertex 4.061736e+000 5.732455e+000 6.332898e+000
      vertex 6.790028e+000 6.701333e+000 6.332898e+000
      vertex 5.805220e+000 7.527685e+000 6.332898e+000
    endloop
  endfacet
  facet normal 0.000000e+000 0.000000e+000 1.000000e+000
    outer loop
      vertex 4.061736e+000 5.732455e+000 6.332898e+000
      vertex 6.805220e+000 6.527685e+000 6.332898e+000
      vertex 6.790028e+000 6.701333e+000 6.332898e+000
    endloop
  endfacet
  facet normal 0.000000e+000 0.000000e+000 1.000000e+000
    outer loop
      vertex 4.061736e+000 5.732455e+000 6.332898e+000
      vertex 4.180220e+000 5.677204e+000 6.332898e+000
      vertex 6.805220e+000 6.527685e+000 6.332898e+000
    endloop
  endfacet
  facet normal 0.000000e+000 0.000000e+000 1.000000e+000
    outer loop
      vertex 6.805220e+000 6.527685e+000 6.332898e+000
      vertex 4.180220e+000 5.677204e+000 6.332898e+000
      vertex 4.287311e+000 5.602218e+000 6.332898e+000
    endloop
  endfacet
  facet normal 0.000000e+000 0.000000e+000 1.000000e+000
    outer loop
      vertex 4.379754e+000 5.509776e+000 6.332898e+000
      vertex 6.805220e+000 6.527685e+000 6.332898e+000
      vertex 4.287311e+000 5.602218e+000 6.332898e+000
    endloop
  endfacet
  facet normal 0.000000e+000 0.000000e+000 1.000000e+000
    outer loop
      vertex 4.379754e+000 5.509776e+000 6.332898e+000
      vertex 4.454740e+000 5.402685e+000 6.332898e+000
      vertex 6.805220e+000 6.527685e+000 6.332898e+000
    endloop
  endfacet
  facet normal 0.000000e+000 0.000000e+000 1.000000e+000
    outer loop
      vertex 4.555220e+000 5.027685e+000 6.332898e+000
      vertex 6.805220e+000 4.027685e+000 6.332898e+000
      vertex 4.543826e+000 5.157921e+000 6.332898e+000
    endloop
  endfacet
  facet normal 0.000000e+000 0.000000e+000 1.000000e+000
    outer loop
      vertex 8.052205e-001 4.027685e+000 6.332898e+000
      vertex 6.805220e+000 4.027685e+000 6.332898e+000
      vertex 3.805220e+000 4.277685e+000 6.332898e+000
    endloop
  endfacet
  facet normal 0.000000e+000 0.000000e+000 1.000000e+000
    outer loop
      vertex 6.744913e+000 6.869705e+000 6.332898e+000
      vertex 5.805220e+000 7.527685e+000 6.332898e+000
      vertex 6.790028e+000 6.701333e+000 6.332898e+000
    endloop
  endfacet
  facet normal 0.000000e+000 0.000000e+000 1.000000e+000
    outer loop
      vertex 6.744913e+000 6.869705e+000 6.332898e+000
      vertex 6.671246e+000 7.027685e+000 6.332898e+000
      vertex 5.805220e+000 7.527685e+000 6.332898e+000
    endloop
  endfacet
  facet normal 0.000000e+000 0.000000e+000 1.000000e+000
    outer loop
      vertex 5.805220e+000 7.527685e+000 6.332898e+000
      vertex 6.671246e+000 7.027685e+000 6.332898e+000
      vertex 6.571265e+000 7.170473e+000 6.332898e+000
    endloop
  endfacet
  facet normal 0.000000e+000 0.000000e+000 1.000000e+000
    outer loop
      vertex 6.448008e+000 7.293729e+000 6.332898e+000
      vertex 5.805220e+000 7.527685e+000 6.332898e+000
      vertex 6.571265e+000 7.170473e+000 6.332898e+000
    endloop
  endfacet
  facet normal 0.000000e+000 0.000000e+000 1.000000e+000
    outer loop
      vertex 6.448008e+000 7.293729e+000 6.332898e+000
      vertex 6.305220e+000 7.393710e+000 6.332898e+000
      vertex 5.805220e+000 7.527685e+000 6.332898e+000
    endloop
  endfacet
  facet normal 0.000000e+000 0.000000e+000 1.000000e+000
    outer loop
      vertex 5.805220e+000 7.527685e+000 6.332898e+000
      vertex 6.305220e+000 7.393710e+000 6.332898e+000
      vertex 6.147241e+000 7.467378e+000 6.332898e+000
    endloop
  endfacet
  facet normal 0.000000e+000 0.000000e+000 1.000000e+000
    outer loop
      vertex 5.978869e+000 7.512493e+000 6.332898e+000
      vertex 5.805220e+000 7.527685e+000 6.332898e+000
      vertex 6.147241e+000 7.467378e+000 6.332898e+000
    endloop
  endfacet
  facet normal 0.000000e+000 0.000000e+000 1.000000e+000
    outer loop
      vertex 1.805220e+000 7.527685e+000 6.332898e+000
      vertex 3.805220e+000 5.777685e+000 6.332898e+000
      vertex 5.805220e+000 7.527685e+000 6.332898e+000
    endloop
  endfacet
  facet normal 0.000000e+000 0.000000e+000 1.000000e+000
    outer loop
      vertex 1.463200e+000 7.467378e+000 6.332898e+000
      vertex 1.805220e+000 7.527685e+000 6.332898e+000
      vertex 1.631572e+000 7.512493e+000 6.332898e+000
    endloop
  endfacet
  facet normal 0.000000e+000 0.000000e+000 1.000000e+000
    outer loop
      vertex 1.463200e+000 7.467378e+000 6.332898e+000
      vertex 1.305220e+000 7.393710e+000 6.332898e+000
      vertex 1.805220e+000 7.527685e+000 6.332898e+000
    endloop
  endfacet
  facet normal 0.000000e+000 0.000000e+000 1.000000e+000
    outer loop
      vertex 1.805220e+000 7.527685e+000 6.332898e+000
      vertex 1.305220e+000 7.393710e+000 6.332898e+000
      vertex 1.162433e+000 7.293729e+000 6.332898e+000
    endloop
  endfacet
  facet normal 0.000000e+000 0.000000e+000 1.000000e+000
    outer loop
      vertex 1.039176e+000 7.170473e+000 6.332898e+000
      vertex 1.805220e+000 7.527685e+000 6.332898e+000
      vertex 1.162433e+000 7.293729e+000 6.332898e+000
    endloop
  endfacet
  facet normal 0.000000e+000 0.000000e+000 1.000000e+000
    outer loop
      vertex 1.039176e+000 7.170473e+000 6.332898e+000
      vertex 9.391951e-001 7.027685e+000 6.332898e+000
      vertex 1.805220e+000 7.527685e+000 6.332898e+000
    endloop
  endfacet
  facet normal 0.000000e+000 0.000000e+000 1.000000e+000
    outer loop
      vertex 8.052205e-001 6.527685e+000 6.332898e+000
      vertex 8.052205e-001 4.027685e+000 6.332898e+000
      vertex 3.066615e+000 5.157921e+000 6.332898e+000
    endloop
  endfacet
  facet normal 1.000000e+000 0.000000e+000 0.000000e+000
    outer loop
      vertex 6.805220e+000 4.027685e+000 6.332898e+000
      vertex 6.805220e+000 2.527685e+000 4.332898e+000
      vertex 6.805220e+000 6.527685e+000 3.332898e+000
    endloop
  endfacet
  facet normal 1.000000e+000 0.000000e+000 0.000000e+000
    outer loop
      vertex 6.805220e+000 6.527685e+000 6.332898e+000
      vertex 6.805220e+000 4.027685e+000 6.332898e+000
      vertex 6.805220e+000 6.527685e+000 3.332898e+000
    endloop
  endfacet
  facet normal 1.000000e+000 0.000000e+000 0.000000e+000
    outer loop
      vertex 6.805220e+000 2.527685e+000 4.332898e+000
      vertex 6.805220e+000 2.527685e+000 3.332898e+000
      vertex 6.805220e+000 6.527685e+000 3.332898e+000
    endloop
  endfacet
endsolid
