<?xml version="1.0" ?><svg height="32px" version="1.1" viewBox="0 0 32 32" width="32px" xmlns="http://www.w3.org/2000/svg" xmlns:sketch="http://www.bohemiancoding.com/sketch/ns" xmlns:xlink="http://www.w3.org/1999/xlink"><title/><desc/><defs/><g fill="none" fill-rule="evenodd" id="Page-1" stroke="none" stroke-width="1"><g fill="#157EFB" id="icon-69-document-file-png"><path d="M21,26 L21,28.0025781 C21,29.1090746 20.1057238,30 19.0025781,30 L3.99742191,30 C2.89092539,30 2,29.1012878 2,27.9926701 L2,5.00732994 C2,3.89833832 2.8992496,3 4.0085302,3 L14,3 L14,9.00189865 C14,10.1132936 14.8980806,11 16.0059191,11 L21,11 L21,13 L12.0068483,13 C10.3462119,13 9,14.3422643 9,15.9987856 L9,23.0012144 C9,24.6573979 10.3359915,26 12.0068483,26 L21,26 L21,26 Z M15,3 L15,8.99707067 C15,9.55097324 15.4509752,10 15.990778,10 L21,10 L15,3 L15,3 Z M11.9945615,14 C10.8929956,14 10,14.9001762 10,15.992017 L10,23.007983 C10,24.1081436 10.9023438,25 11.9945615,25 L29.0054385,25 C30.1070044,25 31,24.0998238 31,23.007983 L31,15.992017 C31,14.8918564 30.0976562,14 29.0054385,14 L11.9945615,14 L11.9945615,14 Z M12,18 L12,23 L13,23 L13,20 L14.9951185,20 C16.102384,20 17,19.1122704 17,18 C17,16.8954305 16.1061002,16 14.9951185,16 L12,16 L12,18 L12,18 Z M13,17 L13,19 L15.0010434,19 C15.5527519,19 16,18.5561352 16,18 C16,17.4477153 15.5573397,17 15.0010434,17 L13,17 L13,17 Z M19,18 L19,23 L18,23 L18,16 L19,16 L22,21 L22,16 L23,16 L23,23 L22,23 L19,18 L19,18 Z M28,20 L28,22 L25.9998075,22 C25.4437166,22 25,21.5523709 25,21.0001925 L25,17.9998075 C25,17.4437166 25.4476291,17 25.9998075,17 L29,17 L29,16 L26.0048815,16 C24.897616,16 24,16.8865548 24,18.0059191 L24,20.9940809 C24,22.1019194 24.8938998,23 26.0048815,23 L29,23 L29,22.25 L29,22.25 L29,20 L29,19 L26,19 L26,20 L28,20 L28,20 Z" id="document-file-png"/></g></g></svg>