<?xml version="1.0" ?><svg height="32px" version="1.1" viewBox="0 0 32 32" width="32px" xmlns="http://www.w3.org/2000/svg" xmlns:sketch="http://www.bohemiancoding.com/sketch/ns" xmlns:xlink="http://www.w3.org/1999/xlink"><title/><desc/><defs/><g fill="none" fill-rule="evenodd" id="Page-1" stroke="none" stroke-width="1"><g fill="#157EFB" id="icon-87-document-file-py"><path d="M21,26 L21,28.0025781 C21,29.1090746 20.1057238,30 19.0025781,30 L3.99742191,30 C2.89092539,30 2,29.1012878 2,27.9926701 L2,5.00732994 C2,3.89833832 2.8992496,3 4.0085302,3 L14,3 L14,9.00189865 C14,10.1132936 14.8980806,11 16.0059191,11 L21,11 L21,13 L9.00684834,13 C7.34621185,13 6,14.3422643 6,15.9987856 L6,23.0012144 C6,24.6573979 7.33599155,26 9.00684834,26 L21,26 L21,26 Z M15,3 L15,8.99707067 C15,9.55097324 15.4509752,10 15.990778,10 L21,10 L15,3 L15,3 Z M8.99456145,14 C7.89299558,14 7,14.9001762 7,15.992017 L7,23.007983 C7,24.1081436 7.90234375,25 8.99456145,25 L26.0054385,25 C27.1070044,25 28,24.0998238 28,23.007983 L28,15.992017 C28,14.8918564 27.0976562,14 26.0054385,14 L8.99456145,14 L8.99456145,14 Z M12,18 L12,23 L13,23 L13,20 L14.9951185,20 C16.102384,20 17,19.1122704 17,18 C17,16.8954305 16.1061002,16 14.9951185,16 L12,16 L12,18 L12,18 Z M13,17 L13,19 L15.0010434,19 C15.5527519,19 16,18.5561352 16,18 C16,17.4477153 15.5573397,17 15.0010434,17 L13,17 L13,17 Z M21,20 L21,23 L20,23 L20,20 L18,17 L18,16 L19,16 L19,17 L20.5,19.25 L22,17 L22,16 L23,16 L23,17 L21,20 L21,20 Z" id="document-file-py"/></g></g></svg>