<?xml version="1.0" ?><svg height="32px" version="1.1" viewBox="0 0 32 32" width="32px" xmlns="http://www.w3.org/2000/svg" xmlns:sketch="http://www.bohemiancoding.com/sketch/ns" xmlns:xlink="http://www.w3.org/1999/xlink"><title/><desc/><defs/><g fill="none" fill-rule="evenodd" id="Page-1" stroke="none" stroke-width="1"><g fill="#157EFB" id="icon-70-document-code"><path d="M19,3 L9.0085302,3 C7.8992496,3 7,3.89833832 7,5.00732994 L7,27.9926701 C7,29.1012878 7.89092539,30 8.99742191,30 L24.0025781,30 C25.1057238,30 26,29.1090746 26,28.0025781 L26,11 L21.0059191,11 C19.8980806,11 19,10.1132936 19,9.00189865 L19,3 L19,3 Z M20,3 L20,8.99707067 C20,9.55097324 20.4509752,10 20.990778,10 L26,10 L20,3 L20,3 Z M13,26 L9,22 L13,18 L13.6999998,18.6999998 L10.3999996,22 L13.6999998,25.3000002 L13,26 L13,26 Z M20,26 L24,22 L20,18 L19.3000002,18.6999998 L22.6000004,22 L19.3000002,25.3000002 L20,26 L20,26 Z M17,18 L15,26 L16,26 L18,18 L17,18 L17,18 Z" id="document-code"/></g></g></svg>