<?xml version="1.0" ?><svg height="32px" version="1.1" viewBox="0 0 32 32" width="32px" xmlns="http://www.w3.org/2000/svg" xmlns:sketch="http://www.bohemiancoding.com/sketch/ns" xmlns:xlink="http://www.w3.org/1999/xlink"><title/><desc/><defs/><g fill="none" fill-rule="evenodd" id="Page-1" stroke="none" stroke-width="1"><g fill="#157EFB" id="icon-62-document-table"><path d="M16,21 L12,21 L12,23 L12,23 L16,23 L16,21 L16,21 Z M17,21 L21,21 L21,23 L17,23 L17,21 L17,21 Z M16,26 L12,26 L12,24 L16,24 L16,26 L16,26 Z M17,26 L21,26 L21,24 L17,24 L17,26 L17,26 Z M16,18 L12,18 L12,20 L12,20 L16,20 L16,18 L16,18 Z M17,18 L21,18 L21,20 L17,20 L17,18 L17,18 Z M16,15 L12,15 L12,17 L12,17 L16,17 L16,15 L16,15 Z M17,15 L21,15 L21,17 L17,17 L17,15 L17,15 Z M19,3 L9.0085302,3 C7.8992496,3 7,3.89833832 7,5.00732994 L7,27.9926701 C7,29.1012878 7.89092539,30 8.99742191,30 L24.0025781,30 C25.1057238,30 26,29.1090746 26,28.0025781 L26,11 L21.0059191,11 C19.8980806,11 19,10.1132936 19,9.00189865 L19,3 L19,3 Z M20,3 L20,8.99707067 C20,9.55097324 20.4509752,10 20.990778,10 L26,10 L20,3 L20,3 Z M11,13 L11,27 L22,27 L22,13 L11,13 L11,13 Z" id="document-table"/></g></g></svg>