<?xml version="1.0" encoding="UTF-8" standalone="no"?>
<svg
   xmlns:dc="http://purl.org/dc/elements/1.1/"
   xmlns:cc="http://creativecommons.org/ns#"
   xmlns:rdf="http://www.w3.org/1999/02/22-rdf-syntax-ns#"
   xmlns:svg="http://www.w3.org/2000/svg"
   xmlns="http://www.w3.org/2000/svg"
   viewBox="0 0 765 990"
   height="990"
   width="765"
   xml:space="preserve"
   version="1.1"
   id="svg5445"><metadata
     id="metadata5451"><rdf:RDF><cc:Work
         rdf:about=""><dc:format>image/svg+xml</dc:format><dc:type
           rdf:resource="http://purl.org/dc/dcmitype/StillImage" /><dc:title></dc:title></cc:Work></rdf:RDF></metadata><defs
     id="defs5449"><clipPath
       id="clipPath5461"
       clipPathUnits="userSpaceOnUse"><path
         id="path5463"
         d="M 7,0 605,0 605,792 7,792 7,0 Z" /></clipPath></defs><g
     transform="matrix(1.25,0,0,-1.25,0,990)"
     id="g5453"><g
       id="g5455" /><g
       id="g5457"><g
         clip-path="url(#clipPath5461)"
         id="g5459"><path
           id="path5465"
           style="fill:#ffffff;fill-opacity:0;fill-rule:evenodd;stroke:none"
           d="m 7,792 598.6047,0 0,-792 L 7,0 7,792 Z" /><path
           id="path5467"
           style="fill:#b41826;fill-opacity:1;fill-rule:evenodd;stroke:none"
           d="m 451.9556,572.75 92.4979,-114.3515 0,-208.7133 -120.1258,-50.078 -138.5442,-7.5082 55.2559,278.5788 110.9162,102.0722 z" /><g
           transform="matrix(0,-3.62571e-4,-3.62571e-4,0,544.4535,572.75)"
           id="g5469"><path
             id="path5471"
             style="fill:none;stroke:#000000;stroke-width:12700;stroke-linecap:butt;stroke-linejoin:round;stroke-miterlimit:10;stroke-dasharray:none;stroke-opacity:1"
             d="M 0.00393677,255117 315390.4,-0.02734375 l 575648,0 L 1029158,331317 1049866,713433 281523.5,561033 0.00393677,255117 Z" /></g><path
           id="path5473"
           style="fill:#a5c1df;fill-opacity:1;fill-rule:evenodd;stroke:none"
           d="M 440.8915,193.9675 544.454,230.8051 532.9842,52.75839 440.8915,193.9675 Z" /><g
           transform="matrix(0,-3.62571e-4,-3.62571e-4,0,544.454,230.8051)"
           id="g5475"><path
             id="path5477"
             style="fill:none;stroke:#000000;stroke-width:12700;stroke-linecap:butt;stroke-linejoin:round;stroke-miterlimit:10;stroke-dasharray:none;stroke-opacity:1"
             d="M 101601,285633 -0.03588867,-0.0118103 491067,31634.01 101601,285633 Z" /></g><path
           id="path5479"
           style="fill:#f7a88a;fill-opacity:1;fill-rule:evenodd;stroke:none"
           d="m 341.1727,681.9161 94.1543,-98.2324 -88.0148,-89.0231 -26.8915,12.964 -63.95,149.0493 84.702,25.2422 z" /><g
           transform="matrix(0,-3.62571e-4,-3.62571e-4,0,435.327,681.9161)"
           id="g5481"><path
             id="path5483"
             style="fill:none;stroke:#000000;stroke-width:12700;stroke-linecap:butt;stroke-linejoin:round;stroke-miterlimit:10;stroke-dasharray:none;stroke-opacity:1"
             d="M -0.0791626,259685.3 270932.9,-0.04611206 516464.9,242751.9 480709.9,316920.7 69619.9,493300 -0.0791626,259685.3 Z" /></g><path
           id="path5485"
           style="fill:#3b4cc0;fill-opacity:1;fill-rule:evenodd;stroke:none"
           d="M 173.1755,506.9178 321.2919,467.7782 262.9666,193.034 170.106,178.4529 31.1989,315.5758 37.42135,380.6667 173.1755,506.9178 Z" /><g
           transform="matrix(0,-3.62571e-4,-3.62571e-4,0,321.2919,506.9178)"
           id="g5487"><path
             id="path5489"
             style="fill:none;stroke:#000000;stroke-width:12700;stroke-linecap:butt;stroke-linejoin:round;stroke-miterlimit:10;stroke-dasharray:none;stroke-opacity:1"
             d="M 0.02575684,408517 107950,-0.03463745 865717.1,160866 905933.1,416983 527737,800100 348211,782938 0.02575684,408517 Z" /></g><path
           id="path5491"
           style="fill:#3b4cc0;fill-opacity:1;fill-rule:evenodd;stroke:none"
           d="M 422.4762,191.5255 522.6486,42.64195 422.4762,4.269615 C 371.1786,18.59516 408.9038,5.292789 357.6061,19.61833 l 23.0236,62.92999 41.8465,108.97718 z" /><g
           transform="matrix(0,-3.62571e-4,-3.62571e-4,0,522.6486,191.5255)"
           id="g5493"><path
             id="path5495"
             style="fill:none;stroke:#000000;stroke-width:12700;stroke-linecap:butt;stroke-linejoin:round;stroke-miterlimit:10;stroke-dasharray:none;stroke-opacity:1"
             d="M -0.01293945,276284 410633,0.01885986 516467,276284 c -39511,141483.1 -2822,37434 -42333,178917 L 300568,391700 -0.01293945,276284 Z" /></g><path
           id="path5497"
           style="fill:#f7a88a;fill-opacity:1;fill-rule:evenodd;stroke:none"
           d="m 269.1542,175.6212 128.915,0 L 336.6896,15.99315 96.50737,64.45038 13.62363,139.4431 269.1542,175.6212 Z" /><g
           transform="matrix(0,-3.62571e-4,-3.62571e-4,0,398.0692,175.6212)"
           id="g5499"><path
             id="path5501"
             style="fill:none;stroke:#000000;stroke-width:12700;stroke-linecap:butt;stroke-linejoin:round;stroke-miterlimit:10;stroke-dasharray:none;stroke-opacity:1"
             d="m -0.00463867,355558 0,-355558.03939819 L 440267,169289.9 306618,831732 99781.98,1060332 -0.00463867,355558 Z" /></g><path
           id="path5503"
           style="fill:#b41826;fill-opacity:1;fill-rule:evenodd;stroke:none"
           d="M 25.94379,304.4797 147.1998,177.0842 16.73449,157.1305 l 9.2093,147.3492 z" /><g
           transform="matrix(0,-3.62571e-4,-3.62571e-4,0,147.1998,304.4797)"
           id="g5505"><path
             id="path5507"
             style="fill:none;stroke:#000000;stroke-width:12700;stroke-linecap:butt;stroke-linejoin:round;stroke-miterlimit:10;stroke-dasharray:none;stroke-opacity:1"
             d="M -0.02035522,334434 351367,-0.00198364 406401,359834 -0.02035522,334434 Z" /></g><path
           id="path5509"
           style="fill:#b41826;fill-opacity:1;fill-rule:evenodd;stroke:none"
           d="M 22.95765,687.9358 236.5753,647.7892 309.9797,488.641 29.09732,555.9361 22.95765,687.9358 Z" /><g
           transform="matrix(0,-3.62571e-4,-3.62571e-4,0,309.9797,687.9358)"
           id="g5511"><path
             id="path5513"
             style="fill:none;stroke:#000000;stroke-width:12700;stroke-linecap:butt;stroke-linejoin:round;stroke-miterlimit:10;stroke-dasharray:none;stroke-opacity:1"
             d="M -0.06671143,791630 110727.7,202455.2 549670.9,-0.00106812 364066.3,774696.3 -0.06671143,791630 Z" /></g><path
           id="path5515"
           style="fill:#a5c1df;fill-opacity:1;fill-rule:evenodd;stroke:none"
           d="M 168.0045,767.8965 334.5395,695.7568 241.6793,663.5247 22.95802,704.9661 168.0045,767.8965 Z" /><g
           transform="matrix(0,-3.62571e-4,-3.62571e-4,0,334.5395,767.8965)"
           id="g5517"><path
             id="path5519"
             style="fill:none;stroke:#000000;stroke-width:12700;stroke-linecap:butt;stroke-linejoin:round;stroke-miterlimit:10;stroke-dasharray:none;stroke-opacity:1"
             d="M -0.03070068,459317 198966.9,-0.01757812 287865.9,256116 173566.9,859367 -0.03070068,459317 Z" /></g><path
           id="path5521"
           style="fill:#3b4cc0;fill-opacity:1;fill-rule:evenodd;stroke:none"
           d="M 505.3172,767.8965 564.0058,628.2222 545.2243,485.478 357.6063,695.7568 505.3172,767.8965 Z" /><g
           transform="matrix(0,-3.62571e-4,-3.62571e-4,0,564.0058,767.8965)"
           id="g5523"><path
             id="path5525"
             style="fill:none;stroke:#000000;stroke-width:12700;stroke-linecap:butt;stroke-linejoin:round;stroke-miterlimit:10;stroke-dasharray:none;stroke-opacity:1"
             d="M -0.03070068,161867 385233,6.713867e-4 778932.9,51800.04 198966.9,569266 -0.03070068,161867 Z" /></g><path
           id="path5527"
           style="fill:#f7a88a;fill-opacity:1;fill-rule:evenodd;stroke:none"
           d="M 35.40253,538.1732 149.9431,508.7136 44.7362,407.6996 35.40253,538.1732 Z" /><g
           transform="matrix(0,-3.62571e-4,-3.62571e-4,0,149.9431,538.1732)"
           id="g5529"><path
             id="path5531"
             style="fill:none;stroke:#000000;stroke-width:12700;stroke-linecap:butt;stroke-linejoin:round;stroke-miterlimit:10;stroke-dasharray:none;stroke-opacity:1"
             d="M 0.01629639,315912 81252.03,-0.02005768 359857,290169 0.01629639,315912 Z" /></g><g
           transform="matrix(4.604651,0,0,4.604651,130.9539,655.3722)"
           id="g5533"><text
             id="text5535"
             style="font-variant:normal;font-weight:normal;font-size:18px;font-family:Calibri;-inkscape-font-specification:Calibri;writing-mode:lr-tb;fill:#ffffff;fill-opacity:1;fill-rule:nonzero;stroke:none"
             transform="matrix(1,0,0,-1,0,-18)"><tspan
               id="tspan5537"
               y="0"
               x="0 10.4148">A	</tspan></text>
</g><g
           transform="matrix(4.604651,0,0,4.604651,40.55449,269.5396)"
           id="g5539"><text
             id="text5541"
             style="font-variant:normal;font-weight:normal;font-size:18px;font-family:Calibri;-inkscape-font-specification:Calibri;writing-mode:lr-tb;fill:#ffffff;fill-opacity:1;fill-rule:nonzero;stroke:none"
             transform="matrix(1,0,0,-1,0,-18)"><tspan
               id="tspan5543"
               y="0"
               x="0 10.4148">A	</tspan></text>
</g><g
           transform="matrix(4.604651,0,0,4.604651,221.468,168.3783)"
           id="g5545"><text
             id="text5547"
             style="font-variant:normal;font-weight:normal;font-size:18px;font-family:Calibri;-inkscape-font-specification:Calibri;writing-mode:lr-tb;fill:#ffffff;fill-opacity:1;fill-rule:nonzero;stroke:none"
             transform="matrix(1,0,0,-1,0,-18)"><tspan
               id="tspan5549"
               y="0"
               x="0 9.7902002">B	</tspan></text>
</g><g
           transform="matrix(4.604651,0,0,4.604651,323.8693,653.3526)"
           id="g5551"><text
             id="text5553"
             style="font-variant:normal;font-weight:normal;font-size:18px;font-family:Calibri;-inkscape-font-specification:Calibri;writing-mode:lr-tb;fill:#ffffff;fill-opacity:1;fill-rule:nonzero;stroke:none"
             transform="matrix(1,0,0,-1,0,-18)"><tspan
               id="tspan5555"
               y="0"
               x="0 9.7902002">B	</tspan></text>
</g><g
           transform="matrix(4.604651,0,0,4.604651,49.88816,543.376)"
           id="g5557"><text
             id="text5559"
             style="font-variant:normal;font-weight:normal;font-size:18px;font-family:Calibri;-inkscape-font-specification:Calibri;writing-mode:lr-tb;fill:#ffffff;fill-opacity:1;fill-rule:nonzero;stroke:none"
             transform="matrix(1,0,0,-1,0,-18)"><tspan
               id="tspan5561"
               y="0"
               x="0 9.7902002">B	</tspan></text>
</g><g
           transform="matrix(4.604651,0,0,4.604651,156.7784,773.0984)"
           id="g5563"><text
             id="text5565"
             style="font-variant:normal;font-weight:normal;font-size:18px;font-family:Calibri;-inkscape-font-specification:Calibri;writing-mode:lr-tb;fill:#ffffff;fill-opacity:1;fill-rule:nonzero;stroke:none"
             transform="matrix(1,0,0,-1,0,-18)"><tspan
               id="tspan5567"
               y="0"
               x="0 9.5976">C	</tspan></text>
</g><g
           transform="matrix(4.604651,0,0,4.604651,165.1774,419.8043)"
           id="g5569"><text
             id="text5571"
             style="font-variant:normal;font-weight:normal;font-size:18px;font-family:Calibri;-inkscape-font-specification:Calibri;writing-mode:lr-tb;fill:#ffffff;fill-opacity:1;fill-rule:nonzero;stroke:none"
             transform="matrix(1,0,0,-1,0,-18)"><tspan
               id="tspan5573"
               y="0"
               x="0 11.0736">D	</tspan></text>
</g><g
           transform="matrix(4.604651,0,0,4.604651,409.4266,142.9926)"
           id="g5575"><text
             id="text5577"
             style="font-variant:normal;font-weight:normal;font-size:18px;font-family:Calibri;-inkscape-font-specification:Calibri;writing-mode:lr-tb;fill:#ffffff;fill-opacity:1;fill-rule:nonzero;stroke:none"
             transform="matrix(1,0,0,-1,0,-18)"><tspan
               id="tspan5579"
               y="0"
               x="0 11.0736">D	</tspan></text>
</g><g
           transform="matrix(4.604651,0,0,4.604651,456.6417,713.178)"
           id="g5581"><text
             id="text5583"
             style="font-variant:normal;font-weight:normal;font-size:18px;font-family:Calibri;-inkscape-font-specification:Calibri;writing-mode:lr-tb;fill:#ffffff;fill-opacity:1;fill-rule:nonzero;stroke:none"
             transform="matrix(1,0,0,-1,0,-18)"><tspan
               id="tspan5585"
               y="0"
               x="0 11.0736">D	</tspan></text>
</g><g
           transform="matrix(4.604651,0,0,4.604651,403.2045,429.2698)"
           id="g5587"><text
             id="text5589"
             style="font-variant:normal;font-weight:normal;font-size:18px;font-family:Calibri;-inkscape-font-specification:Calibri;writing-mode:lr-tb;fill:#ffffff;fill-opacity:1;fill-rule:nonzero;stroke:none"
             transform="matrix(1,0,0,-1,0,-18)"><tspan
               id="tspan5591"
               y="0"
               x="0 9.5976 18.5616">C*	</tspan></text>
</g><g
           transform="matrix(4.604651,0,0,4.604651,484.0368,223.0642)"
           id="g5593"><text
             id="text5595"
             style="font-variant:normal;font-weight:normal;font-size:18px;font-family:Calibri;-inkscape-font-specification:Calibri;writing-mode:lr-tb;fill:#ffffff;fill-opacity:1;fill-rule:nonzero;stroke:none"
             transform="matrix(1,0,0,-1,0,-18)"><tspan
               id="tspan5597"
               y="0"
               x="0 9.5976">C	</tspan></text>
</g></g></g></g></svg>