<?xml version="1.0" encoding="UTF-8" standalone="no"?>
<svg
   xmlns:dc="http://purl.org/dc/elements/1.1/"
   xmlns:cc="http://creativecommons.org/ns#"
   xmlns:rdf="http://www.w3.org/1999/02/22-rdf-syntax-ns#"
   xmlns:svg="http://www.w3.org/2000/svg"
   xmlns="http://www.w3.org/2000/svg"
   viewBox="0 0 765 990"
   height="990"
   width="765"
   xml:space="preserve"
   version="1.1"
   id="svg4757"><metadata
     id="metadata4763"><rdf:RDF><cc:Work
         rdf:about=""><dc:format>image/svg+xml</dc:format><dc:type
           rdf:resource="http://purl.org/dc/dcmitype/StillImage" /><dc:title></dc:title></cc:Work></rdf:RDF></metadata><defs
     id="defs4761"><clipPath
       id="clipPath4773"
       clipPathUnits="userSpaceOnUse"><path
         id="path4775"
         d="M 0,4 612,4 612,788 0,788 0,4 Z" /></clipPath></defs><g
     transform="matrix(1.25,0,0,-1.25,0,990)"
     id="g4765"><g
       id="g4767" /><g
       id="g4769"><g
         clip-path="url(#clipPath4773)"
         id="g4771"><path
           id="path4777"
           style="fill:#ffffff;fill-opacity:0;fill-rule:evenodd;stroke:none"
           d="m 0,789.5522 612,0 L 612,4 0,4 0,789.5522 Z" /><path
           id="path4779"
           style="fill:#b41826;fill-opacity:1;fill-rule:evenodd;stroke:none"
           d="m 459.602,572.0872 91.7447,-113.4206 0,-207.0141 -119.1479,-49.6704 -137.4162,-7.447 54.806,276.3108 110.0134,101.2413 z" /><g
           transform="matrix(0,-3.596192e-4,-3.596192e-4,0,551.3467,572.0872)"
           id="g4781"><path
             id="path4783"
             style="fill:none;stroke:#000000;stroke-width:12700;stroke-linecap:butt;stroke-linejoin:round;stroke-miterlimit:10;stroke-dasharray:none;stroke-opacity:1"
             d="M 0.00393677,255117 315390.4,-0.02734375 l 575648,0 L 1029158,331317 1049866,713433 281523.5,561033 0.00393677,255117 Z" /></g><path
           id="path4785"
           style="fill:#a5c1df;fill-opacity:1;fill-rule:evenodd;stroke:none"
           d="M 448.6278,196.3884 551.3471,232.926 539.9708,56.32888 448.6278,196.3884 Z" /><g
           transform="matrix(0,-3.596192e-4,-3.596192e-4,0,551.3471,232.926)"
           id="g4787"><path
             id="path4789"
             style="fill:none;stroke:#000000;stroke-width:12700;stroke-linecap:butt;stroke-linejoin:round;stroke-miterlimit:10;stroke-dasharray:none;stroke-opacity:1"
             d="M 101601,285633 -0.03588867,-0.0118103 491067,31634.01 101601,285633 Z" /></g><path
           id="path4791"
           style="fill:#f7a88a;fill-opacity:1;fill-rule:evenodd;stroke:none"
           d="m 349.7208,680.3646 93.3878,-97.4327 -87.2982,-88.2984 -26.6726,12.8584 -63.4294,147.836 84.0124,25.0367 z" /><g
           transform="matrix(0,-3.596192e-4,-3.596192e-4,0,443.1086,680.3646)"
           id="g4793"><path
             id="path4795"
             style="fill:none;stroke:#000000;stroke-width:12700;stroke-linecap:butt;stroke-linejoin:round;stroke-miterlimit:10;stroke-dasharray:none;stroke-opacity:1"
             d="M -0.0791626,259685.3 270932.9,-0.04611206 516464.9,242751.9 480709.9,316920.7 69619.9,493300 -0.0791626,259685.3 Z" /></g><path
           id="path4797"
           style="fill:#3b4cc0;fill-opacity:1;fill-rule:evenodd;stroke:none"
           d="M 183.0913,506.7909 330.0019,467.97 272.1514,195.4625 180.0468,181.0001 42.27055,317.0066 l 6.17181,64.561 134.64894,125.2233 z" /><g
           transform="matrix(0,-3.596192e-4,-3.596192e-4,0,330.0019,506.7909)"
           id="g4799"><path
             id="path4801"
             style="fill:none;stroke:#000000;stroke-width:12700;stroke-linecap:butt;stroke-linejoin:round;stroke-miterlimit:10;stroke-dasharray:none;stroke-opacity:1"
             d="M 0.02575684,408517 107950,-0.03463745 865717.1,160866 905933.1,416983 527737,800100 348211,782938 0.02575684,408517 Z" /></g><path
           id="path4803"
           style="fill:#3b4cc0;fill-opacity:1;fill-rule:evenodd;stroke:none"
           d="M 430.3624,193.9663 529.7193,46.2948 430.3624,8.234855 c -50.88,14.208915 -13.4619,1.014844 -64.342,15.223765 l 22.8362,62.41766 41.5058,108.09002 z" /><g
           transform="matrix(0,-3.596192e-4,-3.596192e-4,0,529.7193,193.9663)"
           id="g4805"><path
             id="path4807"
             style="fill:none;stroke:#000000;stroke-width:12700;stroke-linecap:butt;stroke-linejoin:round;stroke-miterlimit:10;stroke-dasharray:none;stroke-opacity:1"
             d="M -0.01293945,276284 410633,0.01885986 516467,276284 c -39511,141483.1 -2822,37434 -42333,178917 L 300568,391700 -0.01293945,276284 Z" /></g><path
           id="path4809"
           style="fill:#f7a88a;fill-opacity:1;fill-rule:evenodd;stroke:none"
           d="m 278.2886,178.1914 127.8656,0 -60.88,-158.32845 -238.2269,48.06273 -82.20893,74.38222 253.45023,35.8835 z" /><g
           transform="matrix(0,-3.596192e-4,-3.596192e-4,0,406.1542,178.1914)"
           id="g4811"><path
             id="path4813"
             style="fill:none;stroke:#000000;stroke-width:12700;stroke-linecap:butt;stroke-linejoin:round;stroke-miterlimit:10;stroke-dasharray:none;stroke-opacity:1"
             d="m -0.00463867,355558 0,-355558.03939819 L 440267,169289.9 306618,831732 99781.98,1060332 -0.00463867,355558 Z" /></g><path
           id="path4815"
           style="fill:#b41826;fill-opacity:1;fill-rule:evenodd;stroke:none"
           d="M 37.05822,306.0009 157.3271,179.6425 27.92389,159.8512 37.05822,306.0009 Z" /><g
           transform="matrix(0,-3.596192e-4,-3.596192e-4,0,157.3271,306.0009)"
           id="g4817"><path
             id="path4819"
             style="fill:none;stroke:#000000;stroke-width:12700;stroke-linecap:butt;stroke-linejoin:round;stroke-miterlimit:10;stroke-dasharray:none;stroke-opacity:1"
             d="M -0.02035522,334434 351367,-0.00198364 406401,359834 -0.02035522,334434 Z" /></g><path
           id="path4821"
           style="fill:#b41826;fill-opacity:1;fill-rule:evenodd;stroke:none"
           d="M 34.09639,686.3352 245.975,646.5155 318.7818,488.6629 40.18608,555.4102 34.09639,686.3352 Z" /><g
           transform="matrix(0,-3.596192e-4,-3.596192e-4,0,318.7818,686.3352)"
           id="g4823"><path
             id="path4825"
             style="fill:none;stroke:#000000;stroke-width:12700;stroke-linecap:butt;stroke-linejoin:round;stroke-miterlimit:10;stroke-dasharray:none;stroke-opacity:1"
             d="M -0.06671143,791630 110727.7,202455.2 549670.9,-0.00106812 364066.3,774696.3 -0.06671143,791630 Z" /></g><path
           id="path4827"
           style="fill:#a5c1df;fill-opacity:1;fill-rule:evenodd;stroke:none"
           d="M 177.9624,765.645 343.1416,694.0926 251.0374,662.1229 34.09676,703.2269 177.9624,765.645 Z" /><g
           transform="matrix(0,-3.596192e-4,-3.596192e-4,0,343.1416,765.645)"
           id="g4829"><path
             id="path4831"
             style="fill:none;stroke:#000000;stroke-width:12700;stroke-linecap:butt;stroke-linejoin:round;stroke-miterlimit:10;stroke-dasharray:none;stroke-opacity:1"
             d="M -0.03070068,459317 198966.9,-0.01757812 287865.9,256116 173566.9,859367 -0.03070068,459317 Z" /></g><path
           id="path4833"
           style="fill:#3b4cc0;fill-opacity:1;fill-rule:evenodd;stroke:none"
           d="M 512.529,765.645 570.7398,627.1078 552.1112,485.5257 366.0206,694.0926 512.529,765.645 Z" /><g
           transform="matrix(0,-3.596192e-4,-3.596192e-4,0,570.7398,765.645)"
           id="g4835"><path
             id="path4837"
             style="fill:none;stroke:#000000;stroke-width:12700;stroke-linecap:butt;stroke-linejoin:round;stroke-miterlimit:10;stroke-dasharray:none;stroke-opacity:1"
             d="M -0.03070068,161867 385233,6.713867e-4 778932.9,51800.04 198966.9,569266 -0.03070068,161867 Z" /></g><path
           id="path4839"
           style="fill:#f7a88a;fill-opacity:1;fill-rule:evenodd;stroke:none"
           d="M 46.43998,537.7919 160.048,508.5721 55.69766,408.3805 46.43998,537.7919 Z" /><g
           transform="matrix(0,-3.596192e-4,-3.596192e-4,0,160.048,537.7919)"
           id="g4841"><path
             id="path4843"
             style="fill:none;stroke:#000000;stroke-width:12700;stroke-linecap:butt;stroke-linejoin:round;stroke-miterlimit:10;stroke-dasharray:none;stroke-opacity:1"
             d="M 0.01629639,315912 81252.03,-0.01303101 359857,290169 0.01629639,315912 Z" /></g><g
           transform="matrix(4.567164,0,0,4.567164,141.2135,654.0367)"
           id="g4845"><text
             id="text4847"
             style="font-variant:normal;font-weight:normal;font-size:18px;font-family:Calibri;-inkscape-font-specification:Calibri;writing-mode:lr-tb;fill:#ffffff;fill-opacity:1;fill-rule:nonzero;stroke:none"
             transform="matrix(1,0,0,-1,0,-18)"><tspan
               id="tspan4849"
               y="0"
               x="0 10.4148">A	</tspan></text>
</g><g
           transform="matrix(4.567164,0,0,4.567164,423.5912,435.9469)"
           id="g4851"><text
             id="text4853"
             style="font-variant:normal;font-weight:normal;font-size:18px;font-family:Calibri;-inkscape-font-specification:Calibri;writing-mode:lr-tb;fill:#ffffff;fill-opacity:1;fill-rule:nonzero;stroke:none"
             transform="matrix(1,0,0,-1,0,-18)"><tspan
               id="tspan4855"
               y="0"
               x="0 10.4148">A	</tspan></text>
</g><g
           transform="matrix(4.567164,0,0,4.567164,51.54999,271.3453)"
           id="g4857"><text
             id="text4859"
             style="font-variant:normal;font-weight:normal;font-size:18px;font-family:Calibri;-inkscape-font-specification:Calibri;writing-mode:lr-tb;fill:#ffffff;fill-opacity:1;fill-rule:nonzero;stroke:none"
             transform="matrix(1,0,0,-1,0,-18)"><tspan
               id="tspan4861"
               y="0"
               x="0 10.4148">A	</tspan></text>
</g><g
           transform="matrix(4.567164,0,0,4.567164,230.9906,171.0075)"
           id="g4863"><text
             id="text4865"
             style="font-variant:normal;font-weight:normal;font-size:18px;font-family:Calibri;-inkscape-font-specification:Calibri;writing-mode:lr-tb;fill:#ffffff;fill-opacity:1;fill-rule:nonzero;stroke:none"
             transform="matrix(1,0,0,-1,0,-18)"><tspan
               id="tspan4867"
               y="0"
               x="0 9.7902002">B	</tspan></text>
</g><g
           transform="matrix(4.567164,0,0,4.567164,332.5582,652.0336)"
           id="g4869"><text
             id="text4871"
             style="font-variant:normal;font-weight:normal;font-size:18px;font-family:Calibri;-inkscape-font-specification:Calibri;writing-mode:lr-tb;fill:#ffffff;fill-opacity:1;fill-rule:nonzero;stroke:none"
             transform="matrix(1,0,0,-1,0,-18)"><tspan
               id="tspan4873"
               y="0"
               x="0 9.7902002">B	</tspan></text>
</g><g
           transform="matrix(4.567164,0,0,4.567164,60.80763,542.9523)"
           id="g4875"><text
             id="text4877"
             style="font-variant:normal;font-weight:normal;font-size:18px;font-family:Calibri;-inkscape-font-specification:Calibri;writing-mode:lr-tb;fill:#ffffff;fill-opacity:1;fill-rule:nonzero;stroke:none"
             transform="matrix(1,0,0,-1,0,-18)"><tspan
               id="tspan4879"
               y="0"
               x="0 9.7902002">B	</tspan></text>
</g><g
           transform="matrix(4.567164,0,0,4.567164,166.8277,770.8045)"
           id="g4881"><text
             id="text4883"
             style="font-variant:normal;font-weight:normal;font-size:18px;font-family:Calibri;-inkscape-font-specification:Calibri;writing-mode:lr-tb;fill:#ffffff;fill-opacity:1;fill-rule:nonzero;stroke:none"
             transform="matrix(1,0,0,-1,0,-18)"><tspan
               id="tspan4885"
               y="0"
               x="0 9.5976">C	</tspan></text>
</g><g
           transform="matrix(4.567164,0,0,4.567164,491.4218,225.2482)"
           id="g4887"><text
             id="text4889"
             style="font-variant:normal;font-weight:normal;font-size:18px;font-family:Calibri;-inkscape-font-specification:Calibri;writing-mode:lr-tb;fill:#ffffff;fill-opacity:1;fill-rule:nonzero;stroke:none"
             transform="matrix(1,0,0,-1,0,-18)"><tspan
               id="tspan4891"
               y="0"
               x="0 9.5976">C	</tspan></text>
</g><g
           transform="matrix(4.567164,0,0,4.567164,175.1583,420.3866)"
           id="g4893"><text
             id="text4895"
             style="font-variant:normal;font-weight:normal;font-size:18px;font-family:Calibri;-inkscape-font-specification:Calibri;writing-mode:lr-tb;fill:#ffffff;fill-opacity:1;fill-rule:nonzero;stroke:none"
             transform="matrix(1,0,0,-1,0,-18)"><tspan
               id="tspan4897"
               y="0"
               x="0 11.0736">D	</tspan></text>
</g><g
           transform="matrix(4.567164,0,0,4.567164,417.419,145.8284)"
           id="g4899"><text
             id="text4901"
             style="font-variant:normal;font-weight:normal;font-size:18px;font-family:Calibri;-inkscape-font-specification:Calibri;writing-mode:lr-tb;fill:#ffffff;fill-opacity:1;fill-rule:nonzero;stroke:none"
             transform="matrix(1,0,0,-1,0,-18)"><tspan
               id="tspan4903"
               y="0"
               x="0 11.0736">D	</tspan></text>
</g><g
           transform="matrix(4.567164,0,0,4.567164,464.25,711.372)"
           id="g4905"><text
             id="text4907"
             style="font-variant:normal;font-weight:normal;font-size:18px;font-family:Calibri;-inkscape-font-specification:Calibri;writing-mode:lr-tb;fill:#ffffff;fill-opacity:1;fill-rule:nonzero;stroke:none"
             transform="matrix(1,0,0,-1,0,-18)"><tspan
               id="tspan4909"
               y="0"
               x="0 11.0736">D	</tspan></text>
</g><g
           transform="matrix(0,-3.596192e-4,-3.596192e-4,0,346.8215,718.4369)"
           id="g4911"><path
             id="path4913"
             style="fill:none;stroke:#b41826;stroke-width:50800;stroke-linecap:butt;stroke-linejoin:round;stroke-miterlimit:10;stroke-dasharray:none;stroke-opacity:1"
             d="M -0.04827881,932602 127132.1,263278 703676,-0.03253174 496680,907051.7 -0.04827881,932602 Z" /></g><g
           transform="matrix(0,-3.596192e-4,-3.596192e-4,0,570.7398,607.938)"
           id="g4915"><path
             id="path4917"
             style="fill:none;stroke:#b41826;stroke-width:50800;stroke-linecap:butt;stroke-linejoin:round;stroke-miterlimit:10;stroke-dasharray:none;stroke-opacity:1"
             d="M -0.06988525,297450 391589.5,6.713867e-4 l 651848.5,0 L 1190023,373650 1202266,823499 340791.7,671099.1 -0.06988525,297450 Z" /></g></g></g></g></svg>